<?xml version="1.0" standalone="no"?>
<!DOCTYPE svg PUBLIC "-//W3C//DTD SVG 1.1//EN" "http://www.w3.org/Graphics/SVG/1.1/DTD/svg11.dtd" >
<svg xmlns="http://www.w3.org/2000/svg" xmlns:xlink="http://www.w3.org/1999/xlink" version="1.1">
<metadata></metadata>
<defs>
<font id="soriasoria" horiz-adv-x="1024" >
<font-face units-per-em="2048" ascent="1536" descent="-512" />
<missing-glyph horiz-adv-x="526" />
<glyph unicode="&#xfb01;" horiz-adv-x="919" d="M809 57q16 0 24.5 -9t8.5 -20.5t-9.5 -20.5t-23.5 -9h-279q-16 0 -24 9t-8 20.5t8 20.5t24 9q25 0 35 39t10 82h3v582q0 72 -10.5 100.5t-37.5 28.5h-170v-658v-55.5t4.5 -56t11.5 -44t23 -18.5t24.5 -9t8.5 -20.5t-9 -20.5t-24 -9h-278q-16 0 -24.5 9t-8.5 20.5t8 20.5 t25 9q16 0 24.5 18.5t12.5 44t4 56.5v55v658h-127q-14 0 -22.5 9t-8.5 22q0 12 9.5 20t21.5 8h53q35 2 54.5 25.5t19.5 46.5q0 131 25.5 216t68.5 135t101.5 69.5t125.5 19.5q55 0 104.5 -22.5t86.5 -61.5t58.5 -92t21.5 -117q0 -47 -28 -80.5t-79 -35.5q-18 0 -41.5 8 t-41 25.5t-22.5 44t13 61.5q23 43 39 86t14 79t-30.5 58.5t-94.5 22.5q-39 0 -63.5 -17.5t-37.5 -41t-17.5 -49t-4.5 -40.5v-268q4 -41 21.5 -55.5t50.5 -16.5h86q2 0 5 1t7 1q78 0 106 7.5t40 13.5q18 8 34.5 15t29 7t18.5 -10t6 -35v-778q0 -41 11 -77t34 -36z" />
<glyph horiz-adv-x="0" />
<glyph unicode="&#xd;" horiz-adv-x="526" />
<glyph unicode=" "  horiz-adv-x="526" />
<glyph unicode="&#x09;" horiz-adv-x="526" />
<glyph unicode="&#xa0;" horiz-adv-x="526" />
<glyph unicode="!" horiz-adv-x="301" d="M219 106q0 -47 -30.5 -77.5t-75.5 -30.5q-47 0 -78 30.5t-31 77.5q0 45 31 76t78 31q45 0 75.5 -31t30.5 -76zM113 1503q45 0 75.5 -30.5t30.5 -75.5q0 -2 -3 -47t-8 -118t-11.5 -166t-12.5 -189q-16 -227 -34 -517q0 -16 -10.5 -27t-26.5 -11q-39 0 -39 38 q-20 289 -35 517q-6 96 -13.5 189t-11.5 166t-7 118t-3 47q0 45 31 75.5t78 30.5z" />
<glyph unicode="&#x22;" horiz-adv-x="169" d="M88 1403q39 0 62.5 -34t23.5 -81q0 -49 -18.5 -85t-42 -60.5t-47 -40t-31.5 -21.5q-14 -10 -27 -2q-4 4 -5 11.5t7 11.5q8 6 35 22.5t46.5 38t17 45t-47.5 43.5q-31 14 -45 40t-11 50.5t23.5 43t59.5 18.5z" />
<glyph unicode="#" horiz-adv-x="550" d="M367 293l-17 -96h117q12 0 21.5 -9.5t9.5 -21.5t-9.5 -21.5t-21.5 -9.5h-125l-18 -106q-2 -12 -11.5 -21.5t-23.5 -9.5q-12 0 -19.5 9t-5.5 22l17 106h-97l-16 -106q-2 -12 -12.5 -21.5t-22.5 -9.5t-20.5 9t-3.5 22l16 106h-90q-12 0 -21.5 9.5t-9.5 21.5t9.5 21.5 t21.5 9.5h100l15 96h-115q-12 0 -21.5 8t-9.5 23q0 12 9.5 20t21.5 8h125l16 109q2 12 12.5 21.5t22.5 9.5t20.5 -9.5t4.5 -21.5l-17 -109h96l19 109q2 12 12 21.5t23 9.5q12 0 19 -9.5t5 -21.5l-16 -109h90q12 0 21.5 -8t9.5 -20q0 -14 -9.5 -22.5t-21.5 -8.5h-100z M307 293h-98l-14 -96h96z" />
<glyph unicode="$" horiz-adv-x="911" d="M840 371q0 -80 -31 -143.5t-84 -108.5t-123 -70.5t-149 -30.5v-96q0 -14 -9.5 -22.5t-21.5 -8.5t-21.5 8.5t-9.5 22.5v96q-68 2 -136.5 22.5t-124.5 56.5t-91 87.5t-35 118.5q0 61 21.5 101t53.5 62.5t69.5 27t70.5 -6.5q33 -10 52.5 -38.5t21.5 -64.5t-16.5 -70.5 t-63.5 -55.5q-45 -23 -53 -56.5t16.5 -66.5t78.5 -57.5t136 -28.5v561q-80 37 -149.5 71t-120.5 77t-81 102.5t-30 145.5q0 84 28 155.5t77 125.5t119.5 86t156.5 34v94q0 12 9.5 21.5t21.5 9.5t21.5 -9.5t9.5 -21.5v-94q86 -6 154.5 -37t116.5 -77t72.5 -101t24.5 -113 q0 -59 -16.5 -98t-42 -60.5t-56 -28.5t-57.5 -1q-31 6 -57.5 31.5t-35.5 60.5t3 73t57 70q37 27 48.5 66t-7 78t-68.5 68.5t-136 35.5v-573q176 -78 281.5 -185.5t105.5 -244.5zM391 1376q-78 -2 -128 -34.5t-73.5 -83t-21.5 -111t27.5 -120.5t74.5 -113.5t121 -88.5v551z M453 51q106 10 153 73.5t43 146.5t-55 169t-141 140v-529z" />
<glyph unicode="&#x26;" horiz-adv-x="1413" d="M1317 59q16 0 24.5 -9t8.5 -20.5t-9.5 -20.5t-23.5 -9h-109q-49 0 -90 -1t-83 9t-87 38t-102 85q-8 6 -17 14q-8 6 -18 16.5t-23 22.5q-23 -39 -55.5 -74.5t-72 -63.5t-87 -44t-96.5 -16q-78 0 -151.5 20.5t-130 64.5t-91 110.5t-34.5 158.5q0 68 29.5 124t72.5 102 t93 81t91 58q-59 92 -95 183t-36 171q0 156 86 252t256 104q143 0 230.5 -68.5t87.5 -220.5q0 -70 -29 -125t-74 -98t-101 -76.5t-112 -62.5q59 -96 132 -188.5t151 -176.5q31 98 84 181.5t127 130.5q39 25 82 38t82 10t67.5 -25.5t38.5 -67.5q8 -33 -5 -63t-43 -45t-73 -12 t-94 38q-35 20 -70.5 12t-67.5 -39t-60.5 -77t-47.5 -101q66 -70 131.5 -128t124 -101.5t107.5 -67t82 -23.5zM504 31q37 0 73.5 14t71.5 39t64.5 56.5t52.5 68.5q-37 35 -84 84t-97 108.5t-102.5 125t-97.5 135.5q-72 -57 -98.5 -130t-26.5 -159q0 -94 16.5 -158.5 t48 -105.5t77 -59.5t102.5 -18.5zM567 1378q-53 0 -83.5 -15t-46 -42t-19.5 -62.5t-4 -76.5q0 -80 33.5 -175.5t93.5 -197.5q35 25 67.5 56.5t57 75.5t39 100.5t14.5 129.5q0 109 -37 158t-115 49z" />
<glyph unicode="'" horiz-adv-x="415" d="M301 1403q39 0 62.5 -34t23.5 -81q0 -49 -18.5 -85t-42 -60.5t-47 -40t-31.5 -21.5q-14 -10 -27 -2q-4 4 -5 11.5t7 11.5q8 6 35 22.5t46.5 38t17 45t-47.5 43.5q-31 14 -45 40t-11 50.5t23.5 43t59.5 18.5zM627 -936q-10 -4 -21 -12q-10 -6 -19 -13.5t-18 -11.5h-6 l62 41q16 8 26 8t15 -10q6 -16 -11 -20q-6 0 -8 2q-4 4 -4 6q0 8 8 8q6 0 6 -4q4 -4 2 -4q4 0 5 8q0 6 -11 10q-12 2 -26 -8zM543 -954q-16 4 -11 20q4 10 15 10q14 0 26 -8l23 -14l-2 -2q-6 4 -14 8q-4 2 -7 4q-14 10 -28 8q-6 -4 -10 -10q0 -8 6 -8v4q2 4 6 4q10 0 10 -8 q0 -2 -4 -6q-2 -2 -10 -2zM594 -913q-2 4 -2 16q0 6 8 6t8 -6q0 -8 -4 -16q0 -4 -1 -9.5t-1 -9.5v-4q0 -2 -2 -2t-2 2v4q0 7 -4 19zM592 -934q-10 10 -20.5 13t-6.5 10q4 10 13 2q8 -4 12 -13q2 -4 2 -6t2 -6h-2zM606 -934q0 8 4 12q4 10 11 13q4 4 8 3t6 -5q2 -6 -8.5 -9.5 t-20.5 -13.5zM637 -973h-6q-6 4 -13.5 9.5t-15.5 9.5l4 2z" />
<glyph unicode="(" horiz-adv-x="559" d="M469 1374q-102 0 -153.5 -50t-73 -136t-22.5 -201t-1 -242v-2q0 -127 1 -250.5t22.5 -222t73 -159t153.5 -60.5q27 0 27 -26q0 -27 -27 -27q-111 0 -197 59.5t-145 160.5t-91 236.5t-32 288.5q0 154 32 280t91 216t145 139t197 49q27 0 27 -26q0 -27 -27 -27z" />
<glyph unicode=")" horiz-adv-x="542" d="M31 53q102 0 153.5 50.5t73 136.5t22.5 200.5t1 241.5v2q0 127 -1 251t-22.5 222t-73 158.5t-153.5 60.5q-27 0 -27 27t27 27q111 0 196.5 -59.5t145 -161t91.5 -236.5t32 -289t-32 -279.5t-91.5 -216t-145.5 -139.5t-196 -49q-27 0 -27 27q0 26 27 26z" />
<glyph unicode="*" horiz-adv-x="534" d="M467 1319q12 0 21.5 -9.5t9.5 -21.5t-9.5 -20t-21.5 -8h-143l100 -103q20 -23 0 -43q-8 -10 -20.5 -10t-20.5 10l-102 103v-144q0 -12 -9.5 -21.5t-21.5 -9.5t-20.5 9.5t-8.5 21.5v144l-102 -103q-10 -10 -21.5 -10t-21.5 10t-10 21.5t10 21.5l102 103h-143 q-12 0 -21.5 8t-9.5 20t9.5 21.5t21.5 9.5h143l-102 102q-10 8 -10 20.5t10 20.5q20 20 43 0l102 -100v143q0 12 8.5 21.5t20.5 9.5t21.5 -9t9.5 -22v-143l102 100q8 10 20.5 10.5t20.5 -10.5q10 -8 10 -20t-10 -21l-100 -102h143v0z" />
<glyph unicode="+" horiz-adv-x="651" d="M557 633q12 0 21.5 -9.5t9.5 -21.5t-9.5 -20.5t-21.5 -8.5h-186v-186q0 -12 -9.5 -21.5t-21.5 -9.5t-20.5 9.5t-8.5 21.5v186h-186q-12 0 -21.5 8.5t-9.5 20.5t9.5 21.5t21.5 9.5h186v186q0 12 8.5 21.5t20.5 9.5t21.5 -9.5t9.5 -21.5v-186h186v0z" />
<glyph unicode="," horiz-adv-x="215" d="M111 203q45 0 75.5 -41t30.5 -101q0 -55 -19.5 -99t-45 -76.5t-50 -52t-34.5 -28.5q-18 -14 -31 -2q-4 4 -5 11.5t7 13.5q10 8 31.5 28.5t34 45t8.5 51.5t-45 47q-35 18 -51.5 52t-11.5 68t31 58.5t75 24.5z" />
<glyph unicode="." horiz-adv-x="382" d="M285 106q0 -47 -31 -77.5t-76 -30.5q-47 0 -77.5 30.5t-30.5 77.5q0 45 30.5 76t77.5 31q45 0 76 -31t31 -76z" />
<glyph unicode="/" horiz-adv-x="518" d="M383 1483q4 14 15.5 21t25.5 3q12 -4 20.5 -15t4.5 -26l-379 -1534q-4 -12 -15.5 -20t-25.5 -4q-12 4 -20.5 16.5t-4.5 24.5z" />
<glyph unicode="0" horiz-adv-x="1003" d="M510 1417q80 0 160 -39t144.5 -125t104 -222t39.5 -331q0 -197 -39.5 -333t-104 -222t-144.5 -124.5t-160 -38.5q-74 0 -152.5 38.5t-142 124.5t-104.5 222.5t-41 332.5q0 195 41 331t104.5 222t142 125t152.5 39zM510 6q143 0 196.5 170t53.5 524q0 352 -53.5 522.5 t-196.5 170.5q-135 0 -188.5 -170t-53.5 -523q0 -356 53.5 -525t188.5 -169z" />
<glyph unicode="1" horiz-adv-x="575" d="M494 57q18 0 25 -9t7 -20.5t-9 -20.5t-23 -9h-394q-16 0 -24 9t-8 20.5t8 20.5t24 9q41 0 61.5 15.5t28 41t7.5 57.5v62v783q0 37 -2 59.5t-11.5 35.5t-29 17.5t-56.5 4.5q-14 0 -22 9t-8 21q0 29 30 29q57 0 101.5 16.5t75 44t46 63.5t15.5 75q0 29 29 28q31 0 30 -28 l2 -1158q0 -37 2 -69.5t11.5 -56t29 -37t54.5 -13.5z" />
<glyph unicode="2" horiz-adv-x="921" d="M852 1044q0 -131 -62.5 -238.5t-153.5 -196.5t-193.5 -164.5t-180.5 -145.5h29q68 0 111.5 -25.5t80.5 -56.5t73 -56.5t85 -25.5q57 0 91 24.5t34 108.5q0 31 33 31q12 0 21 -8t9 -23q0 -135 -50 -211.5t-144 -76.5q-59 0 -98 21.5t-75 47t-75 47t-96 21.5 q-61 0 -110.5 -27t-49.5 -76q0 -14 -9 -24t-24 -10q-14 0 -24.5 10t-10.5 24v107q0 37 12.5 66.5t32 55t43 46t44.5 39.5q129 111 229 231q43 51 84 109.5t73.5 121t52 127t19.5 127.5q0 66 -4 127.5t-25.5 109.5t-67.5 76.5t-132 28.5q-88 0 -148.5 -34.5t-88 -81.5 t-19.5 -94.5t61 -71.5q59 -29 82 -69t19 -77.5t-31 -67.5t-66 -36q-86 -16 -136 37t-50 172q0 74 26.5 138.5t76 112.5t119 75.5t155.5 27.5q115 0 195.5 -31.5t133 -84t76 -119t23.5 -138.5z" />
<glyph unicode="3" horiz-adv-x="911" d="M848 1075q0 -88 -24.5 -144.5t-62.5 -92t-82 -57t-83 -38.5q39 -12 83 -39.5t81 -70.5t61.5 -103.5t24.5 -138.5q2 -211 -106.5 -310t-293.5 -99q-66 0 -135 16t-127.5 51t-96.5 89.5t-38 129.5q0 37 10.5 76t30 70.5t49 52t70.5 20.5q49 0 82 -26.5t45 -63.5t0 -76.5 t-57 -66.5q-68 -43 -76 -84t23.5 -74t92 -53t130.5 -20t109.5 31.5t59 87t24.5 128t5 154.5q0 94 -16.5 151.5t-50 88t-86 40t-123.5 9.5q-12 0 -21.5 9t-9.5 21t9 21.5t22 9.5q98 0 153.5 18.5t83 55.5t34.5 92t7 127q0 70 -7 128t-31.5 100t-70.5 64.5t-122 22.5 q-86 0 -147.5 -26.5t-86 -65.5t-7 -84t88.5 -84q43 -25 61.5 -61.5t13.5 -72.5t-29.5 -64.5t-65.5 -34.5q-39 -6 -75 1t-63.5 29.5t-44 61.5t-16.5 96q0 68 24.5 129.5t73 108.5t117 74.5t154.5 27.5q104 0 185 -25.5t136.5 -71.5t83 -108.5t27.5 -136.5z" />
<glyph unicode="4" horiz-adv-x="1001" d="M915 635q12 0 20.5 -9.5t8.5 -21.5v-250q0 -12 -9 -21t-20 -9q-12 0 -20 9t-8 21q0 59 -28 80t-56 25h-31l2 -223v-70t7 -56.5t25.5 -37t53.5 -13.5q16 0 24.5 -9t8.5 -20.5t-9.5 -20.5t-23.5 -9h-381q-16 0 -24.5 9t-8.5 20.5t8.5 20.5t24.5 9q43 0 62.5 15.5t26.5 41 t6 57.5t-1 63v223h-467q-23 0 -33 18.5t1 36.5l510 840q23 37 54.5 52t61 9t51 -34.5t21.5 -80.5v-800h19q16 0 33.5 4t30.5 15t22.5 31.5t9.5 53.5q0 12 8 21.5t20 9.5zM119 502h454v753z" />
<glyph unicode="5" horiz-adv-x="946" d="M426 821q98 0 181 -18.5t143.5 -64.5t95.5 -124.5t35 -199.5q0 -92 -31 -171t-89.5 -137.5t-142 -91t-192.5 -32.5q-78 0 -146.5 21.5t-121 63.5t-82 101t-29.5 135q0 55 20.5 103.5t53.5 80t76 41t88 -15.5q37 -20 53 -55t8 -72t-40 -70.5t-91 -52.5q-45 -14 -59.5 -55 t9 -84t87 -77t174.5 -34q84 0 127 42t61.5 103.5t19.5 131t1 125.5q0 94 -5 162.5t-26.5 113.5t-63.5 66.5t-114 21.5q-94 0 -154.5 -28.5t-107.5 -75.5q-35 -35 -55.5 -29t-20.5 39v567q0 119 37 150t123 2q25 -8 85 -18.5t132 -14.5t146.5 2t129.5 31q41 18 72 12 t46 -28.5t11 -59.5t-30 -80q-47 -74 -131 -97.5t-173.5 -20t-165 19.5t-104.5 25q-53 14 -83.5 -2.5t-30.5 -69.5q0 -27 -1 -89.5t-1 -127.5v-164q33 27 73 49q35 18 86 34.5t117 16.5z" />
<glyph unicode="6" horiz-adv-x="1009" d="M530 807q92 0 166 -21.5t126 -68.5t81 -123t29 -182q0 -209 -101.5 -319.5t-322.5 -110.5q-121 0 -204 49t-135 141t-75.5 224t-23.5 298q0 182 34.5 319.5t96 229.5t143.5 138t174 46q63 0 133 -16t126.5 -56t93 -108.5t36.5 -175.5q0 -129 -58 -176t-138 -25 q-25 6 -48.5 29t-32.5 55.5t0 70.5t46 75q51 51 66.5 104t-5 96t-75 71t-144.5 28q-68 0 -110.5 -35t-68.5 -93.5t-38 -133t-15 -153.5t-2 -154.5t1 -137.5q0 2 12 20.5t41 39t75.5 38t116.5 17.5zM508 18q78 0 123 22.5t67.5 71t28.5 123t6 177.5q0 68 -3 131t-21.5 110 t-60.5 76t-120 29t-126 -29t-73.5 -76t-34.5 -109.5t-9 -131.5q0 -207 52 -300.5t171 -93.5z" />
<glyph unicode="7" horiz-adv-x="878" d="M815 1276q0 -57 -7 -96t-22.5 -72t-42 -62.5t-63.5 -68.5q-104 -104 -157.5 -197.5t-74 -176.5t-14.5 -154.5t20.5 -132t30 -110.5t15.5 -89q0 -59 -40 -99.5t-100 -40.5q-57 0 -98 40t-41 100q0 203 50.5 353.5t122 266t149.5 203.5t131 166q-35 -23 -88 -23 q-68 0 -112 18.5t-81 40t-72.5 40t-84.5 18.5q-37 0 -61.5 -12t-39 -32.5t-19.5 -46.5t-5 -50q0 -31 -33 -31q-12 0 -21.5 9.5t-9.5 21.5v325q0 14 9.5 23.5t21.5 9.5q33 0 33 -33v-86q27 39 62.5 60.5t78.5 21.5q57 0 95 -16t72 -35.5t71.5 -36t95.5 -16.5q31 0 59.5 3 t51 14.5t35.5 32t13 56.5q0 14 9.5 24.5t23.5 10.5t24.5 -10t10.5 -25v-30q0 -14 1 -33.5t1 -42.5z" />
<glyph unicode="8" horiz-adv-x="894" d="M569 725q47 -31 93.5 -67.5t83 -83t59 -102.5t22.5 -122q0 -74 -21.5 -140.5t-69.5 -117.5t-124.5 -80.5t-185.5 -29.5q-78 0 -152.5 18t-135 58t-97.5 103.5t-37 155.5q0 49 18.5 102.5t52.5 102.5t79 90t98 66q-43 29 -82 61.5t-68.5 74.5t-46 93t-16.5 117 q0 74 25.5 144.5t74.5 126t121 89t164 33.5q203 0 291 -93t88 -267q0 -61 -23.5 -113.5t-58.5 -94.5t-76 -74t-76 -50zM225 1110q0 -72 20.5 -121t58.5 -88t89 -70.5t113 -68.5q43 25 66.5 62.5t36 83.5t15.5 97.5t3 104.5q0 145 -42 207.5t-161 62.5q-109 0 -154 -73.5 t-45 -196.5zM426 18q113 0 165 58.5t52 181.5q0 78 -28.5 134.5t-74.5 99.5t-105.5 77.5t-123.5 71.5q-20 -10 -43.5 -39t-44 -68.5t-34 -88t-13.5 -99.5q0 -61 10.5 -119.5t38 -104.5t75.5 -75t126 -29z" />
<glyph unicode="9" horiz-adv-x="978" d="M471 1417q119 0 202 -49t135 -140t76.5 -220t24.5 -287q0 -182 -20.5 -321.5t-70.5 -233.5t-135 -141.5t-212 -47.5q-92 0 -162.5 28t-120 76t-74 111.5t-24.5 137.5q0 129 57.5 185t139.5 40q45 -10 73.5 -42t35.5 -69.5t-11 -71.5t-63 -46q-78 -20 -98.5 -73.5t5 -108 t89 -92.5t153.5 -29q113 10 161 75.5t62.5 162.5t7 213t-7.5 226q-2 -2 -15 -16t-40 -31.5t-69 -31t-99 -13.5q-78 0 -153.5 17.5t-136 64.5t-97.5 128t-37 208q0 92 34 164t92 123t135 77.5t163 26.5zM471 657q86 0 131 32t65.5 84t23.5 117.5t3 135.5q0 61 -9 123.5 t-34.5 112t-68.5 80t-111 30.5q-72 0 -116 -28.5t-69.5 -75.5t-34.5 -110.5t-9 -131.5q0 -63 7 -129t30.5 -119t68.5 -87t123 -34z" />
<glyph unicode=":" horiz-adv-x="374" d="M326 106q0 -47 -31 -77.5t-76 -30.5q-47 0 -77.5 30.5t-30.5 77.5q0 45 30.5 76t77.5 31q45 0 76 -31t31 -76zM326 504q0 -45 -31 -77t-76 -32q-47 0 -77.5 32t-30.5 77t30.5 76.5t77.5 31.5q45 0 76 -31.5t31 -76.5z" />
<glyph unicode=";" horiz-adv-x="276" d="M111 248q45 0 76.5 -41t31.5 -101q0 -55 -19.5 -99t-45 -76.5t-50 -52t-36.5 -28.5q-20 -10 -29 -2q-4 4 -6 12.5t8 14.5t31.5 26.5t34 46t7.5 52.5t-46 47q-35 16 -50.5 50t-11.5 68t30 58.5t75 24.5zM219 506q0 -45 -30.5 -77t-75.5 -32q-47 0 -78 32t-31 77t31 75.5 t78 30.5q45 0 75.5 -30.5t30.5 -75.5z" />
<glyph unicode="?" horiz-adv-x="886" d="M391 1505q90 0 169 -23.5t136.5 -70.5t90 -116.5t32.5 -164.5q0 -119 -26.5 -193.5t-67.5 -124.5t-89 -87t-91 -80q-37 -37 -56.5 -86t-29.5 -94q-10 -53 -10 -105q0 -16 -11.5 -27t-27.5 -11t-27.5 11t-11.5 27l-4 105q0 90 18 156.5t47 120t61.5 96.5t61.5 87t47.5 92 t18.5 111q0 66 -4.5 128.5t-26 110.5t-67.5 78t-132 30q-96 0 -154.5 -34t-79 -81t-2 -95t77.5 -75q59 -29 75 -69t3.5 -77.5t-47.5 -67.5t-74 -36q-86 -16 -136 37t-50 172q0 88 34 155.5t89 111.5t124.5 66.5t139.5 22.5zM410 213q45 0 76.5 -30.5t31.5 -76.5 q0 -47 -31.5 -77.5t-76.5 -30.5t-76 30.5t-31 77.5q0 45 31 76t76 31z" />
<glyph unicode="@" horiz-adv-x="1388" d="M788 866v79t-6 72t-23.5 52.5t-53.5 20.5q-53 0 -92.5 -13.5t-60 -37t-18 -54.5t30.5 -65q37 -43 23.5 -85t-64.5 -53q-51 -10 -80.5 22t-29.5 79q0 35 15 74.5t50 74.5t90.5 58.5t135.5 23.5q129 0 187 -60.5t58 -189.5l2 -430q0 -70 51.5 -82t113 30t112.5 137t51 241 q0 125 -45 228.5t-124 178t-186.5 116.5t-232.5 42q-102 0 -198.5 -32.5t-171 -106.5t-119.5 -194t-45 -296q0 -137 41 -253.5t115.5 -202.5t181 -134.5t239.5 -48.5q119 0 197 34t129 67q10 4 20.5 2t14.5 -10q10 -18 -9 -33q-29 -18 -67.5 -40t-84.5 -39.5t-96.5 -28.5 t-103.5 -11q-195 0 -334 62.5t-227 162t-129 224t-41 249.5q0 178 61.5 305t161 208t222 119t245.5 38q135 0 250 -47t200 -128t132 -191.5t47 -239.5q0 -127 -34 -217t-87 -148.5t-116.5 -85t-122 -26.5t-104.5 25.5t-62 74.5q-8 -6 -17.5 -12t-13.5 -11 q-23 -18 -61.5 -38.5t-108.5 -20.5q-43 0 -83 14.5t-70.5 41t-49 65.5t-18.5 90q0 76 27.5 122t73.5 72.5t106.5 36t124.5 9.5q27 0 48 -2t33 -5v121zM791 412q-2 8 -3 22v273q-23 20 -81 20q-82 0 -126 -52t-44 -163q0 -86 32.5 -128t87.5 -42q35 0 72 23.5t62 46.5z" />
<glyph unicode="A" horiz-adv-x="1153" d="M1073 57q12 0 20.5 -9t8.5 -19q0 -29 -29 -29h-270q-27 0 -27 29q0 10 8.5 19t18.5 9q25 0 24 33q2 16 -9 62.5t-32 113.5q-27 49 -65.5 108.5t-89.5 112t-115.5 89t-140.5 40.5l-148 -462q-12 -29 -4 -52q4 -18 27.5 -33.5t77.5 -15.5v-2q27 0 26 -24q0 -27 -26 -27 h-252q-27 0 -27 27q0 25 27 24v2q27 0 45 9.5t30.5 24.5t18.5 32.5t12 34.5l320 1007q41 150 61 213q4 10 11.5 21.5t29.5 11.5q20 0 26.5 -11.5t10.5 -19.5q12 -39 33.5 -112.5t49.5 -169t59.5 -205t64.5 -219t63.5 -212t55 -183t42 -133t23.5 -60.5q18 -25 35 -25h6z M383 639q119 -4 195.5 -32.5t117.5 -57.5q-25 76 -50 152.5t-49 146.5t-42 129t-31 102z" />
<glyph unicode="B" horiz-adv-x="980" d="M578 776q166 -29 266 -124t100 -242q0 -117 -35 -196t-101.5 -126t-160.5 -67.5t-211 -20.5h-356q-16 0 -24.5 9t-8.5 20.5t8 20.5t25 9q16 0 24.5 19.5t11.5 47.5t3 58.5v53.5v976q0 45 -7.5 87t-31.5 42q-16 0 -24.5 9.5t-8.5 20.5t8 20.5t25 9.5h356q111 0 195 -11.5 t141 -42t87 -88t30 -149.5q0 -141 -82 -221t-229 -115zM436 35q86 0 145.5 30.5t96.5 83t52 120t15 141.5q0 123 -32.5 190.5t-91 100t-136 40t-168.5 7.5v-713h119zM317 1370v-590q193 10 278 95.5t85 236.5q0 76 -16.5 126t-48 79t-76.5 41t-103 12h-119z" />
<glyph unicode="C" d="M788 842q-25 6 -48 28.5t-32.5 55t0 70.5t46.5 75q51 51 62 107.5t-13.5 103.5t-84 78t-149.5 31q-102 0 -162.5 -72t-93 -179.5t-42 -232.5t-9.5 -231q0 -127 9.5 -244t42 -206t93 -142t162.5 -53q106 0 179 47t116 110.5t61.5 129t18.5 100.5q0 12 6 21.5t17 9.5 q6 0 12 -6.5t6 -24.5q0 -59 -24.5 -135t-74.5 -143.5t-129 -115t-188 -47.5q-125 0 -222 52.5t-163.5 144.5t-101.5 220t-35 282t27.5 289t90 236.5t162 159.5t242.5 58q94 0 172 -26.5t131.5 -75.5t83 -119t29.5 -156q0 -129 -58.5 -176t-138.5 -24z" />
<glyph unicode="D" horiz-adv-x="1021" d="M451 1403q154 0 256 -55.5t163.5 -150.5t86 -222t24.5 -270q0 -129 -31.5 -256t-96.5 -226.5t-165 -161t-237 -61.5h-357q-16 0 -24.5 9t-8.5 20.5t8.5 20.5t24.5 9t23.5 27t11.5 61q4 39 4 91v976q0 45 -7 87t-32 42q-16 0 -24.5 9.5t-8.5 20.5t8.5 20.5t24.5 9.5h357z M451 33q84 0 146 55t102 147.5t59.5 214t19.5 255.5q0 139 -17.5 259.5t-56 211t-101 141.5t-152.5 51h-119v-1335h119z" />
<glyph unicode="E" horiz-adv-x="991" d="M881 1403q23 0 31 -11.5t8 -29.5v-232q0 -12 -9.5 -21t-21.5 -9t-20.5 9t-8.5 21q0 53 -2 97.5t-28.5 76t-89 49t-183.5 17.5h-219v-622h172q16 0 48 2t64.5 14t56 41t23.5 82q0 29 29 28q12 0 21.5 -8t9.5 -20v-312q0 -12 -9.5 -21t-21.5 -9t-20.5 9t-8.5 21 q0 53 -23.5 82t-56 41.5t-64.5 14.5t-48 2h-172v-682h219q121 0 183.5 17.5t89 49t28.5 75.5t2 97q0 29 29 29q12 0 21.5 -8t9.5 -21v-231q0 -18 -8.5 -29.5t-30.5 -11.5h-781q-16 0 -24 9t-8 20.5t8 20.5t24 9t24.5 19.5t11.5 47.5t3 58.5v53.5v976q0 45 -7 87t-32 42 q-16 0 -24 9.5t-8 20.5t8 20.5t24 9.5h781v0z" />
<glyph unicode="F" horiz-adv-x="954" d="M860 1403q23 0 31 -11.5t8 -29.5v-232q0 -12 -9 -20t-22 -8q-29 0 -28 28q0 53 -2 97.5t-29 76t-89.5 49t-182.5 17.5h-220v-622h172q16 0 48 2t65 14t56.5 41t23.5 82q0 29 29 28q27 0 30 -28v-314q0 -10 -8 -19t-20 -9q-27 0 -31 30q0 43 -21.5 71t-52 42t-63.5 20.5 t-56 6.5h-172v-531q2 -45 9.5 -85t31.5 -40q16 0 24.5 -9t8.5 -20.5t-9 -20.5t-24 -9h-278q-14 0 -22.5 9t-8.5 20.5t7 20.5t24 9q16 0 24.5 20.5t11.5 48.5t3 58.5v49.5v978q0 45 -7.5 87t-31.5 42q-16 0 -24.5 9.5t-8.5 20.5t8 20.5t25 9.5h780v0z" />
<glyph unicode="G" horiz-adv-x="1077" d="M1006 639q29 0 28 -29q0 -29 -28 -28q-35 0 -48.5 -25t-13.5 -72q0 -115 -21.5 -209t-69.5 -161.5t-126 -105.5t-190 -38q-125 0 -214.5 57.5t-145.5 156t-82.5 231.5t-26.5 286q0 170 32.5 304.5t94 226.5t150.5 141t202 49q88 0 166 -26.5t136 -75.5t92 -120t34 -159 q0 -43 -13.5 -74.5t-34 -52t-45 -29.5t-48.5 -9q-29 0 -57.5 12t-46 34.5t-20.5 53.5t17 67q47 82 49 146.5t-27.5 108.5t-84 68t-117.5 24q-72 0 -119 -31t-75.5 -84t-42 -123t-18.5 -145.5t-4 -154.5t1 -151q0 -127 1 -251.5t21.5 -223t71.5 -160t154 -61.5q106 0 156 48 t66.5 120t12.5 156t-4 155q0 47 -14.5 72t-48.5 25q-29 0 -29 28q0 29 29 29h301v0z" />
<glyph unicode="H" horiz-adv-x="1087" d="M1006 61q16 0 24 -9t8 -21.5t-9 -21.5t-23 -9h-279q-14 0 -22.5 9t-8.5 21.5t7.5 21.5t23.5 9q18 0 29.5 13.5t16.5 35t7 47t2 50.5q0 94 -10 196.5t-56 193.5t-142.5 159.5t-268.5 95.5v-668q2 -45 10.5 -85t42.5 -40q16 0 24.5 -9t8.5 -20.5t-9 -20.5t-24 -9h-278 q-14 0 -22.5 9t-8.5 20.5t7 20.5t24 9q18 0 28.5 13.5t15.5 35t7 47t2 50.5v991q0 25 -2 50.5t-7 47t-15.5 35.5t-28.5 14q-16 0 -23.5 9.5t-7.5 20.5t8.5 20.5t22.5 9.5h278q14 0 23.5 -9.5t9.5 -20.5t-8 -20.5t-25 -9.5q-16 0 -26 -11t-16.5 -29.5t-8.5 -41t-2 -42.5v-342 q117 -4 207 -20.5t150 -35.5q70 -23 120 -47v424q0 25 -2 50.5t-7 47t-16.5 34.5t-29.5 13q-16 0 -24.5 9.5t-8.5 20.5t7.5 20.5t25.5 9.5h279q14 0 23 -9.5t9 -20.5t-8 -20.5t-24 -9.5q-33 0 -42.5 -39.5t-9.5 -84.5v-1033q0 -45 8.5 -85t43.5 -40z" />
<glyph unicode="I" horiz-adv-x="468" d="M377 1343q-27 0 -40 -41.5t-15 -87.5v-976q0 -23 3 -53.5t9 -58.5t16 -47.5t27 -19.5q16 0 24.5 -9t8.5 -20.5t-9.5 -20.5t-23.5 -9h-279q-16 0 -24 9t-8 20.5t8 20.5t24 9t25.5 19.5t14.5 47.5t6 58.5t1 53.5v976q0 45 -11 87t-36 42q-16 0 -24 9.5t-8 20.5t8 20.5 t24 9.5h279q14 0 23.5 -9.5t9.5 -20.5t-8.5 -20.5t-24.5 -9.5z" />
<glyph unicode="J" horiz-adv-x="954" d="M874 1401q14 0 23.5 -9.5t9.5 -20.5t-8 -20.5t-25 -9.5q-16 0 -24 -18t-11 -46t-3 -58.5v-55.5v-788q0 -117 -35 -194t-89.5 -121t-122 -61t-130.5 -17q-88 0 -164 22.5t-131 64.5t-86 102t-31 134q0 47 21.5 85t55.5 58.5t75 20.5t80 -27q27 -20 40 -51t10 -63.5 t-23.5 -63.5t-59.5 -49q-37 -16 -40 -50t26.5 -68t87 -58.5t139.5 -24.5q78 0 115.5 42t51 100.5t12.5 120t-1 98.5v788v55.5t-4 58.5t-12.5 46t-24.5 18t-24.5 9.5t-8.5 20.5t8.5 20.5t24.5 9.5h278v0z" />
<glyph unicode="K" horiz-adv-x="1116" d="M1030 1346q-35 0 -60.5 -11.5t-41.5 -25.5q-20 -16 -35 -37l-258 -326q16 -41 48 -118.5t70 -172t77.5 -192.5t73.5 -181t57.5 -138.5t27.5 -61.5q18 -25 41 -25q12 0 20.5 -9t8.5 -19q0 -29 -29 -29h-291q-10 0 -19 8t-9 21q0 10 9 19t19 9q12 0 19.5 12.5t5.5 20.5 q-2 20 -19.5 69.5t-42 115t-55.5 139t-60.5 141.5t-54 125t-38.5 88l-156 -195v-335q0 -29 1 -61t4 -57.5t10 -43t22 -17.5q18 0 26.5 -9t8.5 -20.5t-8.5 -20.5t-22.5 -9h-279q-16 0 -23 9t-7 20.5t7 20.5t23 9q10 0 17.5 18.5t12.5 45.5t7 58.5t2 56.5v976q0 45 -7 87 t-32 42q-16 0 -24 9.5t-8 20.5t8 20.5t24 9.5h279q14 0 23.5 -9.5t9.5 -20.5t-8.5 -20.5t-24.5 -9.5q-25 0 -32 -40.5t-9 -85.5v-578l500 633q18 20 16 37q-2 14 -22.5 25.5t-81.5 11.5q-29 0 -29 28q0 29 29 29h280q29 0 29 -29q0 -28 -29 -28z" />
<glyph unicode="L" horiz-adv-x="1032" d="M944 301q10 0 19.5 -8t9.5 -21v-231q0 -18 -8.5 -29.5t-30.5 -11.5h-834q-16 0 -24 9t-8 20.5t8 20.5t24 9q25 0 32 41t7 88v1008q0 25 1 50.5t-2 47t-11 35.5t-27 14q-16 0 -24 9.5t-8 19.5t6 20.5t26 10.5h279q14 0 23.5 -9.5t9.5 -20.5t-8.5 -20.5t-24.5 -9.5 q-18 0 -26.5 -11t-11.5 -29.5t-3 -41v-42.5v-1186h129q68 0 145.5 9t145 34.5t112.5 73t45 122.5q0 29 29 29z" />
<glyph unicode="M" horiz-adv-x="1366" d="M1276 59q18 0 25.5 -9t7.5 -20.5t-9.5 -20.5t-23.5 -9h-277q-16 0 -24 9t-8 20.5t7 20.5t25 9q16 0 24.5 18.5t11.5 46.5t3 58.5v55.5v919l-362 -1134q-2 -10 -8 -19q-10 -18 -27 -18q-23 0 -33 18q-6 8 -8 21q-6 18 -23.5 75.5t-44 140.5t-58.5 182t-64.5 200.5 t-62.5 198t-54.5 170t-38.5 118.5t-14 47v-1005q0 -16 4 -34t15 -31t31.5 -22.5t53.5 -9.5q10 0 19.5 -8t9.5 -20t-9.5 -19.5t-19.5 -7.5h-248q-29 0 -28 29q0 10 8 19t20 9q63 0 83 32t20 65v1122q-4 18 -17 35q-10 12 -29.5 23.5t-54.5 11.5q-29 0 -28 28q0 29 28 29h246 q25 0 40 -9.5t26 -19.5q10 -12 16 -28l301 -986l303 975q4 18 14 33q8 12 22.5 23.5t37.5 11.5h172q29 0 29 -29t-29 -28q-16 0 -23.5 -12.5t-10.5 -32t-4 -42t-1 -45.5v-976v-55.5t4 -58.5t11.5 -46.5t23.5 -18.5z" />
<glyph unicode="N" horiz-adv-x="1216" d="M1137 1401q10 0 19 -9.5t9 -19.5q0 -12 -9 -20.5t-19 -8.5q-33 0 -53.5 -9t-32 -22.5t-15.5 -30.5t-4 -34v-1227q0 -20 -20 -20q-6 0 -15 8q-4 4 -6 10l-751 1131v-995q0 -16 4 -34t15 -32t31.5 -23.5t53.5 -9.5q10 0 19.5 -8t9.5 -20q0 -10 -9.5 -18.5t-19.5 -8.5h-248 q-29 0 -28 29q0 29 28 28q63 0 83 32t20 65v1067q0 12 -4.5 32.5t-13.5 41t-24.5 34.5t-41.5 14q-10 0 -19.5 8.5t-9.5 20.5q0 10 9 19.5t20 9.5h174q29 0 49 -9.5t33 -19.5q14 -12 24 -29l596 -901v805q0 33 -19.5 64.5t-82.5 31.5q-12 0 -20.5 9.5t-8.5 19.5q0 29 29 29 h248v0z" />
<glyph unicode="O" d="M537 1415q80 0 158.5 -39t140 -125t100.5 -222t39 -331q0 -197 -39 -333t-100.5 -222t-140.5 -124.5t-158 -38.5q-74 0 -156 38.5t-150.5 124.5t-112.5 222.5t-44 332.5q0 195 44 331t112.5 222t150.5 125t156 39zM537 18q72 0 118.5 40t73.5 123t37 211t10 306 q0 176 -10 304t-37 211t-74 122t-118 39q-135 0 -200 -161.5t-65 -514.5q0 -354 65 -517t200 -163z" />
<glyph unicode="P" horiz-adv-x="1003" d="M338 184q2 -45 9 -85t32 -40q16 0 24.5 -9t8.5 -20.5t-9.5 -20.5t-23.5 -9h-279q-16 0 -24 9t-8 20.5t8 20.5t24 9q14 0 21.5 13.5t11.5 35t5 47t1 50.5v1009q0 45 -7 87t-32 42q-16 0 -24 9.5t-8 20.5t8 20.5t24 9.5h238h121q111 0 201 -11.5t155.5 -42t101 -88 t35.5 -149.5q0 -98 -46 -166.5t-128 -111.5t-194.5 -63.5t-245.5 -22.5v-564zM338 1370v-590q199 10 302 95.5t103 236.5q0 76 -23.5 126t-62.5 79t-90 41t-108 12h-121z" />
<glyph unicode="Q" horiz-adv-x="960" d="M913 705q0 -164 -25.5 -288t-68.5 -212t-101.5 -141.5t-123.5 -73.5q8 -123 31.5 -191.5t58.5 -103.5q41 -41 83 -36t66.5 31.5t22.5 60.5t-51 50q-27 8 -40 25.5t-15 38t7 39t29 28.5q31 14 54.5 10.5t40 -21t24.5 -43t8 -52.5q0 -78 -37.5 -124t-90 -62.5t-110 -4 t-95.5 53.5q-53 53 -86 117.5t-43 170.5q-72 8 -140.5 55.5t-122 135.5t-87 221t-33.5 316q0 195 37.5 330.5t99 221.5t137.5 125t150 39q80 0 155.5 -39t135 -125t95 -221.5t35.5 -330.5zM592 29q78 55 100.5 225t22.5 451q0 176 -8.5 306t-32 216t-67.5 128t-115 42 q-68 0 -112 -42t-68.5 -128t-35 -216t-10.5 -306q0 -166 8.5 -296t30.5 -216q135 129 211 100t76 -189v-75zM313 162q43 -137 133 -158q-2 23 -2 47.5v52.5q0 49 -10 75t-27.5 30t-41 -8t-52.5 -39z" />
<glyph unicode="R" horiz-adv-x="1155" d="M1014 57q16 0 24.5 -9t8.5 -19.5t-9.5 -19.5t-23.5 -9h-113q-53 0 -99 10t-80 50t-53.5 118t-19.5 213q0 106 -12 176t-41 110t-77 55.5t-122 15.5h-123v-564q2 -45 9.5 -85t31.5 -40q16 0 24.5 -9t8.5 -20.5t-9 -20.5t-24 -9h-278q-16 0 -23.5 9t-7.5 20.5t7 20.5t24 9 q14 0 21.5 13.5t11.5 35t5 47t1 50.5v1009q0 45 -7.5 87t-31.5 42q-16 0 -24.5 9.5t-8.5 20.5t8 20.5t25 9.5h356q111 0 201 -11.5t155.5 -42t101.5 -88t36 -149.5q0 -123 -71 -198.5t-193 -116.5q68 -10 108.5 -37t64 -76t31 -120.5t7.5 -172.5q0 -115 17 -181.5t44 -100 t58.5 -43t60.5 -9.5zM274 778q197 10 301.5 95t104.5 237q0 76 -23.5 126t-62.5 78.5t-91 41t-110 12.5h-119v-590z" />
<glyph unicode="S" horiz-adv-x="966" d="M483 795q94 -39 172 -77t133.5 -86t85 -110.5t29.5 -150.5q0 -72 -24.5 -141.5t-75.5 -125t-131 -89t-191 -33.5q-72 0 -144.5 18t-133 54t-98 89.5t-37.5 124.5q0 59 21.5 99.5t53 63t69.5 27.5t71 -5t52 -40t21 -65t-16 -69.5t-64 -55.5q-47 -23 -54 -58.5t20.5 -69.5 t88 -58.5t150.5 -24.5q84 0 136.5 33t76 85t19.5 116.5t-32 127t-79 118t-123 88.5q-84 39 -157.5 78.5t-129 91t-87 117t-31.5 155.5q0 86 28.5 158.5t81 127t125 85t162.5 30.5q96 0 173 -28.5t130 -74.5t82 -105.5t29 -118.5t-16.5 -98.5t-42 -62t-56.5 -29.5t-57 -1 q-31 8 -57.5 34t-36 59.5t3 71.5t57.5 71q39 29 49 71.5t-13.5 82.5t-84 69t-160.5 29q-84 0 -138 -36t-79 -91.5t-23 -124t32 -135t85 -123.5t135 -88z" />
<glyph unicode="T" horiz-adv-x="1150" d="M1073 1401q23 0 30 -11.5t7 -29.5v-232q0 -29 -29 -28q-10 0 -19 8t-9 20q0 37 -9.5 78t-45 77t-108.5 61.5t-202 29.5v-1136v-53.5t4 -58.5t12.5 -47.5t24.5 -19.5t24.5 -9t8.5 -20.5t-9.5 -20.5t-23.5 -9h-278q-16 0 -24.5 9t-8.5 20.5t8 20.5t25 9q16 0 24 19.5 t11 47.5t3 58.5v53.5v1138q-121 -2 -192.5 -16t-109 -43t-50 -75t-12.5 -114q0 -29 -29 -28q-29 0 -28 28v232q0 18 7 29.5t29 11.5h969v0z" />
<glyph unicode="U" horiz-adv-x="1173" d="M1083 1341q-47 0 -68.5 -21.5t-31.5 -45.5q-10 -29 -10 -66l4 -809q0 -98 -27.5 -175t-79 -131t-121 -81.5t-155.5 -27.5q-66 0 -144.5 8t-147.5 48t-116 124t-47 235v760q0 25 1 55.5t-1 59.5t-11 48t-28 19q-16 0 -24 9.5t-8 20.5t8 20.5t24 9.5h279q14 0 23.5 -9.5 t9.5 -20.5t-8.5 -20.5t-24.5 -9.5q-18 0 -27.5 -19t-12.5 -48t-2 -59.5t1 -55.5v-760q0 -199 63.5 -292t192.5 -93q94 0 158.5 37t102.5 93.5t54.5 124t16.5 130.5v809q0 37 -11 66q-10 25 -31.5 46t-64.5 21q-12 0 -20 9.5t-8 21.5q0 29 28 29h264q12 0 21.5 -8.5 t9.5 -20.5t-9.5 -21.5t-21.5 -9.5z" />
<glyph unicode="V" horiz-adv-x="1173" d="M1104 1401q29 0 29 -29t-29 -29q-37 0 -59.5 -15t-34.5 -32q-14 -23 -23 -47l-309 -1028l-64 -190q-4 -10 -11 -21.5t-30 -11.5q-20 0 -26 11t-10 22q-16 51 -50 162.5t-75 251t-87 290t-85 276.5t-68 212t-37 98q-20 27 -35 27h-6q-29 0 -28 26q0 29 28 29h289 q27 0 27 -29q0 -27 -27 -26q-25 0 -25 -35q-2 -14 14.5 -79t43 -158t60.5 -204.5t66.5 -220t62.5 -203t48 -153.5l287 954q6 23 11 40.5t0 29.5t-26.5 18t-66.5 6q-29 0 -29 29t29 29h246v0z" />
<glyph unicode="W" horiz-adv-x="1918" d="M1849 1401q29 0 29 -29t-29 -29q-35 0 -58.5 -15t-35.5 -32q-16 -23 -22 -47l-310 -1028q-23 -66 -37 -114t-24 -76q-4 -10 -11.5 -21.5t-29.5 -11.5q-20 0 -27.5 11t-11.5 22q-10 37 -32.5 110.5t-50.5 166.5t-59.5 201.5t-65.5 216.5t-64.5 209t-57.5 183l-270 -897 l-64 -190q-4 -10 -11 -21.5t-29 -11.5q-20 0 -26.5 11t-10.5 22q-16 51 -50 162.5t-75 251t-87 290t-85 276.5t-68 212t-37 98q-20 27 -35 27h-6q-29 0 -28 26q0 29 28 29h289q27 0 27 -29q0 -27 -27 -26q-25 0 -25 -35q-2 -14 14.5 -79t43 -158t60.5 -204.5t67 -220 t62.5 -203t47.5 -153.5l271 897q-18 55 -30.5 89t-16.5 40q-6 10 -12.5 14t-10.5 8q-2 0 -10 5h-8q-29 0 -29 26q0 29 29 29h288q29 0 29 -29q0 -27 -29 -26q-20 0 -24 -35q-2 -14 14.5 -79t43 -158t60 -204.5t66.5 -220t62.5 -203t48.5 -153.5l289 954q6 23 10 40.5 t-1 29.5t-26.5 18t-66.5 6q-29 0 -29 29t29 29h245v0z" />
<glyph unicode="X" horiz-adv-x="1150" d="M1055 57q29 0 28 -28q0 -10 -8 -19.5t-20 -9.5h-271q-10 0 -18 9t-8 20q0 29 26 28q16 0 20.5 5.5t6.5 11.5q0 8 -2 16l-301 498q-59 -127 -109 -228q-20 -43 -40.5 -86t-37 -77.5t-27.5 -57t-13 -28.5q-4 -10 -8.5 -19.5t1 -17.5t23.5 -12.5t57 -4.5q29 0 29 -28 q0 -29 -29 -29h-235q-29 0 -29 29t29 28q35 0 57.5 8.5t34.5 18.5q14 10 20 27l252 534l-346 676q-4 6 -10 12q-12 12 -31 13q-29 0 -28 28q0 27 28 27h271q27 0 26 -27q0 -29 -26 -28q-16 0 -22.5 -6.5t-6.5 -12.5q-2 -8 4 -16l289 -527q74 133 133 242q25 45 49.5 90 t44 82t32.5 61.5t15 30.5q4 10 7 19.5t-5 17.5t-30.5 12t-67.5 4q-29 0 -29 29t29 29h223q29 0 29 -29t-29 -29q-23 0 -37 -8t-24 -18q-10 -12 -17 -27l-299 -565l359 -643q0 -6 6 -12q8 -12 29 -13h6v0z" />
<glyph unicode="Y" horiz-adv-x="1107" d="M1018 1401q29 0 29 -29t-29 -29q-18 0 -34.5 -11t-27.5 -25q-12 -16 -22 -35l-313 -613v-421q0 -25 1 -55.5t5 -58.5t11 -46.5t19 -18.5h2q18 0 25.5 -9t7.5 -20.5t-9 -20.5t-24 -9h-276q-14 0 -20.5 9t-6.5 20.5t7.5 20.5t19.5 9h2q8 0 14.5 20.5t11.5 49.5t8 59.5 t3 49.5v421l-285 660q-2 6 -6 12q-12 12 -29 12h-6q-29 0 -28 29q0 29 28 29h271q27 0 26 -29q0 -29 -26 -29q-29 0 -29 -16q-2 -8 4 -16l248 -606l295 567q10 18 4 35q-4 14 -25.5 25t-75.5 11q-29 0 -28 29q0 29 28 29h230v0z" />
<glyph unicode="Z" horiz-adv-x="1030" d="M893 301q10 0 19.5 -8t9.5 -21v-239q0 -33 -35 -33h-844q-35 0 -24.5 28.5t51.5 94.5l610 1245h-225q-86 0 -159 -9t-125 -36t-81 -73t-29 -122q0 -29 -28 -28q-29 0 -29 28v242q2 12 10.5 21.5t26.5 9.5h848q25 0 16.5 -24.5t-28.5 -61.5l-641 -1282h233q86 0 158.5 9 t125 34.5t82 73t29.5 122.5q0 29 29 29z" />
<glyph unicode="`" horiz-adv-x="1705" />
<glyph unicode="a" horiz-adv-x="854" d="M776 59q16 0 24.5 -9t8.5 -20.5t-9 -20.5t-24 -9h-207q-12 0 -22 8t-12 23v39q-39 -35 -91.5 -59.5t-138.5 -24.5q-45 0 -92 16t-85 48t-62.5 80t-24.5 110q0 74 34 128t90 89t128 51t145 16q31 0 55.5 -2t41.5 -4v146q0 47 1 95t-7.5 86t-29 62.5t-63.5 24.5t-85 -13.5 t-67.5 -37t-27.5 -57t33 -74.5q27 -33 32 -66t-6.5 -59.5t-37 -44t-56.5 -19.5q-63 -4 -98 31t-35 90q0 41 18.5 90t59.5 91t107.5 70t162.5 28q154 0 222.5 -73t68.5 -229l2 -454q0 -25 2 -50.5t7 -47t14.5 -35t23.5 -13.5zM379 41q53 0 92 22.5t64 49.5v364 q-12 6 -35 13.5t-62 7.5q-102 0 -152 -70t-50 -188q0 -104 38.5 -151.5t104.5 -47.5z" />
<glyph unicode="b" horiz-adv-x="876" d="M545 958q33 0 82 -18t95 -70.5t79 -148.5t33 -252q0 -158 -33 -252t-79 -146.5t-95 -68.5t-82 -16q-49 0 -87 11t-67 28.5t-48 36t-32 34.5v-65q-4 -31 -35 -31h-204q-16 0 -24.5 9t-8.5 20.5t8 20.5t25 9q14 0 22 13.5t12.5 35t5.5 47t1 50.5v8v36v93.5v181t-1 297.5 t-1 445q0 12 -6.5 22t-14.5 19q-8 8 -18 14q-18 8 -27 18q-6 10 -3 20.5t28 22.5q61 29 115.5 49.5t68.5 24.5q18 6 28.5 10t16.5 2t8 -13t2 -36v-577q12 16 31.5 36.5t48.5 38t68 29.5t88 12zM485 27q49 0 79 38.5t45.5 102t20.5 142.5t5 159t-5 159t-20.5 143.5t-45 104 t-79.5 39.5q-72 0 -113.5 -44t-62.5 -89l2 -626q10 -20 24.5 -43t36 -42.5t49 -31.5t64.5 -12z" />
<glyph unicode="c" horiz-adv-x="813" d="M758 322q16 0 16 -17q0 -47 -21.5 -103.5t-62.5 -104.5t-102.5 -79.5t-141.5 -31.5q-102 0 -176.5 35.5t-123 101t-71 161t-22.5 212.5q0 100 32 185t85 146.5t124 96t150 34.5q84 0 145.5 -22.5t102.5 -59t61.5 -84t20.5 -96.5q0 -55 -24.5 -93t-90.5 -38 q-20 0 -43.5 9.5t-39 31t-16.5 56t24 88.5q12 27 16 59.5t-9 59t-48 45t-99 18.5q-74 0 -111.5 -45t-53 -112.5t-16.5 -147.5t-1 -148q0 -61 4 -137t22.5 -143.5t55.5 -113.5t102 -46q78 0 133.5 26.5t91.5 66.5t53 87t17 86q1 17 17 17z" />
<glyph unicode="d" horiz-adv-x="854" d="M795 59q18 0 25 -9t7 -20.5t-9 -20.5t-23 -9h-203q-31 0 -35 31v67q-12 -16 -31.5 -35.5t-48 -37t-67.5 -28.5t-88 -11q-33 0 -80 16t-90 68.5t-74 146.5t-31 252q0 156 31 252t74 149.5t90 72t80 18.5q51 0 90 -12.5t67.5 -31t48 -39t31.5 -36.5v424q0 12 -6 22t-14 19 q-8 8 -21 14q-16 8 -24 18q-6 10 -4 20.5t28 22.5q59 29 113.5 49.5t68.5 24.5q18 6 29.5 10t18 2t8.5 -13t2 -36v-153q0 -264 -1 -444.5t-1 -298v-181v-93.5v-36v-8q0 -25 1 -50.5t5 -47t12.5 -35t20.5 -13.5zM381 27q37 0 65.5 12t50 31.5t36 43t24.5 44.5l2 624 q-10 23 -25.5 46.5t-37 44t-50 33t-65.5 12.5q-49 0 -75.5 -40t-40 -104.5t-16.5 -144.5t-3 -160t3 -159t16.5 -142.5t40 -102t75.5 -38.5z" />
<glyph unicode="e" horiz-adv-x="788" d="M754 729q0 -80 -29 -133t-74 -85t-101 -47t-111.5 -21.5t-104.5 -5.5t-80 1q0 -59 7 -127.5t28.5 -128t58.5 -98.5t96 -39q80 0 132.5 23.5t83 59.5t44 78t13.5 81q0 14 16 14q14 0 15 -14q0 -72 -25 -128.5t-66 -95t-96 -59t-119 -20.5q-106 -2 -180 38.5t-120 110.5 t-68.5 162t-24.5 197q-2 100 26.5 187t82 150.5t126 99.5t156.5 36q154 0 234 -67t80 -169zM254 473q25 0 74 6t100 33t89 77t38 140t-27.5 151.5t-87.5 61.5q-49 0 -82.5 -30.5t-54 -78t-31 -103.5t-14.5 -108.5t-4 -93.5v-55z" />
<glyph unicode="f" horiz-adv-x="505" d="M465 950q12 0 21.5 -8t9.5 -20q0 -14 -9.5 -22.5t-21.5 -8.5h-166v-658v-55.5t4 -56t11.5 -44t23.5 -18.5t24.5 -9t8.5 -20.5t-9.5 -20.5t-23.5 -9h-279q-16 0 -24 9t-8 20.5t8 20.5t24 9t24.5 18.5t12.5 44t4 56.5v55v658h-127q-12 0 -21 8t-9 23q0 12 9 20t21 8 q84 0 105.5 17.5t21.5 54.5q0 123 19.5 207t56.5 136t89 74.5t120 22.5q115 0 178.5 -68.5t63.5 -191.5q0 -47 -30 -82t-77 -35q-31 0 -53.5 13.5t-34.5 33t-14 44t10 49.5q20 43 34.5 82t12.5 67.5t-22.5 46t-67.5 17.5q-31 0 -48.5 -17.5t-25.5 -41t-10 -49t-2 -40.5v-268 q0 -27 6 -41t24.5 -21.5t50.5 -8.5t85 -1z" />
<glyph unicode="g" horiz-adv-x="894" d="M881 1032q4 -25 -5.5 -43t-28 -27.5t-41 -9.5t-46.5 15q-29 18 -43.5 6t-18.5 -33.5t-3 -46.5t1 -31q113 -113 113 -293q0 -92 -34 -174t-111 -147q53 -27 93 -89.5t51 -141t-11.5 -163.5t-96.5 -159q-49 -49 -116.5 -79t-139 -39t-143.5 2t-127 45t-90 90.5t-35 138.5 q0 31 9.5 65.5t31 70.5t56 67.5t87.5 54.5q41 18 81 19t71 -11.5t50.5 -37t19.5 -54.5q0 -25 -11.5 -50.5t-35 -42t-57.5 -17.5t-79 24q-23 12 -55.5 19t-62 1t-50 -30.5t-20.5 -77.5q0 -78 45 -123t116.5 -52.5t160 28.5t172.5 120q47 47 74.5 106.5t34.5 118t-6 106.5 t-48 70q-43 -29 -94.5 -44t-100.5 -15q-59 0 -125.5 24.5t-122 74.5t-90 126t-30.5 176q-4 100 31.5 176t91 126.5t121 75t124.5 24.5q53 0 110.5 -19.5t108.5 -58.5q10 78 33 124t70 68q14 6 33.5 8.5t37 -4t32 -19.5t18.5 -38zM438 197q55 0 87 39.5t47.5 97t19.5 122 t4 113.5q0 39 -3 102.5t-17.5 123t-47 102.5t-90.5 43q-158 0 -157 -371q-1 -372 157 -372z" />
<glyph unicode="h" horiz-adv-x="897" d="M813 59q18 0 25.5 -9t7.5 -20.5t-9.5 -20.5t-23.5 -9h-260q-16 0 -24.5 9t-8.5 20.5t7.5 20.5t25.5 9q25 0 32 45.5t7 94.5v559q0 25 -2 47t-10.5 39.5t-28 29t-51.5 11.5q-37 0 -67 -12.5t-52.5 -30t-38.5 -38t-25 -36.5v-590q2 -43 9.5 -81t31.5 -38q16 0 24.5 -9 t8.5 -20.5t-9 -20.5t-24 -9h-278q-16 0 -24.5 10t-8.5 21q0 12 8 21t25 9q25 0 32 43t7 93v1069q0 12 -6.5 22t-14.5 19q-8 8 -20 14q-16 8 -25 18q-6 10 -4 20.5t29 22.5q59 29 113.5 49.5t68.5 24.5q18 6 29.5 10t17.5 2t8 -13t2 -36v-598q12 18 35 44t56.5 49.5t80 40 t103.5 16.5q61 0 97 -19.5t55.5 -50.5t24.5 -68.5t5 -74.5v-559q0 -49 7 -94.5t32 -45.5z" />
<glyph unicode="i" horiz-adv-x="471" d="M381 59q16 0 24.5 -9t8.5 -20.5t-9.5 -20.5t-23.5 -9h-279q-16 0 -24 9t-8 20.5t8 20.5t24 9q23 0 34 39t11 82v582q0 12 -7 21.5t-15 17.5q-10 8 -23 16q-18 8 -26 19q-6 10 -3 20t27 23q61 29 115.5 49t69.5 24q18 6 27.5 9.5t14.5 1.5t6 -12.5t1 -35.5v-743 q2 -41 13 -77t34 -36zM229 1012q-45 0 -77.5 31.5t-32.5 78.5t32.5 79t77.5 32q47 0 79 -32t32 -79t-32 -78.5t-79 -31.5z" />
<glyph unicode="j" horiz-adv-x="436" d="M207 1235q45 0 77.5 -32t32.5 -79t-32.5 -78.5t-77.5 -31.5q-47 0 -79 31.5t-32 78.5t32 79t79 32zM260 952q18 6 29.5 10.5t17.5 2.5t8 -13.5t2 -36.5v-153l-2 -848q0 -96 -21.5 -161.5t-59 -105.5t-92 -57.5t-119.5 -17.5q-55 0 -104.5 18.5t-88.5 49t-61.5 71.5 t-22.5 86q0 53 32 85t85 32q33 0 54.5 -17.5t28.5 -44t-1 -55t-35 -53.5q-25 -23 -28 -48.5t12.5 -47t48 -36.5t80.5 -15q43 0 62 28.5t27.5 74.5t7.5 102.5t-1 111.5v848q0 12 -6.5 22.5t-14.5 18.5t-20 14q-16 8 -25 19q-6 10 -4 20t29 23q59 29 113.5 49t68.5 24z" />
<glyph unicode="k" horiz-adv-x="937" d="M848 57q29 0 29 -28q0 -29 -29 -29h-270q-29 0 -29 29t29 28q10 0 18 12.5t6 20.5q-4 31 -24.5 88.5t-48 120.5t-55.5 120.5t-42 88.5l-94 -102v-168v-53.5t4 -58.5t12 -47.5t25 -19.5q16 0 24.5 -9t8.5 -20.5t-9.5 -20.5t-23.5 -9h-279q-16 0 -24 9t-8 20.5t8 20.5t24 9 t24.5 19.5t11.5 47.5t3 58.5v53.5v1032q0 12 -6 21t-14 18q-8 8 -19 16q-18 8 -26 18q-6 10 -3 20.5t27 22.5q59 29 114.5 48.5t70.5 23.5q35 12 45 12t10 -47v-954l336 346q16 14 12 27q-4 10 -27.5 19t-85.5 9q-27 0 -26 29q0 27 26 27h258q27 0 27 -27q0 -29 -27 -29 q-23 0 -43 -9t-36 -19q-18 -12 -35 -27l-148 -158q8 -23 28.5 -72.5t45.5 -111t52.5 -128t50 -123t40 -95.5t21.5 -45q18 -25 41 -25z" />
<glyph unicode="l" horiz-adv-x="425" d="M358 59q16 0 24.5 -9t8.5 -20.5t-9 -20.5t-24 -9h-278q-16 0 -24.5 9t-8.5 20.5t8 20.5t25 9q16 0 23.5 32t11.5 73q4 47 2 106v1000q0 12 -6.5 21t-14.5 18q-8 8 -18 16q-18 8 -27 18q-6 10 -3 20.5t28 22.5q59 29 113.5 48.5t70.5 23.5q18 6 28.5 10.5t16.5 2t8 -12.5 t2 -35v-153l2 -1026v-54.5t3.5 -60.5t12.5 -49.5t25 -20.5z" />
<glyph unicode="m" horiz-adv-x="1386" d="M1292 59q18 0 25.5 -9t7.5 -20.5t-9 -20.5t-24 -9h-260q-16 0 -24.5 9t-8.5 20.5t7.5 20.5t25.5 9q12 0 19.5 12.5t12.5 32t6 44t1 47.5v563q0 25 -2 47t-10 39.5t-27.5 29t-52.5 11.5q-37 0 -66.5 -12.5t-52 -30t-39 -38t-24.5 -36.5v-573q0 -23 1 -47.5t5 -44t12 -32 t21 -12.5q16 0 24 -9t8 -20.5t-9 -20.5t-23 -9h-263q-16 0 -24 9t-8 20.5t8 20.5t24 9q12 0 20.5 12.5t12.5 32t6 44t2 47.5v563q0 25 -2 47t-10 39.5t-27.5 29t-52.5 11.5q-39 0 -68.5 -12.5t-52 -31t-38 -39t-25.5 -36.5v-571q0 -23 1 -47.5t6 -44t13.5 -32t20.5 -12.5 q16 0 24.5 -9t8.5 -20.5t-9.5 -20.5t-23.5 -9h-279q-16 0 -24 9t-8 20.5t8 20.5t24 9q12 0 19.5 12.5t12.5 32t6 44t1 47.5v559q0 12 -6 22t-14 19q-8 8 -19 14q-18 8 -26 18q-6 10 -3 20.5t27 22.5q31 14 60.5 27.5t55.5 23t44 15.5t25 8q35 12 45 12t10 -47v-90 q12 18 35.5 44t57.5 50.5t80 41t103 16.5q98 0 135 -47t44 -109q12 18 34.5 45t57.5 51.5t81 42t105 17.5q61 0 97 -19.5t55.5 -50.5t24.5 -68.5t5 -74.5v-563q0 -23 1 -47.5t6.5 -44t12.5 -32t19 -12.5z" />
<glyph unicode="n" horiz-adv-x="894" d="M825 59q16 0 24.5 -9t8.5 -20.5t-9 -20.5t-24 -9h-262q-16 0 -24.5 9t-8.5 20.5t8.5 20.5t24.5 9q12 0 20.5 12.5t12.5 32t6 44t2 47.5v563q0 25 -2 47t-10 39.5t-27.5 29t-52.5 11.5q-39 0 -68.5 -12.5t-52 -31t-38 -39t-25.5 -36.5v-571q0 -23 1 -47.5t6 -44t13 -32 t21 -12.5q16 0 24 -9t8 -20.5t-9 -20.5t-23 -9h-279q-16 0 -24.5 9t-8.5 20.5t8.5 20.5t24.5 9q12 0 19.5 12.5t12.5 32t6 44t1 47.5v559q0 12 -6 22t-14 19q-8 8 -19 14q-18 8 -27 18q-6 10 -3 20.5t28 22.5q31 14 60.5 27.5t55 23t44 15.5t24.5 8q35 12 45.5 12t10.5 -47 v-90q12 18 35.5 44t57.5 50.5t80 41t103 16.5q61 0 97 -19.5t55.5 -50.5t24.5 -68.5t5 -74.5v-563q0 -23 1 -47.5t5.5 -44t12.5 -32t20 -12.5z" />
<glyph unicode="o" horiz-adv-x="790" d="M403 961q41 0 101.5 -17.5t116 -71t95.5 -149.5t40 -256v-4q0 -158 -40 -252t-95.5 -144.5t-116 -65.5t-101.5 -15t-101 15t-115.5 65.5t-95.5 144.5t-40 252v4q0 160 40 256t95.5 149.5t115.5 71t101 17.5zM557 463q0 86 -3 170t-18.5 150.5t-46 108.5t-86.5 42 q-55 0 -85.5 -42t-46 -108.5t-18.5 -149.5t-3 -167v-4q0 -84 3 -165t18.5 -144.5t46 -102.5t85.5 -39t86 39t46.5 102.5t18.5 144.5t3 165z" />
<glyph unicode="p" horiz-adv-x="897" d="M571 961q33 0 80 -18.5t91 -72t75 -150.5t31 -253t-31 -251t-75 -146.5t-91 -67.5t-80 -16q-49 0 -88 11t-67.5 28.5t-48 37t-31.5 35.5v-250q0 -20 1 -57t6 -72.5t13.5 -62.5t22.5 -27q16 0 24.5 -9t8.5 -20.5t-9.5 -20.5t-23.5 -9h-279q-16 0 -24 9t-8 20.5t8 20.5 t24 9q12 0 20.5 26t12.5 60.5t4 71.5v59v910q0 12 -6 21t-14 18q-8 8 -19 16q-18 8 -26 18q-6 10 -3 20.5t27 22.5q59 29 114.5 49.5t70.5 24.5q35 10 45 10t10 -47v-73q12 16 31.5 37.5t48 41t67.5 33t88 13.5zM514 27q49 0 75.5 38.5t40 102t16.5 141.5t3 158v161 t-10 145.5t-39 105.5t-86 41q-37 0 -65.5 -14.5t-50 -36t-37 -47t-25.5 -46.5v-616q14 -18 34.5 -42t43 -44.5t48 -33.5t52.5 -13z" />
<glyph unicode="q" horiz-adv-x="894" d="M780 -143v-61t4 -74.5t11.5 -63.5t21.5 -27q16 0 24.5 -9t8.5 -21.5t-9.5 -21.5t-23.5 -9h-278q-16 0 -24.5 9t-8.5 21.5t8 21.5t25 9q14 0 22 28t12.5 65.5t6.5 76.5t2 60v250q-12 -16 -32 -38t-48.5 -40.5t-67.5 -31.5t-90 -13q-33 0 -80 18.5t-90 71.5t-73.5 149.5 t-30.5 251.5q0 156 30.5 251t73.5 146.5t90 68t80 16.5q49 0 86 -11.5t65.5 -27t48 -35t31.5 -33.5q2 25 8.5 51.5t22.5 42.5q18 18 43 20.5t52.5 -6t58.5 -21.5t61 -28q25 -12 27 -22t-4 -21q-8 -10 -25 -18q-12 -8 -20 -16q-18 -18 -19 -39v-940zM403 31q37 0 66 14 t50.5 34.5t36.5 45.5t26 47v616q-10 20 -25.5 43t-37 42.5t-50.5 32t-66 12.5q-49 0 -75.5 -39t-40 -101.5t-16.5 -140.5t-3 -158t3 -159.5t16.5 -144t40 -104.5t75.5 -40z" />
<glyph unicode="r" horiz-adv-x="788" d="M584 965q68 0 113.5 -49.5t45.5 -112.5q0 -57 -30.5 -93t-71.5 -36q-25 0 -46.5 10t-33.5 26.5t-14 40t12 52.5q27 51 19.5 79.5t-39 29.5t-84 -28.5t-117.5 -92.5v-596q2 -39 8 -68q4 -27 11.5 -47.5t21.5 -20.5q16 0 24.5 -9t8.5 -20.5t-9.5 -20.5t-23.5 -9h-279 q-16 0 -24 9t-8 20.5t8 20.5t24 9q12 0 19.5 20.5t11.5 47.5q6 29 8 68v581q0 12 -6 21.5t-14 17.5t-19 16q-18 8 -26 19q-6 10 -3 20.5t27 22.5l123 74q25 16 53.5 9t44.5 -32q10 -16 14.5 -39.5t4.5 -73.5q10 10 33.5 33t56.5 45.5t73 39t83 16.5z" />
<glyph unicode="s" horiz-adv-x="831" d="M377 567q70 -31 142.5 -61.5t130 -67.5t94 -84t36.5 -110q0 -80 -34.5 -130.5t-87 -79t-116 -38.5t-118.5 -10q-51 0 -113.5 14t-118 44t-92.5 75t-37 104q0 41 15.5 73t40 52.5t54.5 24.5t60 -11q31 -14 43.5 -35.5t12.5 -45t-12.5 -47t-32.5 -44.5q-27 -27 -20 -55.5 t37 -51t73 -37.5t90 -15q80 0 131 34.5t63.5 84t-21.5 104.5t-126 96q-47 20 -112.5 48t-125 68t-102.5 92t-43 124q0 125 82 200.5t254 75.5q80 0 140.5 -21.5t101.5 -53t61.5 -70.5t20.5 -74q0 -49 -13.5 -80.5t-35 -49t-47 -21.5t-48.5 6q-53 20 -63.5 71.5t43.5 104.5 q25 25 29.5 51.5t-13.5 50t-61 39t-115 15.5q-94 0 -138 -45t-46 -105.5t33.5 -120t103.5 -88.5z" />
<glyph unicode="t" horiz-adv-x="512" d="M530 952q12 0 21.5 -9t9.5 -21t-9 -20.5t-22 -8.5h-168v-688q0 -45 12.5 -73t30 -44t37 -22.5t33.5 -6.5q16 0 24.5 -9t8.5 -20.5t-9.5 -20.5t-23.5 -9h-113q-84 0 -141 57.5t-57 141.5v694h-125q-12 0 -21.5 8t-9.5 21q0 12 9.5 21t21.5 9q25 0 69 20.5t88 54.5t75.5 80 t31.5 95q0 12 8 21.5t21 9.5q12 0 21 -9.5t9 -21.5v-176q0 -29 6.5 -43t25 -21.5t51 -8.5t85.5 -1z" />
<glyph unicode="u" horiz-adv-x="872" d="M797 61q16 0 24 -9t8 -21.5t-9 -21.5t-23 -9h-203q-14 0 -23.5 9t-11.5 22v121q-10 -16 -31.5 -44t-57.5 -55.5t-84 -47t-110 -19.5q-61 0 -97 20.5t-55.5 52t-24.5 70.5t-5 76v549q0 12 -6 22t-14 19q-8 8 -19 14q-18 8 -26 18q-6 10 -3 20.5t27 22.5q31 14 60.5 27.5 t55.5 25t44 18.5t25 9q29 12 33.5 2t4.5 -37v-710q0 -25 2.5 -48.5t10.5 -43t26.5 -30.5t53.5 -11q43 0 74.5 15t55 36.5t38 44t22.5 39.5v547q0 12 -6 22t-14 19q-8 8 -19 14q-18 8 -26 18q-6 10 -3 20.5t27 22.5q61 29 115.5 52.5t68.5 27.5q35 12 45.5 6t10.5 -41v-702 l1 -25q1 -24 5 -51.5t12.5 -51.5t20.5 -24z" />
<glyph unicode="v" horiz-adv-x="811" d="M797 950q29 0 28 -26q0 -29 -28 -29q-27 0 -42.5 -9t-25.5 -20q-10 -12 -16 -28l-244 -813q-4 -10 -11 -24.5t-30 -14.5q-18 0 -29 18q-6 8 -8 21l-295 845q-2 6 -8 13q-12 12 -33 12q-29 0 -28 29q0 27 28 26h271q27 0 26 -26q0 -29 -26 -29q-16 0 -20.5 -6t-6.5 -12 q-2 -8 2 -17l209 -555l158 533q6 16 4 28q-2 10 -11.5 19.5t-35.5 9.5q-29 0 -29 29q0 27 29 26h172v0z" />
<glyph unicode="w" horiz-adv-x="1193" d="M1229 952q29 0 28 -26q0 -29 -28 -29q-27 0 -42.5 -9t-25.5 -20q-10 -12 -16 -28l-244 -811q-4 -10 -11 -26.5t-30 -16.5q-10 0 -17 6t-12 14q-6 8 -8 23l-202 561l-175 -561q-4 -10 -11 -26.5t-29 -16.5q-10 0 -17.5 6t-11.5 14q-6 8 -8 23l-295 843q-2 6 -8 13 q-12 12 -33 12q-29 0 -29 29q0 27 29 26h270q27 0 27 -26q0 -29 -27 -29q-16 0 -20 -6t-7 -12q-2 -8 3 -17l208 -553l109 348l-68 215q-2 6 -8 13q-12 12 -33 12q-29 0 -28 29q0 27 28 26h271q27 0 26 -26q0 -29 -26 -29q-16 0 -20.5 -6t-6.5 -12q-2 -8 2 -17l209 -553 l158 531q6 16 4 28q-2 10 -11.5 19.5t-35.5 9.5q-29 0 -29 29q0 27 29 26h172v0z" />
<glyph unicode="x" horiz-adv-x="831" d="M733 897q-23 0 -39 -10t-28 -21q-14 -14 -25 -30q-33 -63 -66 -123q-29 -53 -59.5 -109.5t-52.5 -99.5q29 -57 67.5 -129t73.5 -137q39 -76 82 -154q4 -6 10 -12q12 -12 29 -13q23 0 29 -22q4 -14 -4.5 -25.5t-22.5 -11.5h-270q-29 0 -29 29q0 10 8 20t21 10q29 0 28 17 q0 8 -4 16l-155 289l-156 -264q-8 -16 -6 -29q2 -10 11 -19.5t38 -9.5h2q12 0 20.5 -9t8.5 -21t-9.5 -20.5t-21.5 -8.5h-178q-12 0 -21.5 8t-9.5 21q0 12 8 21t21 9q23 0 40 9.5t29 19.5q12 12 23 29q33 53 68 106q29 47 60.5 99.5t55.5 95.5q-29 55 -68.5 132t-74.5 148 q-41 82 -86 170q-4 6 -12 15l-13.5 9t-15.5 5q-12 0 -20.5 8t-6.5 21q0 27 29 26h268q14 0 23.5 -10t5.5 -24q-6 -20 -29 -21q-16 0 -22 -6t-6 -12q0 -8 4 -19l161 -319l150 295q8 16 6 30q-2 10 -11 20.5t-38 10.5t-29 29q0 10 9.5 18t19.5 8h180q25 0 29 -26 q0 -29 -29 -29z" />
<glyph unicode="y" horiz-adv-x="866" d="M815 952q27 0 27 -28q0 -10 -8.5 -19.5t-18.5 -9.5q-29 0 -46 -10.5t-28 -20.5q-12 -12 -18 -28q-43 -147 -92 -299q-20 -66 -44 -137.5t-50.5 -145.5t-54 -148.5t-54.5 -142.5q-33 -84 -62.5 -156.5t-62.5 -126t-73 -85t-93 -31.5q-59 0 -96 40t-37 95q0 51 31 94t84 43 q37 0 57.5 -21.5t23.5 -48t-10.5 -53t-46.5 -35.5q-23 -6 -34 -21t-12 -30.5t9.5 -27t30.5 -11.5q37 0 66.5 29t58.5 80t57.5 118.5t59.5 147.5q4 10 7 20.5t7 20.5l-303 866q-2 6 -8 13q-12 12 -33 12q-12 0 -20.5 9t-8.5 20q0 29 29 28h270q27 0 27 -28q0 -10 -8 -19.5 t-19 -9.5q-16 0 -20 -5t-6 -11q-2 -8 2 -17l203 -579q37 104 69.5 202.5t57.5 176.5q29 92 53 174q4 16 -6 28q-10 10 -34 20.5t-75 10.5q-10 0 -18 9t-8 20q0 29 26 28h252v0z" />
<glyph unicode="z" horiz-adv-x="811" d="M745 952q16 0 19.5 -7t-0.5 -19.5t-14.5 -28.5t-20.5 -35q-23 -41 -53.5 -97t-67.5 -123t-75.5 -137.5t-75.5 -137.5q-88 -160 -185 -336q47 -2 84 -2q33 -2 63 -2h36q78 0 122 18t65.5 51t25.5 78t4 98q0 12 9 20.5t19 8.5q29 0 29 -29v-239q0 -33 -33 -33h-616 q-23 0 -29 7t-1 22.5t20.5 38t35.5 55.5q20 35 52 88t69 116.5t77 132t77 134.5q88 156 186 328l-200 2q-78 0 -118 -18.5t-55.5 -50.5t-15.5 -77v-98q0 -12 -10 -20.5t-23 -8.5q-27 0 -26 29v231q0 18 7 29.5t30 11.5h589v0z" />
<glyph unicode="&#xa3;" horiz-adv-x="1044" d="M750 1343q57 0 108 -17t85 -51t45 -82t-9 -110q-16 -47 -57 -81.5t-88 -34.5q-31 0 -48.5 13t-23.5 33.5t0 45t26 47.5q72 86 61 149.5t-108 63.5q-31 0 -53 -14.5t-39.5 -37t-28 -48t-16.5 -45.5q-6 -23 -17.5 -69t-27.5 -110.5t-35.5 -142.5t-44.5 -160h135 q12 0 21.5 -9t9.5 -21t-9 -20.5t-22 -8.5h-153q-29 -92 -59.5 -183.5t-63.5 -170t-67.5 -138t-69.5 -88.5q4 -6 28 -12q23 -4 67 -7t124 -3t152.5 9t126 34.5t85 73t31.5 122.5q0 29 29 29q10 0 19 -8t9 -21v-239q0 -33 -34 -33h-805q-29 0 -29 29t29 28q0 2 13 3t30.5 6.5 t33 17.5t21.5 35q8 37 21.5 94t29 127t32.5 145.5t34 149.5h-70q-12 0 -21.5 8t-9.5 21q0 12 9.5 21t21.5 9h84q14 59 26.5 114.5t22.5 96.5q23 86 63 166t95 141.5t126 97t155 35.5z" />
<glyph unicode="&#xa7;" horiz-adv-x="794" d="M512 532q94 -47 148.5 -113.5t54.5 -148.5q0 -80 -34 -132t-85 -83.5t-113.5 -44t-117.5 -12.5q-51 0 -114 14.5t-118 44t-92 74.5t-37 105q0 41 15.5 72.5t40 52t54 24.5t60.5 -10t43 -36t12 -45.5t-12 -47t-33 -43.5q-31 -31 -23.5 -61.5t37 -55.5t74.5 -40t93 -15 q80 0 128 44t57 102.5t-23.5 115.5t-114.5 84q-45 14 -106.5 34.5t-119 52.5t-99.5 76t-50 109v25q0 82 28.5 136t71.5 89q47 35 105 51q-39 18 -76 40t-65.5 50.5t-46 64.5t-17.5 81q0 88 32.5 145.5t82 91t106.5 46t107 12.5q63 0 124.5 -14.5t110.5 -44t80 -72.5t31 -99 q0 -49 -13.5 -80.5t-35 -49t-47 -21.5t-48.5 6q-53 20 -63 73.5t43 102.5q33 31 35 60.5t-21.5 54t-74 40t-121.5 15.5q-104 0 -152.5 -46t-49.5 -104.5t40 -112.5t114 -73q88 -23 162 -54.5t126 -73.5t81 -93t29 -111v-24t-4 -25q-8 -49 -31 -86t-55 -61q-25 -20 -53.5 -33 t-59.5 -23zM293 930q-35 -6 -58.5 -20.5t-39.5 -32.5q-29 -35 -32 -80t17 -86q16 -37 51 -67t86 -42q66 -14 129 -41q45 20 76 64q45 66 23 141q-12 41 -45 73.5t-88 51.5q-25 10 -55.5 19.5t-63.5 19.5z" />
<glyph unicode="&#xbf;" horiz-adv-x="886" d="M633 543q86 16 136 -37t50 -172q0 -90 -33.5 -156.5t-89 -110.5t-125 -67t-139.5 -23q-72 0 -146.5 24t-138 71t-103.5 116.5t-40 163.5q0 96 26.5 168t67.5 128.5t89.5 101.5t91.5 88q37 37 55 85t28 93q10 53 13 106q0 16 11 27.5t28 11.5q16 0 27.5 -11t11.5 -28 l4 -104q0 -90 -18.5 -156.5t-47.5 -120t-61.5 -96.5t-61 -87t-47 -92t-18.5 -112q0 -66 13 -128t41 -110t72 -78t103 -30q96 0 154.5 34t79 81t2 94t-77.5 76t-74.5 68.5t-3.5 77.5t46 68t75 36zM414 1270q-45 0 -77 30.5t-32 75.5t32 77t77 32t75.5 -32t30.5 -77 t-30.5 -75.5t-75.5 -30.5z" />
<glyph unicode="&#xc0;" horiz-adv-x="1153" d="M1073 57q12 0 20.5 -9t8.5 -19q0 -29 -29 -29h-270q-27 0 -27 29q0 10 8.5 19t18.5 9q25 0 24 33q2 16 -9 62.5t-32 113.5q-27 49 -65.5 108.5t-89.5 112t-115.5 89t-140.5 40.5l-148 -462q-12 -29 -4 -52q4 -18 27.5 -33.5t77.5 -15.5v-2q27 0 26 -24q0 -27 -26 -27 h-252q-27 0 -27 27q0 25 27 24v2q27 0 45 9.5t30.5 24.5t18.5 32.5t12 34.5l320 1007q41 150 61 213q4 10 11.5 21.5t29.5 11.5q20 0 26.5 -11.5t10.5 -19.5q12 -39 33.5 -112.5t49.5 -169t59.5 -205t64.5 -219t63.5 -212t55 -183t42 -133t23.5 -60.5q18 -25 35 -25h6z M383 639q119 -4 195.5 -32.5t117.5 -57.5q-25 76 -50 152.5t-49 146.5t-42 129t-31 102zM401 1729q-18 29 -11 60.5t36 47.5t59.5 10t49.5 -35q37 -59 68.5 -97t56 -60.5t42 -33.5t27.5 -15q23 -12 21 -21q0 -12 -25 -8q-12 2 -54 12t-93.5 28.5t-100.5 46.5t-74 62 q-2 1 -2 3z" />
<glyph unicode="&#xc1;" horiz-adv-x="1153" d="M1073 57q12 0 20.5 -9t8.5 -19q0 -29 -29 -29h-270q-27 0 -27 29q0 10 8.5 19t18.5 9q25 0 24 33q2 16 -9 62.5t-32 113.5q-27 49 -65.5 108.5t-89.5 112t-115.5 89t-140.5 40.5l-148 -462q-12 -29 -4 -52q4 -18 27.5 -33.5t77.5 -15.5v-2q27 0 26 -24q0 -27 -26 -27 h-252q-27 0 -27 27q0 25 27 24v2q27 0 45 9.5t30.5 24.5t18.5 32.5t12 34.5l320 1007q41 150 61 213q4 10 11.5 21.5t29.5 11.5q20 0 26.5 -11.5t10.5 -19.5q12 -39 33.5 -112.5t49.5 -169t59.5 -205t64.5 -219t63.5 -212t55 -183t42 -133t23.5 -60.5q18 -25 35 -25h6z M383 639q119 -4 195.5 -32.5t117.5 -57.5q-25 76 -50 152.5t-49 146.5t-42 129t-31 102zM797 1729l-2 -3q-25 -35 -74 -62.5t-100.5 -46t-93.5 -28.5t-54 -12q-25 -4 -24 8q-2 8 20 21q10 4 28.5 15t43 33.5t55.5 60.5t68 97q18 29 48.5 35t59.5 -10t36 -47.5t-11 -60.5z " />
<glyph unicode="&#xc2;" horiz-adv-x="1153" d="M1073 57q12 0 20.5 -9t8.5 -19q0 -29 -29 -29h-270q-27 0 -27 29q0 10 8.5 19t18.5 9q25 0 24 33q2 16 -9 62.5t-32 113.5q-27 49 -65.5 108.5t-89.5 112t-115.5 89t-140.5 40.5l-148 -462q-12 -29 -4 -52q4 -18 27.5 -33.5t77.5 -15.5v-2q27 0 26 -24q0 -27 -26 -27 h-252q-27 0 -27 27q0 25 27 24v2q27 0 45 9.5t30.5 24.5t18.5 32.5t12 34.5l320 1007q41 150 61 213q4 10 11.5 21.5t29.5 11.5q20 0 26.5 -11.5t10.5 -19.5q12 -39 33.5 -112.5t49.5 -169t59.5 -205t64.5 -219t63.5 -212t55 -183t42 -133t23.5 -60.5q18 -25 35 -25h6z M383 639q119 -4 195.5 -32.5t117.5 -57.5q-25 76 -50 152.5t-49 146.5t-42 129t-31 102zM836 1606q23 -12 20 -21q-4 -10 -25 -8q-10 2 -38.5 11t-66.5 22.5t-80 32t-77 40.5q-35 -23 -76.5 -41t-79.5 -31.5t-68 -22.5t-38 -11q-20 -2 -24 8q0 10 20 21q10 4 28.5 15 t43 33.5t56.5 60.5t69 97q10 18 29.5 30.5t39.5 10.5q20 2 40 -10t30 -31q37 -59 68.5 -97t56 -60.5t43.5 -33.5t29 -15z" />
<glyph unicode="&#xc4;" horiz-adv-x="1153" d="M1073 57q12 0 20.5 -9t8.5 -19q0 -29 -29 -29h-270q-27 0 -27 29q0 10 8.5 19t18.5 9q25 0 24 33q2 16 -9 62.5t-32 113.5q-27 49 -65.5 108.5t-89.5 112t-115.5 89t-140.5 40.5l-148 -462q-12 -29 -4 -52q4 -18 27.5 -33.5t77.5 -15.5v-2q27 0 26 -24q0 -27 -26 -27 h-252q-27 0 -27 27q0 25 27 24v2q27 0 45 9.5t30.5 24.5t18.5 32.5t12 34.5l320 1007q41 150 61 213q4 10 11.5 21.5t29.5 11.5q20 0 26.5 -11.5t10.5 -19.5q12 -39 33.5 -112.5t49.5 -169t59.5 -205t64.5 -219t63.5 -212t55 -183t42 -133t23.5 -60.5q18 -25 35 -25h6z M383 639q119 -4 195.5 -32.5t117.5 -57.5q-25 76 -50 152.5t-49 146.5t-42 129t-31 102zM537 1683q0 -45 -32 -75.5t-77 -30.5t-75.5 30.5t-30.5 75.5q0 47 30.5 78t75.5 31t77 -31t32 -78zM813 1683q0 -45 -30.5 -75.5t-75.5 -30.5t-77 30.5t-32 75.5q0 47 32 78t77 31 t75.5 -31t30.5 -78z" />
<glyph unicode="&#xc7;" d="M924 457q6 0 12 -7.5t6 -25.5q0 -59 -24.5 -135t-74.5 -143.5t-129 -113.5t-188 -46h25l-105 -105q102 0 153.5 -51t51.5 -123q0 -90 -62.5 -138t-146.5 -48q-55 0 -101 35.5t-46 85.5q0 37 17.5 62.5t52.5 25.5q18 0 29.5 -9.5t15.5 -23.5t0 -30.5t-19 -28.5 q-25 -20 -27 -38t9.5 -30t31 -19.5t37.5 -7.5q57 0 78 43t21 121q0 74 -50.5 99.5t-115.5 -9.5q-12 -6 -22.5 7.5t9.5 35.5l148 146h16q-125 0 -222 55t-163.5 151.5t-101.5 227.5t-35 285t27.5 288.5t90 236t162 160t242.5 58.5q94 0 172 -26.5t131.5 -76t83 -119 t29.5 -155.5q0 -127 -58.5 -176t-138.5 -27q-25 6 -48 30t-32.5 55.5t0 70.5t46.5 76q51 49 62 105.5t-13.5 103.5t-84 77.5t-149.5 30.5q-68 0 -117 -32.5t-83.5 -88t-55 -129t-32 -152.5t-15.5 -160t-4 -153q0 -127 9.5 -246.5t42 -211.5t93 -148.5t162.5 -56.5 q106 0 179 47t116 110.5t61.5 128t18.5 99.5q0 33 23 33z" />
<glyph unicode="&#xc8;" horiz-adv-x="991" d="M881 1403q23 0 31 -11.5t8 -29.5v-232q0 -12 -9.5 -21t-21.5 -9t-20.5 9t-8.5 21q0 53 -2 97.5t-28.5 76t-89 49t-183.5 17.5h-219v-622h172q16 0 48 2t64.5 14t56 41t23.5 82q0 29 29 28q12 0 21.5 -8t9.5 -20v-312q0 -12 -9.5 -21t-21.5 -9t-20.5 9t-8.5 21 q0 53 -23.5 82t-56 41.5t-64.5 14.5t-48 2h-172v-682h219q121 0 183.5 17.5t89 49t28.5 75.5t2 97q0 29 29 29q12 0 21.5 -8t9.5 -21v-231q0 -18 -8.5 -29.5t-30.5 -11.5h-781q-16 0 -24 9t-8 20.5t8 20.5t24 9t24.5 19.5t11.5 47.5t3 58.5v53.5v976q0 45 -7 87t-32 42 q-16 0 -24 9.5t-8 20.5t8 20.5t24 9.5h781zM315 1729q-18 29 -11 60.5t36 47.5t59.5 10t49.5 -35q37 -59 68.5 -97t56 -60.5t42 -33.5t27.5 -15q23 -12 21 -21q0 -12 -25 -8q-12 2 -54 12t-93.5 28.5t-100.5 46.5t-74 62q-2 1 -2 3z" />
<glyph unicode="&#xc9;" horiz-adv-x="991" d="M881 1403q23 0 31 -11.5t8 -29.5v-232q0 -12 -9.5 -21t-21.5 -9t-20.5 9t-8.5 21q0 53 -2 97.5t-28.5 76t-89 49t-183.5 17.5h-219v-622h172q16 0 48 2t64.5 14t56 41t23.5 82q0 29 29 28q12 0 21.5 -8t9.5 -20v-312q0 -12 -9.5 -21t-21.5 -9t-20.5 9t-8.5 21 q0 53 -23.5 82t-56 41.5t-64.5 14.5t-48 2h-172v-682h219q121 0 183.5 17.5t89 49t28.5 75.5t2 97q0 29 29 29q12 0 21.5 -8t9.5 -21v-231q0 -18 -8.5 -29.5t-30.5 -11.5h-781q-16 0 -24 9t-8 20.5t8 20.5t24 9t24.5 19.5t11.5 47.5t3 58.5v53.5v976q0 45 -7 87t-32 42 q-16 0 -24 9.5t-8 20.5t8 20.5t24 9.5h781zM645 1729l-2 -3q-25 -35 -74 -62.5t-100 -46t-93 -28.5t-54 -12q-25 -4 -25 8q-2 8 20 21q10 4 29 15t43.5 33.5t55 60.5t67.5 97q18 29 49 35t60 -10t35.5 -47.5t-11.5 -60.5z" />
<glyph unicode="&#xca;" horiz-adv-x="991" d="M881 1403q23 0 31 -11.5t8 -29.5v-232q0 -12 -9.5 -21t-21.5 -9t-20.5 9t-8.5 21q0 53 -2 97.5t-28.5 76t-89 49t-183.5 17.5h-219v-622h172q16 0 48 2t64.5 14t56 41t23.5 82q0 29 29 28q12 0 21.5 -8t9.5 -20v-312q0 -12 -9.5 -21t-21.5 -9t-20.5 9t-8.5 21 q0 53 -23.5 82t-56 41.5t-64.5 14.5t-48 2h-172v-682h219q121 0 183.5 17.5t89 49t28.5 75.5t2 97q0 29 29 29q12 0 21.5 -8t9.5 -21v-231q0 -18 -8.5 -29.5t-30.5 -11.5h-781q-16 0 -24 9t-8 20.5t8 20.5t24 9t24.5 19.5t11.5 47.5t3 58.5v53.5v976q0 45 -7 87t-32 42 q-16 0 -24 9.5t-8 20.5t8 20.5t24 9.5h781zM752 1606q23 -12 20 -21q-4 -10 -24 -8q-10 2 -39 11t-67 22.5t-80 32t-77 40.5q-35 -23 -76.5 -41t-79.5 -31.5t-68 -22.5t-38 -11q-20 -2 -24 8q0 10 20 21q10 4 28.5 15t43 33.5t56.5 60.5t69 97q10 18 29.5 30.5t39.5 10.5 q20 2 40 -10t30 -31q37 -59 68.5 -97t56.5 -60.5t43.5 -33.5t28.5 -15z" />
<glyph unicode="&#xcb;" horiz-adv-x="991" d="M881 1403q23 0 31 -11.5t8 -29.5v-232q0 -12 -9.5 -21t-21.5 -9t-20.5 9t-8.5 21q0 53 -2 97.5t-28.5 76t-89 49t-183.5 17.5h-219v-622h172q16 0 48 2t64.5 14t56 41t23.5 82q0 29 29 28q12 0 21.5 -8t9.5 -20v-312q0 -12 -9.5 -21t-21.5 -9t-20.5 9t-8.5 21 q0 53 -23.5 82t-56 41.5t-64.5 14.5t-48 2h-172v-682h219q121 0 183.5 17.5t89 49t28.5 75.5t2 97q0 29 29 29q12 0 21.5 -8t9.5 -21v-231q0 -18 -8.5 -29.5t-30.5 -11.5h-781q-16 0 -24 9t-8 20.5t8 20.5t24 9t24.5 19.5t11.5 47.5t3 58.5v53.5v976q0 45 -7 87t-32 42 q-16 0 -24 9.5t-8 20.5t8 20.5t24 9.5h781zM453 1683q0 -45 -32 -75.5t-77 -30.5t-75.5 30.5t-30.5 75.5q0 47 30.5 78t75.5 31t77 -31t32 -78zM729 1683q0 -45 -30.5 -75.5t-75.5 -30.5t-77 30.5t-32 75.5q0 47 32 78t77 31t75.5 -31t30.5 -78z" />
<glyph unicode="&#xcc;" horiz-adv-x="468" d="M377 1343q-27 0 -40 -41.5t-15 -87.5v-976q0 -23 3 -53.5t9 -58.5t16 -47.5t27 -19.5q16 0 24.5 -9t8.5 -20.5t-9.5 -20.5t-23.5 -9h-279q-16 0 -24 9t-8 20.5t8 20.5t24 9t25.5 19.5t14.5 47.5t6 58.5t1 53.5v976q0 45 -11 87t-36 42q-16 0 -24 9.5t-8 20.5t8 20.5 t24 9.5h279q14 0 23.5 -9.5t9.5 -20.5t-8.5 -20.5t-24.5 -9.5zM76 1729q-18 29 -11 60.5t35 47.5q29 16 59.5 10t49.5 -35q37 -59 68.5 -97t56 -60.5t42 -33.5t27.5 -15q23 -12 21 -21q0 -12 -25 -8q-12 2 -54 12t-93 28.5t-100.5 46.5t-73.5 62q-2 1 -2 3z" />
<glyph unicode="&#xcd;" horiz-adv-x="468" d="M377 1343q-27 0 -40 -41.5t-15 -87.5v-976q0 -23 3 -53.5t9 -58.5t16 -47.5t27 -19.5q16 0 24.5 -9t8.5 -20.5t-9.5 -20.5t-23.5 -9h-279q-16 0 -24 9t-8 20.5t8 20.5t24 9t25.5 19.5t14.5 47.5t6 58.5t1 53.5v976q0 45 -11 87t-36 42q-16 0 -24 9.5t-8 20.5t8 20.5 t24 9.5h279q14 0 23.5 -9.5t9.5 -20.5t-8.5 -20.5t-24.5 -9.5zM410 1729l-2 -3q-25 -35 -74 -62.5t-100.5 -46t-93.5 -28.5t-54 -12q-25 -4 -25 8q-2 8 21 21q10 4 28.5 15t43 33.5t55.5 60.5t67 97q18 29 49 35t60 -10t36 -47.5t-11 -60.5z" />
<glyph unicode="&#xce;" horiz-adv-x="468" d="M377 1343q-27 0 -40 -41.5t-15 -87.5v-976q0 -23 3 -53.5t9 -58.5t16 -47.5t27 -19.5q16 0 24.5 -9t8.5 -20.5t-9.5 -20.5t-23.5 -9h-279q-16 0 -24 9t-8 20.5t8 20.5t24 9t25.5 19.5t14.5 47.5t6 58.5t1 53.5v976q0 45 -11 87t-36 42q-16 0 -24 9.5t-8 20.5t8 20.5 t24 9.5h279q14 0 23.5 -9.5t9.5 -20.5t-8.5 -20.5t-24.5 -9.5zM508 1606q23 -12 20 -21q-4 -10 -24 -8q-10 2 -39 11t-67 22.5t-80 32t-76 40.5q-35 -23 -77 -41t-80 -31.5t-67.5 -22.5t-37.5 -11q-20 -2 -25 8q0 10 20 21q10 4 29 15t43.5 33.5t56 60.5t68.5 97 q10 18 29.5 30.5t40.5 10.5q20 2 39.5 -10t29.5 -31q37 -59 69 -97t56.5 -60.5t43 -33.5t28.5 -15z" />
<glyph unicode="&#xcf;" horiz-adv-x="468" d="M377 1343q-27 0 -40 -41.5t-15 -87.5v-976q0 -23 3 -53.5t9 -58.5t16 -47.5t27 -19.5q16 0 24.5 -9t8.5 -20.5t-9.5 -20.5t-23.5 -9h-279q-16 0 -24 9t-8 20.5t8 20.5t24 9t25.5 19.5t14.5 47.5t6 58.5t1 53.5v976q0 45 -11 87t-36 42q-16 0 -24 9.5t-8 20.5t8 20.5 t24 9.5h279q14 0 23.5 -9.5t9.5 -20.5t-8.5 -20.5t-24.5 -9.5zM209 1683q0 -45 -32 -75.5t-77 -30.5t-75.5 30.5t-30.5 75.5q0 47 30.5 78t75.5 31t77 -31t32 -78zM485 1683q0 -45 -30.5 -75.5t-75.5 -30.5t-77 30.5t-32 75.5q0 47 32 78t77 31t75.5 -31t30.5 -78z" />
<glyph unicode="&#xd0;" horiz-adv-x="1003" d="M274 1401q154 0 275 -37t204 -120t127 -216t44 -326q0 -182 -56.5 -315t-147.5 -219t-208 -128t-238 -42h-237q-16 0 -24.5 9t-8.5 20.5t8 20.5t25 9q16 0 23.5 27t11.5 61q4 39 4 91v976q0 45 -7.5 87t-31.5 42q-16 0 -24.5 9.5t-8.5 20.5t8 20.5t25 9.5h237zM274 31 q111 0 188 32.5t127 87t76.5 125t39 145.5t14.5 147.5t2 133.5q0 72 -2 150t-15.5 151.5t-40 139t-76.5 116t-126 79t-187 28.5v-649h105q16 0 48 2t63.5 14t55 40t23.5 81q0 12 9.5 21.5t21.5 9.5t20.5 -9.5t8.5 -21.5v-311q0 -29 -29 -29q-12 0 -21.5 8t-9.5 21 q0 53 -23.5 81.5t-55 42t-63.5 15.5t-48 2h-105v-653z" />
<glyph unicode="&#xd1;" horiz-adv-x="1216" d="M1137 1399q10 0 19 -8.5t9 -20.5t-9 -20.5t-19 -8.5q-33 0 -53.5 -9t-32 -22.5t-15.5 -30.5t-4 -34v-1227q0 -20 -20 -20q-6 0 -15 8q-4 4 -6 10l-751 1131v-995q0 -16 4 -34t15 -32t31.5 -22.5t53.5 -8.5q10 0 19.5 -9t9.5 -21q0 -10 -9.5 -18.5t-19.5 -8.5h-248 q-29 0 -28 29q0 29 28 28q63 0 83 32t20 65v1067q0 12 -4.5 32.5t-13.5 41t-24.5 34.5t-41.5 14q-10 0 -19.5 8.5t-9.5 20.5q0 10 9 19.5t20 9.5h174q29 0 49 -9.5t33 -19.5q14 -12 24 -29l596 -901v805q0 33 -19.5 64.5t-82.5 31.5q-12 0 -20.5 9.5t-8.5 19.5q0 29 29 29 h248zM369 1497q-6 2 -7.5 7t-1.5 7q0 29 8.5 61t26 58.5t42 44t59.5 17.5q27 0 59.5 -14.5t66 -32t63.5 -32t52 -14.5q45 0 61.5 26t39.5 63q4 4 8 11t14 5q6 -4 7 -9t1 -7q0 -29 -8 -61t-25.5 -58.5t-43 -43t-58.5 -16.5q-25 0 -56.5 14.5t-64 32t-64.5 32t-56 14.5 q-45 0 -61.5 -26t-39.5 -65q-4 -4 -8 -11t-14 -3z" />
<glyph unicode="&#xd2;" d="M537 1415q80 0 158.5 -39t140 -125t100.5 -222t39 -331q0 -197 -39 -333t-100.5 -222t-140.5 -124.5t-158 -38.5q-74 0 -156 38.5t-150.5 124.5t-112.5 222.5t-44 332.5q0 195 44 331t112.5 222t150.5 125t156 39zM537 18q72 0 118.5 40t73.5 123t37 211t10 306 q0 176 -10 304t-37 211t-74 122t-118 39q-135 0 -200 -161.5t-65 -514.5q0 -354 65 -517t200 -163zM352 1729q-16 29 -10 60.5t35 47.5t60.5 10t47.5 -35q37 -59 69 -97t56.5 -60.5t43 -33.5t28.5 -15q20 -12 20 -21q-4 -10 -24 -8q-12 2 -55 12t-94.5 28.5t-100.5 46.5 t-74 62z" />
<glyph unicode="&#xd3;" d="M537 1415q80 0 158.5 -39t140 -125t100.5 -222t39 -331q0 -197 -39 -333t-100.5 -222t-140.5 -124.5t-158 -38.5q-74 0 -156 38.5t-150.5 124.5t-112.5 222.5t-44 332.5q0 195 44 331t112.5 222t150.5 125t156 39zM537 18q72 0 118.5 40t73.5 123t37 211t10 306 q0 176 -10 304t-37 211t-74 122t-118 39q-135 0 -200 -161.5t-65 -514.5q0 -354 65 -517t200 -163zM688 1729q-2 0 -2 -3q-25 -35 -74 -62.5t-100 -46t-94 -28.5t-56 -12q-20 -2 -24 8q0 10 20 21q10 4 29 15t43.5 33.5t56 60.5t68.5 97q16 29 48 35t61 -10t34.5 -47.5 t-10.5 -60.5z" />
<glyph unicode="&#xd4;" d="M537 1415q80 0 158.5 -39t140 -125t100.5 -222t39 -331q0 -197 -39 -333t-100.5 -222t-140.5 -124.5t-158 -38.5q-74 0 -156 38.5t-150.5 124.5t-112.5 222.5t-44 332.5q0 195 44 331t112.5 222t150.5 125t156 39zM537 18q72 0 118.5 40t73.5 123t37 211t10 306 q0 176 -10 304t-37 211t-74 122t-118 39q-135 0 -200 -161.5t-65 -514.5q0 -354 65 -517t200 -163zM797 1606q20 -12 18 -21q0 -12 -24 -8q-10 2 -39 11t-67 22.5t-80 32t-77 40.5q-35 -23 -76.5 -41t-79.5 -31.5t-67 -22.5t-37 -11q-25 -4 -24 8q-2 8 18 21q10 4 28.5 15 t43 33.5t56.5 60.5t69 97q12 18 30.5 30.5t38.5 10.5q23 2 41.5 -10t30.5 -31q37 -59 68.5 -97t56.5 -60.5t43.5 -33.5t28.5 -15z" />
<glyph unicode="&#xd6;" d="M487 1683q0 -45 -30.5 -75.5t-75.5 -30.5t-77 30.5t-32 75.5q0 47 32 78t77 31t75.5 -31t30.5 -78zM766 1683q0 -45 -32 -75.5t-77 -30.5t-75.5 30.5t-30.5 75.5q0 47 30.5 78t75.5 31t77 -31t32 -78zM537 1415q80 0 158.5 -39t140 -125t100.5 -222t39 -331 q0 -197 -39 -333t-100.5 -222t-140.5 -124.5t-158 -38.5q-74 0 -156 38.5t-150.5 124.5t-112.5 222.5t-44 332.5q0 195 44 331t112.5 222t150.5 125t156 39zM537 18q72 0 118.5 40t73.5 123t37 211t10 306q0 176 -10 304t-37 211t-74 122t-118 39q-135 0 -200 -161.5 t-65 -514.5q0 -354 65 -517t200 -163z" />
<glyph unicode="&#xd9;" horiz-adv-x="1173" d="M1083 1341q-47 0 -68.5 -21.5t-31.5 -45.5q-10 -29 -10 -66l4 -809q0 -98 -27.5 -175t-79 -131t-121 -81.5t-155.5 -27.5q-66 0 -144.5 8t-147.5 48t-116 124t-47 235v760q0 25 1 55.5t-1 59.5t-11 48t-28 19q-16 0 -24 9.5t-8 20.5t8 20.5t24 9.5h279q14 0 23.5 -9.5 t9.5 -20.5t-8.5 -20.5t-24.5 -9.5q-18 0 -27.5 -19t-12.5 -48t-2 -59.5t1 -55.5v-760q0 -199 63.5 -292t192.5 -93q94 0 158.5 37t102.5 93.5t54.5 124t16.5 130.5v809q0 37 -11 66q-10 25 -31.5 46t-64.5 21q-12 0 -20 9.5t-8 21.5q0 29 28 29h264q12 0 21.5 -8.5 t9.5 -20.5t-9.5 -21.5t-21.5 -9.5zM410 1729q-16 29 -10 60.5t34 47.5q29 16 60.5 10t48.5 -35q37 -59 68.5 -97t56 -60.5t43 -33.5t28.5 -15q20 -12 21 -21q-4 -10 -25 -8q-12 2 -55 12t-94 28.5t-100.5 46.5t-73.5 62z" />
<glyph unicode="&#xda;" horiz-adv-x="1173" d="M1083 1341q-47 0 -68.5 -21.5t-31.5 -45.5q-10 -29 -10 -66l4 -809q0 -98 -27.5 -175t-79 -131t-121 -81.5t-155.5 -27.5q-66 0 -144.5 8t-147.5 48t-116 124t-47 235v760q0 25 1 55.5t-1 59.5t-11 48t-28 19q-16 0 -24 9.5t-8 20.5t8 20.5t24 9.5h279q14 0 23.5 -9.5 t9.5 -20.5t-8.5 -20.5t-24.5 -9.5q-18 0 -27.5 -19t-12.5 -48t-2 -59.5t1 -55.5v-760q0 -199 63.5 -292t192.5 -93q94 0 158.5 37t102.5 93.5t54.5 124t16.5 130.5v809q0 37 -11 66q-10 25 -31.5 46t-64.5 21q-12 0 -20 9.5t-8 21.5q0 29 28 29h264q12 0 21.5 -8.5 t9.5 -20.5t-9.5 -21.5t-21.5 -9.5zM748 1729q-2 0 -3 -3q-25 -35 -73.5 -62.5t-100 -46t-94.5 -28.5t-55 -12q-20 -2 -25 8q0 10 21 21q10 4 28.5 15t43 33.5t56.5 60.5t68 97q16 29 48 35t61 -10t35 -47.5t-10 -60.5z" />
<glyph unicode="&#xdb;" horiz-adv-x="1173" d="M1083 1341q-47 0 -68.5 -21.5t-31.5 -45.5q-10 -29 -10 -66l4 -809q0 -98 -27.5 -175t-79 -131t-121 -81.5t-155.5 -27.5q-66 0 -144.5 8t-147.5 48t-116 124t-47 235v760q0 25 1 55.5t-1 59.5t-11 48t-28 19q-16 0 -24 9.5t-8 20.5t8 20.5t24 9.5h279q14 0 23.5 -9.5 t9.5 -20.5t-8.5 -20.5t-24.5 -9.5q-18 0 -27.5 -19t-12.5 -48t-2 -59.5t1 -55.5v-760q0 -199 63.5 -292t192.5 -93q94 0 158.5 37t102.5 93.5t54.5 124t16.5 130.5v809q0 37 -11 66q-10 25 -31.5 46t-64.5 21q-12 0 -20 9.5t-8 21.5q0 29 28 29h264q12 0 21.5 -8.5 t9.5 -20.5t-9.5 -21.5t-21.5 -9.5zM850 1606q20 -12 18 -21q0 -12 -24 -8q-10 2 -39 11t-67 22.5t-80 32t-76 40.5q-35 -23 -77 -41t-80 -31.5t-66.5 -22.5t-36.5 -11q-25 -4 -25 8q-2 8 18 21q10 4 28.5 15t43.5 33.5t56.5 60.5t68.5 97q12 18 30.5 30.5t39.5 10.5 q23 2 41 -10t30 -31q37 -59 69 -97t56.5 -60.5t43 -33.5t28.5 -15z" />
<glyph unicode="&#xdc;" horiz-adv-x="1173" d="M1083 1341q-47 0 -68.5 -21.5t-31.5 -45.5q-10 -29 -10 -66l4 -809q0 -98 -27.5 -175t-79 -131t-121 -81.5t-155.5 -27.5q-66 0 -144.5 8t-147.5 48t-116 124t-47 235v760q0 25 1 55.5t-1 59.5t-11 48t-28 19q-16 0 -24 9.5t-8 20.5t8 20.5t24 9.5h279q14 0 23.5 -9.5 t9.5 -20.5t-8.5 -20.5t-24.5 -9.5q-18 0 -27.5 -19t-12.5 -48t-2 -59.5t1 -55.5v-760q0 -199 63.5 -292t192.5 -93q94 0 158.5 37t102.5 93.5t54.5 124t16.5 130.5v809q0 37 -11 66q-10 25 -31.5 46t-64.5 21q-12 0 -20 9.5t-8 21.5q0 29 28 29h264q12 0 21.5 -8.5 t9.5 -20.5t-9.5 -21.5t-21.5 -9.5zM829 1683q0 -45 -31.5 -75.5t-76.5 -30.5t-76 30.5t-31 75.5q0 47 31 78t76 31t76.5 -31t31.5 -78zM551 1683q0 -45 -31 -75.5t-76 -30.5t-76.5 30.5t-31.5 75.5q0 47 31.5 78t76.5 31t76 -31t31 -78z" />
<glyph unicode="&#xe0;" horiz-adv-x="831" d="M737 57q18 0 26.5 -9t7.5 -21.5t-9 -21.5t-25 -9h-205q-14 0 -23 9t-11 22v41q-39 -37 -91.5 -59.5t-138.5 -22.5q-45 0 -92 15t-85 47t-62.5 79t-24.5 111q0 74 34 127t90 88.5t128 52t145 16.5q31 0 55.5 -2t41.5 -6v145v94.5t-7.5 86.5t-28 62.5t-63.5 23.5t-85 -12.5 t-67.5 -36t-28.5 -56.5t32 -73q29 -33 34 -66t-6.5 -59.5t-37 -44t-56.5 -19.5q-63 -4 -98 31t-35 90q0 41 18.5 89t59.5 89t107.5 68.5t162.5 27.5q154 0 222.5 -71.5t68.5 -225.5l2 -454q0 -25 2 -50.5t7.5 -47t14.5 -35t21 -13.5zM342 35q53 0 92 24.5t64 49.5v364 q-12 8 -36 14.5t-61 6.5q-102 0 -152 -70t-50 -186q0 -104 37.5 -153.5t105.5 -49.5zM242 1235q-18 29 -11 60.5t35 47.5q29 16 59.5 10.5t47.5 -34.5q37 -59 68.5 -97t56 -60.5t43 -34t28.5 -15.5q23 -12 21 -20q-4 -10 -25 -9q-12 2 -54 12.5t-94 29t-100.5 46t-72.5 62.5 q-2 0 -2 2z" />
<glyph unicode="&#xe1;" horiz-adv-x="854" d="M780 70q18 0 26.5 -9.5t7.5 -21.5t-9 -21.5t-25 -9.5h-205q-14 0 -23 9.5t-11 21.5v41q-39 -37 -91.5 -59.5t-138.5 -22.5q-45 0 -92 15.5t-85 47t-62.5 78.5t-24.5 111q0 74 34 127t90 89t128 52.5t145 16.5q31 0 55.5 -2.5t41.5 -6.5v146v94t-7.5 86t-28 62.5 t-63.5 23.5t-85 -12.5t-67.5 -36t-28.5 -56t32 -73.5q29 -33 34 -65.5t-6.5 -59.5t-37 -44.5t-56.5 -19.5q-63 -4 -98 31t-35 90q0 41 18.5 89t59.5 89t107.5 69t162.5 28q154 0 222.5 -72t68.5 -225l2 -455q0 -25 2 -50.5t7.5 -47t14.5 -34.5t21 -13zM385 47q53 0 92 24.5 t64 49.5v364q-12 8 -36 14.5t-61 6.5q-102 0 -152 -69.5t-50 -186.5q0 -104 37.5 -153.5t105.5 -49.5zM618 1245q-25 -35 -73.5 -62.5t-100 -46t-93.5 -28.5t-54 -12q-25 -4 -25 8q-2 8 19 20q10 4 28.5 15.5t43 34t56.5 60.5t68 97q18 29 49 35t60 -10t35 -48t-10 -61z" />
<glyph unicode="&#xe2;" horiz-adv-x="831" d="M737 59q18 0 26.5 -9t7.5 -21.5t-9 -21.5t-25 -9h-205q-14 0 -23 9t-11 22v41q-39 -37 -91.5 -59.5t-138.5 -22.5q-45 0 -92 15t-85 47t-62.5 79t-24.5 111q0 74 34 127t90 89t128 52t145 16q31 0 55.5 -2t41.5 -6v146v94t-7.5 86t-28 62.5t-63.5 23.5t-85 -12.5 t-67.5 -36t-28.5 -56t32 -73.5q29 -33 34 -66t-6.5 -59.5t-37 -44t-56.5 -19.5q-63 -4 -98 31t-35 90q0 41 18.5 89t59.5 89t107.5 68.5t162.5 27.5q154 0 222.5 -71.5t68.5 -225.5l2 -454q0 -25 2 -50.5t7.5 -47t14.5 -35t21 -13.5zM342 37q53 0 92 24.5t64 49.5v364 q-12 8 -36 14.5t-61 6.5q-102 0 -152 -70t-50 -186q0 -104 37.5 -153.5t105.5 -49.5zM674 1124q20 -12 18 -20q0 -12 -24 -8q-10 2 -39 11t-67 22.5t-79 32t-75 40.5q-35 -23 -77 -41t-80 -31.5t-67.5 -22.5t-38.5 -11q-25 -4 -24 8q-2 8 18 20q10 4 28.5 15.5t43.5 34 t56.5 60.5t68.5 97q12 18 30.5 30.5t41.5 10.5q20 2 38.5 -10t30.5 -31q37 -59 69 -97t56.5 -60.5t43 -34t28.5 -15.5z" />
<glyph unicode="&#xe4;" horiz-adv-x="831" d="M748 57q18 0 26 -9t7 -21.5t-9 -21.5t-24 -9h-205q-14 0 -23.5 9t-11.5 22v41q-39 -37 -91 -59.5t-138 -22.5q-45 0 -92.5 15t-85.5 47t-62.5 79t-24.5 111q0 74 34 127t90.5 88.5t128 52t145.5 16.5q31 0 55.5 -2t40.5 -6v145v94.5t-7 86.5t-27.5 62.5t-63.5 23.5 t-85 -12.5t-68 -36t-29 -56.5t32 -73q29 -33 34 -66t-6.5 -59.5t-37 -44t-55.5 -19.5q-63 -4 -98.5 31t-35.5 90q0 41 18.5 89t59.5 89t107.5 68.5t163.5 27.5q154 0 222 -71.5t68 -225.5l2 -454q0 -25 2.5 -50.5t7.5 -47t14.5 -35t21.5 -13.5zM352 35q53 0 92 24.5t64 49.5 v364q-12 8 -35.5 14.5t-60.5 6.5q-102 0 -152.5 -70t-50.5 -186q0 -104 37.5 -153.5t105.5 -49.5zM258 1096q-45 0 -75.5 30.5t-30.5 77.5q0 45 30.5 76t75.5 31t77 -31t32 -76q0 -47 -32 -77.5t-77 -30.5zM537 1096q-45 0 -76 30.5t-31 77.5q0 45 31 76t76 31t76.5 -31 t31.5 -76q0 -47 -31.5 -77.5t-76.5 -30.5z" />
<glyph unicode="&#xe6;" horiz-adv-x="1228" d="M1169 309q14 0 15 -12v-2q0 -74 -24.5 -131.5t-65.5 -97t-96.5 -60t-118.5 -20.5q-119 0 -196 31.5t-120 97.5q-2 -2 -2 -4q-47 -49 -115.5 -88t-177.5 -39q-45 0 -92 15t-85 47t-62.5 79t-24.5 111q0 74 34 127t90 88.5t128 52t145 16.5q25 0 47.5 -2t38.5 -4v143v94.5 t-7 86.5t-27.5 62.5t-63.5 23.5t-85 -12.5t-67.5 -36t-28.5 -56.5t32 -74q29 -35 34 -67.5t-6.5 -59t-37 -43t-56.5 -18.5q-63 -4 -98 31t-35 90q0 41 18.5 89t59.5 89t107.5 68.5t162.5 27.5q176 0 242 -96q49 47 112.5 72.5t135.5 25.5q152 0 232.5 -67.5t80.5 -169.5 q0 -80 -28.5 -131t-74 -81t-101.5 -43t-112.5 -16.5t-105.5 -1.5t-80 2q0 -78 7.5 -150.5t29 -127.5t58 -88t96.5 -33q80 0 132 24.5t83.5 61.5t45 81t13.5 81v2q0 12 12 12h2zM342 33q33 0 64.5 12t58.5 29.5t47 36t33 32.5q-33 59 -46.5 142.5t-13.5 191.5q-29 14 -84 15 q-102 0 -152 -70t-50 -186q0 -104 37.5 -153.5t105.5 -49.5zM879 930q-51 0 -85 -29t-54.5 -74t-31 -98t-14.5 -103.5t-4 -89v-53.5q25 0 79 3t109.5 24.5t98.5 69t43 137.5q0 92 -41 152.5t-100 60.5z" />
<glyph unicode="&#xe7;" horiz-adv-x="786" d="M709 328q16 0 16 -17q0 -47 -21.5 -102t-61.5 -102.5t-98.5 -80t-133.5 -34.5l-72 -72q102 0 153.5 -51t51.5 -123q0 -90 -62.5 -138t-146.5 -48q-55 0 -101.5 35.5t-46.5 85.5q0 37 17.5 61.5t52.5 24.5t45 -32t-18 -59q-25 -20 -27 -37.5t9 -31t30.5 -20.5t38.5 -7 q57 0 77.5 44t20.5 122q0 74 -50 99.5t-116 -11.5q-12 -4 -22.5 9.5t10.5 35.5l115 113q-193 10 -279 136t-86 355q0 100 32 185.5t85 144.5t123.5 93t150.5 34q84 0 145.5 -22.5t102.5 -59.5t61.5 -84t20.5 -96q0 -55 -25.5 -93t-89.5 -38q-20 0 -43.5 9t-39 30.5 t-17.5 56.5t22 88q12 29 16.5 60.5t-8 59.5t-47 45t-98.5 17q-74 0 -111.5 -44t-53 -110.5t-16.5 -145t-1 -146.5q0 -61 1 -134t16.5 -137.5t53.5 -107.5t111 -43q78 0 134.5 26.5t92 66.5t53 87t17.5 86q1 17 17 17z" />
<glyph unicode="&#xe9;" horiz-adv-x="788" d="M688 299q14 0 14 -14v-2q0 -72 -24.5 -128.5t-65.5 -94t-96 -58t-119 -20.5q-106 -2 -180 34.5t-120 103t-68.5 156t-24.5 193.5q-2 100 26.5 187t82 150.5t126 99.5t156.5 36q154 0 234 -66.5t80 -168.5q0 -80 -29 -131.5t-74 -82t-101 -43t-111.5 -15.5t-104.5 -1 t-80 2q0 -59 7 -127.5t28.5 -128t58.5 -98.5t96 -39q80 0 132.5 23.5t83 59.5t44 78t13.5 81q0 14 14 14h2zM395 920q-51 0 -83.5 -29t-53 -74t-31 -99t-14.5 -104.5t-4 -89.5v-53q25 0 74 3t100 25.5t89 69.5t38 138q0 90 -28 151.5t-87 61.5zM240 1247q-16 29 -9 60.5 t35 48.5q29 16 59.5 10t47.5 -35q37 -59 68.5 -97t56 -60.5t43 -34t28.5 -15.5q23 -12 21 -20q-4 -10 -25 -8q-12 2 -54 12t-94 28.5t-100.5 46t-72.5 62.5q-2 0 -2 1t-2 1z" />
<glyph unicode="&#xea;" horiz-adv-x="788" d="M713 315q14 0 14 -14v-2q0 -72 -24.5 -128t-65.5 -94t-96.5 -58.5t-118.5 -20.5q-106 -2 -180 35t-120 103.5t-68.5 155.5t-24.5 193q-2 100 26.5 187.5t81.5 151t126 99t157 35.5q154 0 233.5 -66.5t79.5 -168.5q0 -80 -28.5 -131t-73.5 -82t-101.5 -43t-112 -15 t-104.5 -1t-80 2q0 -59 7.5 -128t29 -128.5t58.5 -98.5t96 -39q80 0 132 23.5t83 59.5t44 78t13 81q0 14 15 14h2zM420 936q-49 0 -83 -28.5t-54.5 -74t-30.5 -99.5t-14.5 -104t-4.5 -89v-54q25 0 75 3.5t100.5 26t89.5 69.5t39 137t-29 151.5t-88 61.5zM698 1124 q20 -12 19 -20q0 -12 -25 -8q-10 2 -38.5 11t-66.5 22.5t-79 32t-76 40.5q-35 -23 -77 -41t-79.5 -31.5t-67.5 -22.5t-38 -11q-25 -4 -25 8q-2 8 19 20q10 4 28.5 15.5t43 34t56.5 60.5t68 97q12 18 31 30.5t41 10.5q20 2 38.5 -10t31.5 -31q37 -59 68.5 -97t56 -60.5 t43 -34t28.5 -15.5z" />
<glyph unicode="&#xeb;" horiz-adv-x="788" d="M717 295q14 0 14 -14v-2q0 -72 -24.5 -128.5t-65.5 -94.5t-96.5 -58.5t-118.5 -20.5q-106 -2 -180 35t-120 103.5t-68.5 155.5t-24.5 194q-2 100 26.5 187t82 150.5t126 99.5t156.5 36q154 0 233.5 -66.5t79.5 -169.5q0 -80 -28.5 -131t-73.5 -81.5t-101.5 -43 t-111.5 -15.5t-104.5 -1t-79.5 2q0 -59 7 -127.5t28.5 -128t58.5 -98.5t96 -39q80 0 132 23.5t83 59.5t44 78t13 81q0 14 15 14h2zM424 915q-49 0 -83 -28.5t-54.5 -73.5t-30.5 -99.5t-14 -104.5t-4 -89v-53q25 0 74.5 3t100 25.5t89.5 69.5t39 137t-29 151.5t-88 61.5z M276 1067q-45 0 -75.5 30.5t-30.5 76.5q0 47 30.5 77.5t75.5 30.5t77 -30.5t32 -77.5q0 -45 -32 -76t-77 -31zM555 1067q-45 0 -75.5 30.5t-30.5 76.5q0 47 30.5 77.5t75.5 30.5t77 -30.5t32 -77.5q0 -45 -32 -76t-77 -31z" />
<glyph unicode="&#xec;" horiz-adv-x="468" d="M373 59q16 0 24.5 -9t8.5 -20.5t-9.5 -20.5t-23.5 -9h-279q-16 0 -24.5 9t-8.5 20.5t8.5 20.5t24.5 9q25 0 35 39t12 82v582q0 12 -7 21.5t-17 17.5t-23 16q-16 8 -24 19q-6 10 -4 20t28 23q59 29 114.5 49t67.5 24l28.5 9.5t16 1.5t6.5 -12.5t1 -35.5v-743q2 -41 12 -77 t33 -36zM66 1249q-16 29 -10.5 60.5t34.5 48.5q29 16 60.5 10t48.5 -35q37 -59 68.5 -97t56 -60.5t43 -34t28.5 -15.5q20 -12 19 -20q0 -12 -25 -8q-12 2 -54 12t-93.5 28.5t-100.5 46t-73 62.5z" />
<glyph unicode="&#xed;" horiz-adv-x="468" d="M379 57q16 0 24.5 -9t8.5 -20.5t-9.5 -20.5t-23.5 -9h-279q-16 0 -24 9t-8 20.5t8 20.5t24 9q25 0 35 39t12 82v582q0 12 -7 21.5t-17 17.5t-23 16q-16 8 -24 19q-6 10 -4 20t28 23q59 29 114.5 49t68.5 24l28.5 9.5t15.5 1t6 -12.5t1 -35v-743q2 -41 12 -77t33 -36z M410 1247q-2 0 -2 -1t-2 -1q-25 -35 -73 -62.5t-100.5 -46t-94.5 -28.5t-54 -12q-20 -2 -25 8q-2 8 21 20q10 4 28.5 15.5t43 34t56.5 60.5t68 97q16 29 47 35t60 -10t36 -48t-9 -61z" />
<glyph unicode="&#xee;" horiz-adv-x="598" d="M422 59q16 0 24.5 -9t8.5 -20.5t-9.5 -20.5t-23.5 -9h-279q-16 0 -24 9t-8 20.5t8 20.5t24 9q25 0 35 39t10 82h2v582q0 12 -7 21.5t-17 17.5t-23 16q-16 8 -24 19q-6 10 -4 20t28 23q59 29 113.5 49t69.5 24l28.5 9.5t15.5 1.5t6 -12.5t1 -35.5v-743q0 -41 11 -77 t34 -36zM549 1126q20 -10 20 -20q-4 -10 -24 -8q-10 2 -39 11t-67 22.5t-80 32t-76 40.5q-35 -23 -77 -41t-80 -31.5t-67.5 -22.5t-38.5 -11q-20 -2 -24 8q-2 8 20 20q10 4 28.5 15.5t43.5 34t56.5 60.5t68.5 97q10 18 29.5 30.5t40.5 10.5q20 2 39.5 -10t29.5 -31 q37 -59 69 -97t56.5 -60.5t43 -34t28.5 -15.5z" />
<glyph unicode="&#xef;" horiz-adv-x="528" d="M389 57q18 0 25.5 -9t7.5 -20.5t-9.5 -20.5t-23.5 -9h-276q-16 0 -24.5 9t-8.5 20.5t7 20.5t26 9q23 0 33 39t12 82v582q0 12 -7.5 21.5t-15.5 17.5q-10 8 -22 16q-18 8 -27 19q-6 10 -3 20t28 23q59 29 114.5 49t67.5 24l28.5 9.5t15.5 1t6 -12.5t1 -35v-743 q2 -41 12 -77t33 -36zM389 1087q-45 0 -75.5 31t-30.5 76q0 47 30.5 78t75.5 31t77 -31t32 -78q0 -45 -32 -76t-77 -31zM113 1087q-45 0 -77 31t-32 76q0 47 32 78t77 31t75.5 -31t30.5 -78q0 -45 -30.5 -76t-75.5 -31z" />
<glyph unicode="&#xf1;" horiz-adv-x="937" d="M379 57q16 0 24.5 -9t8.5 -20.5t-9.5 -20.5t-23.5 -9h-279q-16 0 -24 9t-8 20.5t8 20.5t24 9q12 0 19.5 12.5t12.5 32t6 44t1 47.5v559q0 12 -6 22t-14 19q-8 8 -19 14q-18 8 -26 18q-6 10 -3 20.5t27 22.5q31 14 60.5 27.5t55.5 23t44 15.5t25 8q35 12 45 12t10 -47v-92 q12 18 33.5 44t55.5 50.5t81 42t106 17.5q61 0 97.5 -19.5t55.5 -50.5t24.5 -68.5t5.5 -74.5v-563q0 -23 1 -47.5t5 -44t12 -32t21 -12.5q16 0 24 -9t8 -20.5t-9 -20.5t-23 -9h-263q-16 0 -24 9t-8 20.5t8 20.5t24 9q12 0 20.5 12.5t13.5 32t6 44t1 47.5v563q0 25 -2 47 t-10 39.5t-27.5 29t-52.5 11.5q-39 0 -69.5 -13.5t-53 -32t-38 -39t-23.5 -36.5v-569q0 -23 1 -47.5t6 -44t13.5 -32t20.5 -12.5zM692 1221q6 -2 7 -7.5t1 -7.5q0 -29 -8 -60.5t-25.5 -58t-42 -43t-57.5 -16.5q-27 0 -55.5 14.5t-57 31t-56 30.5t-52.5 14q-45 0 -62.5 -24.5 t-39.5 -63.5q-4 -4 -8.5 -11t-14.5 -3q-4 2 -6 7t-2 7q0 29 8 60.5t25.5 57.5t42 43t59.5 17q27 0 57.5 -14t59.5 -30.5t55.5 -31t48.5 -14.5q45 0 62.5 25.5t40.5 62.5q4 4 8 11.5t12 3.5z" />
<glyph unicode="&#xf2;" horiz-adv-x="811" d="M51 475q0 160 40 256t95.5 146.5t115.5 65.5t101 15t101.5 -15t116 -65.5t95.5 -144.5t40 -254v-4q0 -158 -40 -252t-95.5 -144t-116 -65.5t-101.5 -15.5t-101 15.5t-115.5 65.5t-95.5 144t-40 252zM250 479q0 -84 3 -166t18.5 -146.5t46 -103t85.5 -38.5t86 38.5 t46.5 103t18.5 144.5t3 164v4q0 84 -3 165t-18.5 145.5t-46 103.5t-86.5 39q-55 0 -85.5 -39t-46 -103.5t-18.5 -145.5t-3 -165zM236 1247q-18 29 -11.5 60.5t35.5 48.5q29 16 59.5 10t49.5 -35q37 -59 67.5 -97t55 -60.5t43 -34t28.5 -15.5q23 -12 21 -20q0 -12 -25 -8 q-12 2 -54 12t-93.5 28.5t-100.5 46t-73 62.5q-2 0 -2 2z" />
<glyph unicode="&#xf3;" horiz-adv-x="811" d="M47 475q0 160 40 256t95.5 146.5t115.5 65.5t101 15t101.5 -15t116 -65.5t95.5 -144.5t40 -254v-4q0 -158 -40 -252t-95.5 -144t-116 -65.5t-101.5 -15.5t-101 15.5t-115.5 65.5t-95.5 144t-40 252zM246 479q0 -84 3 -166t18.5 -146.5t46 -103t85.5 -38.5t86 38.5 t46.5 103t18.5 144.5t3 164v4q0 84 -3 165t-18.5 145.5t-46 103.5t-86.5 39q-55 0 -85.5 -39t-46 -103.5t-18.5 -145.5t-3 -165zM618 1245q-25 -35 -73.5 -62.5t-100 -46t-93.5 -28.5t-54 -12q-25 -4 -25 8q-2 8 19 20q10 4 28.5 15.5t43 34t56.5 60.5t68 97q18 29 49 35 t60 -10t35 -48t-10 -61z" />
<glyph unicode="&#xf4;" horiz-adv-x="811" d="M47 449q0 160 40 256t95.5 146t115.5 65.5t101 15.5t101.5 -15.5t116 -65.5t95.5 -144.5t40 -253.5v-4q0 -158 -40 -252.5t-95.5 -144.5t-116 -65.5t-101.5 -15.5t-101 15.5t-115.5 65.5t-95.5 144.5t-40 252.5zM246 453q0 -84 3 -166t18.5 -146.5t46 -103.5t85.5 -39 t86 39t46.5 103.5t18.5 144.5t3 164v4q0 84 -3 164.5t-18.5 145t-46 103.5t-86.5 39q-55 0 -85.5 -39t-46 -103.5t-18.5 -145t-3 -164.5zM666 1098q20 -10 20 -21q-4 -10 -24 -8q-10 2 -39 11.5t-67 22.5t-80 31.5t-77 41.5q-35 -23 -76.5 -41.5t-79.5 -31.5t-68 -22.5 t-38 -11.5q-20 -2 -24 8q0 10 20 21q10 4 28.5 15t43 33.5t56.5 60.5t69 98q10 18 29.5 30.5t39.5 10.5q20 2 40 -10.5t30 -30.5q37 -59 68.5 -97.5t56 -61t43.5 -33.5t29 -15z" />
<glyph unicode="&#xf6;" horiz-adv-x="811" d="M39 475q0 160 40 256t95 146.5t115.5 65.5t101.5 15t101.5 -15t116 -65.5t95 -144.5t39.5 -254v-4q0 -158 -39.5 -252t-95 -144t-116 -65.5t-101.5 -15.5t-101.5 15.5t-115.5 65.5t-95 144t-40 252zM238 479q0 -84 3 -166t18 -146.5t46 -103t86 -38.5t86 38.5t46.5 103 t18.5 144.5t3 164v4q0 84 -3 165t-18.5 145.5t-46.5 103.5t-86 39t-86 -39t-46 -103.5t-18 -145.5t-3 -165zM637 1204q0 -47 -31 -77.5t-76 -30.5t-76.5 30.5t-31.5 77.5q0 45 31.5 76t76.5 31t76 -31t31 -76zM360 1204q0 -47 -31.5 -77.5t-76.5 -30.5t-76 30.5t-31 77.5 q0 45 31 76t76 31t76.5 -31t31.5 -76z" />
<glyph unicode="&#xf9;" horiz-adv-x="872" d="M365 84q43 0 74.5 14.5t55 36t38 43t22.5 37.5v547q0 12 -6 22.5t-14 18.5t-19 14q-18 8 -27 19q-6 10 -3 20t28 23q61 29 115.5 52t68.5 27q35 12 45.5 6t10.5 -40v-703q0 -43 6 -76q4 -29 11 -52t22 -23q16 0 24 -9.5t8 -21.5t-9 -21.5t-23 -9.5h-203q-14 0 -23.5 9.5 t-11.5 21.5v123q-8 -14 -29.5 -42t-56.5 -54.5t-84 -47t-113 -20.5q-61 0 -97 19.5t-55.5 50t-24.5 69.5t-5 76v549q0 12 -6 22.5t-14 18.5t-19 14q-18 8 -26 19q-6 10 -3 20t27 23q31 14 60.5 27.5t55 24.5t44 18t24.5 9q29 12 34 2t5 -36v-711q0 -25 2 -48.5t10.5 -41 t27 -28.5t53.5 -11zM258 1247q-18 29 -11 60.5t36 48.5q29 16 59.5 10t46.5 -35q37 -59 68.5 -97t56.5 -60.5t43 -34t29 -15.5q23 -12 20 -20q-4 -10 -24 -8q-12 2 -54.5 12t-94.5 28.5t-100 46t-73 62.5q-2 0 -2 2z" />
<glyph unicode="&#xfa;" horiz-adv-x="872" d="M358 84q43 0 75 14.5t55.5 36t38 43t22.5 37.5v547q0 12 -6 22.5t-15 18.5q-8 8 -18 14q-18 8 -27 19q-6 10 -3 20t28 23q61 29 115.5 52t68.5 27q35 12 45.5 6t10.5 -40v-703q0 -43 6 -76q4 -29 11 -52t21 -23q16 0 24.5 -9.5t8.5 -21.5t-9 -21.5t-24 -9.5h-202 q-14 0 -23.5 9.5t-11.5 21.5v123q-8 -14 -29.5 -42t-56.5 -54.5t-84 -47t-113 -20.5q-61 0 -97 19.5t-55.5 50t-24.5 69.5t-5 76v549q0 12 -6 22.5t-15 18.5q-8 8 -18 14q-18 8 -27 19q-6 10 -3 20t28 23q31 14 60.5 27.5t55 24.5t44 18t24.5 9q29 12 34 2t5 -36v-711 q0 -25 2 -48.5t10.5 -41t26.5 -28.5t53 -11zM586 1245q-25 -35 -74 -62.5t-100.5 -46t-93.5 -28.5t-54 -12q-25 -4 -24 8q-2 8 18 20q10 4 28.5 15.5t43 34t56.5 60.5t69 97q18 29 49 35t59 -10q29 -16 35 -48t-10 -61z" />
<glyph unicode="&#xfb;" horiz-adv-x="872" d="M348 84q43 0 75 14.5t55.5 36t37.5 43t23 37.5v547q0 12 -6.5 22.5t-14.5 18.5t-18 14q-18 8 -27 19q-6 10 -3 20t28 23q61 29 115.5 52t68.5 27q35 12 45 6t10 -40v-703q0 -43 6 -76q4 -29 11.5 -52t21.5 -23q16 0 24.5 -9.5t8.5 -21.5t-9 -21.5t-24 -9.5h-203 q-14 0 -23 9.5t-11 21.5v123q-8 -14 -30 -42t-56.5 -54.5t-84 -47t-112.5 -20.5q-61 0 -97 19.5t-55.5 50t-24.5 69.5t-5 76v549q0 12 -6.5 22.5t-14.5 18.5t-18 14q-18 8 -27 19q-6 10 -3 20t28 23q31 14 60.5 27.5t55 24.5t44 18t24.5 9q29 12 34 2t5 -36v-711 q0 -25 2 -48.5t10 -41t26.5 -28.5t53.5 -11zM674 1124q20 -12 18 -20q0 -12 -24 -8q-10 2 -39 11t-67 22.5t-79 32t-75 40.5q-35 -23 -77 -41t-80 -31.5t-67.5 -22.5t-38.5 -11q-25 -4 -24 8q-2 8 18 20q10 4 28.5 15.5t43.5 34t56.5 60.5t68.5 97q12 18 30.5 30.5 t41.5 10.5q20 2 38.5 -10t30.5 -31q37 -59 69 -97t56.5 -60.5t43 -34t28.5 -15.5z" />
<glyph unicode="&#xfc;" horiz-adv-x="872" d="M776 61q16 0 24.5 -9t8.5 -21.5t-9 -21.5t-24 -9h-203q-14 0 -23 9t-11 22v121q-10 -16 -32 -44t-57.5 -53.5t-84 -45t-109.5 -19.5t-97 19.5t-55.5 50t-24.5 69.5t-5 76v549q0 12 -6.5 22t-14.5 19q-8 8 -18 14q-18 8 -27 18q-6 10 -3 20.5t28 22.5q31 14 60.5 27.5 t55 25t44 18.5t24.5 9q29 12 34 2t5 -37v-710q0 -25 2 -48.5t10 -41t26.5 -28.5t53.5 -11q43 0 75 14t55.5 35.5t37.5 43t23 38.5v547q0 12 -6.5 22t-14.5 19q-8 8 -18 14q-18 8 -27 18q-6 10 -3 20.5t28 22.5q61 29 115.5 52.5t68.5 27.5q35 12 45 6t10 -41v-702 q0 -43 6 -76q4 -29 11.5 -52.5t21.5 -23.5zM268 1087q-45 0 -76.5 31t-31.5 78q0 45 31.5 76t76.5 31t76 -31t31 -76q0 -47 -31 -78t-76 -31zM545 1087q-45 0 -76 31t-31 78q0 45 31 76t76 31t76.5 -31t31.5 -76q0 -47 -31.5 -78t-76.5 -31z" />
<glyph unicode="&#x2000;" horiz-adv-x="926" />
<glyph unicode="&#x2001;" horiz-adv-x="1853" />
<glyph unicode="&#x2002;" horiz-adv-x="926" />
<glyph unicode="&#x2003;" horiz-adv-x="1853" />
<glyph unicode="&#x2004;" horiz-adv-x="617" />
<glyph unicode="&#x2005;" horiz-adv-x="463" />
<glyph unicode="&#x2006;" horiz-adv-x="308" />
<glyph unicode="&#x2007;" horiz-adv-x="308" />
<glyph unicode="&#x2008;" horiz-adv-x="231" />
<glyph unicode="&#x2009;" horiz-adv-x="370" />
<glyph unicode="&#x200a;" horiz-adv-x="102" />
<glyph unicode="&#x2019;" horiz-adv-x="186" d="M88 1403q39 0 62.5 -34t23.5 -81q0 -49 -18.5 -85t-42 -60.5t-47 -40t-31.5 -21.5q-14 -10 -27 -2q-4 4 -5 11.5t7 11.5q8 6 35 22.5t46.5 38t17 45t-47.5 43.5q-31 14 -45 40t-11 50.5t23.5 43t59.5 18.5z" />
<glyph unicode="&#x201c;" horiz-adv-x="485" d="M358 1251q-47 -20 -48 -43.5t18.5 -45t45 -38t36.5 -22.5q8 -4 6 -11.5t-4 -11.5q-12 -8 -27 2q-10 6 -32.5 21.5t-46 40t-42 60.5t-18.5 85q0 47 23.5 81t62.5 34t59.5 -18.5t23.5 -43t-11.5 -50.5t-45.5 -40zM117 1251q-47 -20 -48 -43.5t18 -45t45 -38t36 -22.5 q8 -4 7 -11.5t-5 -11.5q-12 -8 -27 2q-10 6 -32.5 21.5t-46 40t-42 60.5t-18.5 85q0 47 23.5 81t64.5 34q37 0 57.5 -18.5t23.5 -43t-11 -50.5t-45 -40z" />
<glyph unicode="&#x201d;" horiz-adv-x="450" d="M88 1403q39 0 62.5 -34t23.5 -81q0 -49 -18.5 -85t-42 -60.5t-47 -40t-31.5 -21.5q-14 -10 -27 -2q-4 4 -5 11.5t7 11.5q8 6 35 22.5t46.5 38t17 45t-47.5 43.5q-31 14 -45 40t-11 50.5t23.5 43t59.5 18.5zM328 1403q41 0 64.5 -34t23.5 -81q0 -49 -18.5 -85t-42 -60.5 t-47 -40t-34.5 -21.5q-16 -10 -24 -2q-4 4 -5 11.5t7 11.5q8 6 34.5 22.5t45 38t16.5 45t-47 43.5q-31 14 -44 40t-10 50.5t23.5 43t57.5 18.5z" />
<glyph unicode="&#x202f;" horiz-adv-x="370" />
<glyph unicode="&#x205f;" horiz-adv-x="463" />
<glyph unicode="&#x20ac;" horiz-adv-x="1069" d="M950 457q6 0 12.5 -6.5t6.5 -24.5q0 -59 -18.5 -133t-61.5 -139.5t-115 -110.5t-180 -45q-96 0 -174 38t-136.5 107.5t-95 169t-51.5 222.5h-102q-12 0 -21.5 8t-9.5 20t9.5 21.5t21.5 9.5h98q-2 23 -3 43t-1 43q0 14 1 26.5t1 24.5h-96q-12 0 -21.5 8.5t-9.5 20.5 t9.5 21.5t21.5 9.5h98q8 131 41 241.5t89 190.5t137 125t188 45q111 0 188.5 -32t124.5 -83t68.5 -112.5t21.5 -118.5q0 -47 -9 -85t-27.5 -63t-47 -33t-69.5 2q-25 6 -46.5 25.5t-29.5 47.5t2 62.5t47 71.5q51 51 56 102.5t-27.5 92.5t-97 67.5t-154.5 26.5q-80 0 -127 -52 t-71.5 -134t-33 -184.5t-10.5 -202.5h283q12 0 21 -9.5t9 -21.5t-9 -20.5t-21 -8.5h-285v-137h285q12 0 21 -9.5t9 -21.5t-9 -20t-21 -8h-285q0 -102 6 -190.5t32 -154t76 -102.5t136 -37q106 0 173 45t101.5 106.5t47 125t12.5 98.5q0 12 6 21.5t16 9.5z" />
<glyph unicode="&#x25fc;" horiz-adv-x="952" d="M0 952h952v-952h-952v952z" />
<glyph unicode="&#xfb02;" horiz-adv-x="931" d="M844 57q18 0 25.5 -9t7.5 -20.5t-9.5 -20.5t-23.5 -9h-277q-16 0 -24 9t-8 20.5t7 20.5t25 9q16 0 24.5 20.5t11.5 49.5t3 61.5v55.5v24h-2v621h-211v-658v-55.5t4 -56t11.5 -44t23.5 -18.5t24.5 -9t8.5 -20.5t-9.5 -20.5t-23.5 -9h-278q-16 0 -24.5 9t-8.5 20.5t8 20.5 t25 9q16 0 24 18.5t12.5 44t4.5 56.5v55v658h-127q-12 0 -21.5 8t-9.5 23q0 12 9 20t22 8h53q74 4 74 72q0 121 19 205t56 136t89.5 75.5t119.5 23.5q49 0 81 -15t54 -40q8 6 17 8q41 16 73.5 27.5t43.5 15.5q35 12 45 12t10 -47v-1124h2v-53v-55.5t3 -61.5t11.5 -49.5 t24.5 -20.5zM604 1264q0 12 -3 38.5t-16.5 54t-38 48t-67.5 20.5q-31 0 -48 -15t-25.5 -36.5t-10.5 -45t-2 -38.5v-270q4 -41 21.5 -55.5t50.5 -16.5h139v316z" />
<glyph unicode="&#xfb04;" horiz-adv-x="1292" d="M1210 57q18 0 25.5 -9t7.5 -20.5t-9 -20.5t-24 -9h-276q-16 0 -24.5 9t-8.5 20.5t7 20.5t26 9q16 0 24.5 20.5t11.5 49.5t3 60.5v54.5v26h-2v621h-211v-658v-55.5t3 -56t11 -44t25 -18.5q16 0 24 -9t8 -20.5t-9 -20.5t-23 -9h-279q-16 0 -24.5 9t-8.5 20.5t8.5 20.5 t24.5 9t24.5 18.5t12.5 44t4 56.5v55v658h-201v-658v-55.5t4.5 -56t11.5 -44t23 -18.5t24.5 -9t8.5 -20.5t-9 -20.5t-24 -9h-278q-16 0 -24.5 9t-8.5 20.5t8 20.5t25 9q16 0 24.5 18.5t12.5 44t4 56.5v55v658h-127q-12 0 -21.5 8t-9.5 23q0 12 9.5 20t21.5 8h53q74 4 74 72 q0 121 19.5 205t56 136t89 75.5t119.5 23.5q78 0 122 -30.5t67 -71.5q35 53 89 77.5t122 24.5q47 0 79.5 -15t55.5 -40q4 4 16 8q41 16 73 27.5t42 15.5q37 12 47 12t10 -47v-1124h2v-55v-54.5t3.5 -60.5t11.5 -49.5t24 -20.5zM487 948q74 4 74 72q0 125 21 207q2 23 2 56.5 t-12.5 65t-41 54t-84.5 22.5q-31 0 -48 -15t-25 -37.5t-10.5 -46t-2.5 -38.5v-268q4 -41 21.5 -55.5t50.5 -16.5h55zM971 1264q0 12 -3 38.5t-16.5 54t-38 48t-67.5 20.5q-31 0 -48.5 -15t-25.5 -37.5t-10 -46t-2 -38.5v-268q2 -41 20.5 -55.5t50.5 -16.5h140v316z" />
</font>
</defs>
</svg>
