<?xml version="1.0" encoding="utf-8"?>
<!-- Generator: Adobe Illustrator 26.0.1, SVG Export Plug-In . SVG Version: 6.00 Build 0)  -->
<svg version="1.1" id="Layer_1" xmlns="http://www.w3.org/2000/svg" xmlns:xlink="http://www.w3.org/1999/xlink" x="0px" y="0px"
	 viewBox="0 0 512 179" style="enable-background:new 0 0 512 179;" xml:space="preserve">
<style type="text/css">
	.st0{clip-path:url(#SVGID_00000141450019781587323270000010765337159611802045_);}
	.st1{fill:#304430;}
	.st2{fill:#EAC38C;}
	.st3{fill:#CEA97C;}
	.st4{fill:#BF0404;}
	.st5{fill:#D30707;}
	.st6{fill:#F2F2F2;}
	.st7{fill:#FFFFFF;}
	.st8{fill:#703800;}
	.st9{fill:#592A00;}
	.st10{fill:#874000;}
	.st11{fill:#BF7A3F;}
	.st12{fill:#3F3131;}
	.st13{fill:#D38448;}
	.st14{fill:#A36638;}
	.st15{fill:#A86939;}
	.st16{fill:#D7D5D6;}
	.st17{fill:#6F793C;stroke:#6F793C;stroke-miterlimit:10;}
	.st18{fill:#A8AE85;stroke:#A8AE85;stroke-miterlimit:10;}
	.st19{fill:#D9CEAD;}
	.st20{fill:#DFD7CD;}
	.st21{fill:#F2D1B3;}
	.st22{fill:#FAF0C3;}
	.st23{fill:#EFE8DF;}
	.st24{fill:#A50505;}
</style>
<g>
	<defs>
		<rect id="SVGID_1_" width="512" height="179"/>
	</defs>
	<clipPath id="SVGID_00000061443761291600924160000003451311053852024966_">
		<use xlink:href="#SVGID_1_"  style="overflow:visible;"/>
	</clipPath>
	<g style="clip-path:url(#SVGID_00000061443761291600924160000003451311053852024966_);">
		<path class="st1" d="M380.6,54.7c0.3,1.2,0.1,2.5-0.4,3.7c-0.5,1-1.3,1.9-2.4,2.4c-1.1,0.5-2.3,0.8-3.5,0.8
			c-1.4,0-2.8-0.5-4.1-1.2c-1.6-1-2.9-1.2-3.7-0.5c-0.9,0.7-1.4,1.8-1.6,2.9c-0.2,1.3-0.3,2.6-0.3,3.9c0.1,1.4,0.1,2.3,0.1,2.6
			c6.5,6.4,9.7,14.7,9.7,25c0,5.1-1,10.1-2.9,14.8c-2.1,4.9-5.4,9.2-9.6,12.6c3.3,1.8,6,4.4,7.9,7.6c2.3,3.7,3.8,7.8,4.4,12
			c0.6,4.7,0.3,9.4-0.9,14c-1.5,5.2-4.3,9.8-8.2,13.5c-2.9,2.8-6.3,5.1-10,6.7c-7.6,3.3-16,4.4-24.1,3.1c-3.8-0.5-7.5-1.9-10.8-3.8
			c-3.1-1.9-5.8-4.5-7.7-7.7c-3-5.3-3.8-11.5-2.2-17.4c0.6-2.1,1.5-4.1,2.6-6c2.9-4.7,7.2-8.4,12.3-10.4c2.2-1,4.5-1.6,6.9-1.7
			c2.1-0.1,4.1,0.2,6,1c1.7,0.6,3.2,1.7,4.3,3.1c1.1,1.3,1.7,3,1.7,4.7c0,1.5-0.3,2.9-0.9,4.3c-0.6,1.4-1.7,2.7-3,3.6
			c-1.5,1-3.2,1.5-5,1.5c-2.4-0.1-4.7-0.8-6.7-2c-1.5-0.8-3.1-1.3-4.7-1.7c-1.8-0.4-3.6-0.4-5.3-0.1c-1.7,0.3-3.2,1.3-4.3,2.6
			c-1.2,1.4-1.7,3.6-1.7,6.6c0,4.4,1.3,7.9,3.8,10.5c2.7,2.6,6.2,4.2,10,4.4c4.1,0.4,8.6-0.4,13.6-2.4c5.5-2.4,10.5-5.9,14.7-10.2
			c2.6-2.6,4.8-5.7,6.4-9.1c1.5-3.2,2.5-6.6,3-10c0.4-3,0.3-6.1-0.5-9.1c-0.6-2.4-2-4.6-4.1-6c-4.9,3.2-10.7,5-16.6,5.1
			c-3.7-0.1-7.3-0.8-10.8-2.1c-3.8-1.4-7.4-3.6-10.4-6.4c-3.3-3-5.9-6.7-7.7-10.7c-2.1-4.7-3-9.9-2.6-15c-0.3-5.2,0.6-10.3,2.8-15
			c1.9-4.1,4.5-7.7,7.8-10.7c3-2.8,6.5-4.9,10.3-6.4c3.4-1.3,7-2,10.7-2.1c3.2,0,6.4,0.6,9.4,1.7c3.3,1.1,6.5,2.8,9.3,5
			c0.4-3.6,1.3-7.2,2.8-10.6c1.3-2.6,3.4-4.6,6-5.8c0.9-0.4,1.9-0.6,2.9-0.7c1.1-0.1,2.1,0,3.2,0.3c1,0.4,2,0.9,2.8,1.7
			C380,52.3,380.5,53.5,380.6,54.7z M342.1,125.2c1.4,0.1,2.8-0.2,4.1-0.8c1.3-0.6,2.4-1.5,3.3-2.6c1.9-2.4,3.3-5.3,4-8.3
			c0.9-3.4,1.5-6.9,1.7-10.4c0.2-3.7,0.4-6.9,0.4-9.7c0-2.2-0.1-5.1-0.3-8.7c-0.2-3.5-0.7-7-1.5-10.5c-0.7-3.2-2.1-6.1-4-8.7
			c-0.9-1.2-2.1-2.1-3.4-2.8c-1.3-0.6-2.8-0.9-4.3-0.9c-9,0-13.5,10.5-13.5,31.6C328.7,114.6,333.2,125.2,342.1,125.2z"/>
		<path class="st1" d="M429.1,137.3c0.4,0,0.8,0,1.1,0.2c0.4,0.1,0.7,0.3,1,0.6c0.4,0.5,0.7,1.1,0.7,1.7c0,0.3-0.1,0.7-0.2,1
			c-0.1,0.3-0.3,0.6-0.6,0.8c-0.3,0.3-0.6,0.5-0.9,0.6c-0.3,0.1-0.7,0.2-1.1,0.2h-23.8c-0.4,0-0.8,0-1.1-0.2c-0.4-0.1-0.7-0.3-1-0.6
			c-0.4-0.5-0.7-1.1-0.7-1.7c0-0.7,0.3-1.3,0.7-1.7c0.3-0.3,0.6-0.5,1-0.6c0.4-0.1,0.8-0.2,1.1-0.2c0.9,0,1.6-0.9,2-2.7
			c0.4-2,0.7-4.1,0.9-6.2c0.2-3,0.3-6,0.2-9.1V34.2c0-0.7-0.2-1.3-0.5-1.8c-0.4-0.5-0.8-1-1.2-1.5c-0.5-0.5-1-0.9-1.6-1.4
			c-0.9-0.3-1.7-0.9-2.3-1.6c-0.2-0.3-0.3-0.5-0.3-0.8c0-0.3,0-0.6,0.1-0.9c0.2-0.6,0.9-1.2,2.4-1.9c3.2-1.5,6.4-2.9,9.7-4.1
			c3.1-1.1,5.1-1.8,6-2c0.9-0.2,1.8-0.6,2.4-0.9c0.4-0.2,0.9-0.3,1.4-0.2c0.3,0.1,0.6,0.5,0.7,1c0.1,1,0.2,2,0.2,3v13.1l0.2,87.4
			v4.6c0,1.7,0.1,3.4,0.3,5.1c0.1,1.4,0.5,2.9,1,4.2C427.4,136.7,428.2,137.3,429.1,137.3z"/>
		<path class="st1" d="M512,80.3c0.1,3.9-0.7,7.8-2.4,11.4c-1.5,2.9-3.7,5.4-6.3,7.3c-2.6,1.8-5.6,3.2-8.7,4
			c-3.1,0.9-6.3,1.5-9.5,1.8c-3,0.3-5.9,0.5-8.9,0.4c-2.8-0.1-5.1-0.1-6.8-0.1c0,3.7,0.2,7.3,0.6,10.9c0.4,3.7,1.2,7.4,2.4,10.9
			c1.1,3.1,2.8,6,5,8.4c1.1,1.1,2.3,2,3.8,2.5c1.4,0.6,2.9,0.8,4.5,0.8c3.9,0.1,7.7-0.6,11.3-2c2.7-1.1,5.1-2.9,7.1-5.1
			c1.7-1.9,3-4.2,3.8-6.6c0.7-2.2,1.1-4.6,1.1-6.9c0-0.8,0.5-1.2,1.4-1.2c0.2,0,0.3,0,0.5,0c0.2,0.1,0.3,0.1,0.4,0.3
			c0.1,0.1,0.2,0.3,0.3,0.4c0.1,0.2,0.1,0.3,0,0.5c0.1,3.7-0.6,7.5-2.1,10.9c-1.3,3-3.2,5.8-5.6,8.1c-2.4,2.2-5.2,3.9-8.2,5
			c-3.3,1.1-6.7,1.7-10.1,1.7c-6.1,0.1-11.2-1-15.4-3.3c-4.1-2.3-7.6-5.5-10.2-9.4c-2.7-4.2-4.7-8.9-5.9-13.8
			c-1.3-5.5-2-11.1-2.1-16.8c-0.2-5.4,0.6-10.8,2.3-16c1.5-4.7,3.9-9.1,7-12.9c2.9-3.5,6.6-6.4,10.7-8.4c4.2-2,8.7-3.1,13.4-3.1
			c8.7,0,15.4,1.9,19.9,5.7c2.2,1.7,3.9,3.9,5.1,6.4C511.5,74.8,512.1,77.6,512,80.3z M469.4,102.1c2.1-0.1,4.2-0.2,6.3-0.5
			c3-0.4,5.9-1.3,8.6-2.8c3-1.6,5.6-3.8,7.6-6.5c2.2-2.9,3.2-6.8,3.2-11.9c0.1-4.4-0.7-8.8-2.4-12.9c-1.6-3.5-4.1-5.2-7.4-5.2
			c-2.6-0.1-5.1,0.9-7.1,2.6c-2,1.9-3.6,4.1-4.6,6.6c-1.2,2.8-2.1,5.8-2.6,8.8c-0.6,3.1-1,6.1-1.2,9.2c-0.2,3-0.4,5.6-0.4,7.9
			L469.4,102.1z"/>
		<path class="st2" d="M154.9,111.1c0,0-7.3,15.1-7.3,20.1c0,5,4.5,10,8.9,11.1c4.5,1.1,14,1.1,21.2,0c7.3-1.1,12.3-5,12.3-11.7
			c0-6.7-4.5-8.4-5-17.3"/>
		<path class="st3" d="M154.9,111.1c0,0-3.5,7.2-5.6,13.3c-0.9,2.8,4.3,2.7,11.5,0.9c5.2-1.3,12.5,2.1,17.3,0.6
			c5.9-1.8,8.8-4.9,8.5-5.6c-0.9-2.2-1.4-4.5-1.5-6.9"/>
		<path class="st4" d="M171.1,60.4c-9.5-0.4-19,5.6-22.3,8.4c-3.1,2.6-12.8,9.9-17.8,13.6c-0.9,0.7-1.7,1.4-2.4,2.2
			c-2.9,3.1-3.7,5.2-2.6,12.1c1.1,7.8,7.3,10.6,16.2,12.9c8.9,2.3,25.7,5.6,53,3.9c14.8-0.9,18.3-8,18.4-14.4c0-2.5-0.5-5-1.4-7.3
			c-1-2.3-2.4-4.4-4.2-6.2l-11.7-11.7C194,71.5,185.6,61,171.1,60.4z"/>
		<path class="st5" d="M196.3,73.8c-2.2-2.2-10.6-12.9-25.1-13.4c-9.5-0.4-19,5.6-22.3,8.4c-3.1,2.6-12.8,9.9-17.8,13.6
			c-0.9,0.7-1.7,1.4-2.4,2.2c0,0,19.6-3,28.3-7.6c4.6-2.4,20.2,4.5,29.3,4.3c2.3,0,4.5-0.7,6.3-2.1
			C194.3,77.8,195.6,75.9,196.3,73.8z"/>
		<path class="st6" d="M161.3,85c1.5-3.5,0.9-7.2-1.3-8.2c-2.3-1-5.3,1.1-6.9,4.6c-1.5,3.5-0.9,7.2,1.3,8.2
			C156.6,90.6,159.7,88.5,161.3,85z"/>
		<path class="st6" d="M187.4,99.4c1.3-2.2,0.1-5.2-2.6-6.8c-2.7-1.6-5.9-1.1-7.2,1.1c-1.3,2.2-0.1,5.2,2.6,6.8
			C182.9,102.1,186.2,101.6,187.4,99.4z"/>
		<path class="st6" d="M134.7,88.6c2.6-2.9,3.9-5.9,2.8-6.8c-1-0.9-3.9,0.7-6.5,3.5c-2.6,2.9-3.9,5.9-2.8,6.8
			C129.2,93,132.1,91.5,134.7,88.6z"/>
		<path class="st6" d="M153.7,112.1c0.4-0.6,0.7-1.3,0.8-2c0.1-0.7,0.1-1.5,0-2.2c-0.1-0.7-0.4-1.4-0.9-2c-0.4-0.6-1-1.1-1.6-1.6
			c-0.6-0.4-1.3-0.7-2.1-0.8c-0.7-0.1-1.5-0.1-2.2,0c-0.7,0.1-1.4,0.4-2,0.9c-0.6,0.4-1.1,0.9-1.6,1.6c-0.9,1.2-1.3,2.7-1.1,4.1
			l3.5,0.9c0.9,0.2,1.8,0.4,2.8,0.6L153.7,112.1z"/>
		<path class="st7" d="M162.1,61.9c-0.2,0.6-0.2,1.3,0,1.9c0.9,2.6,5.7,3.3,10.7,1.6c2.2-0.7,4.2-1.9,5.9-3.5
			C176.7,60.6,167.8,59.5,162.1,61.9z"/>
		<path class="st6" d="M203.9,110.3c3.9-1.4,6.4-4.2,5.7-6.1c-0.7-1.9-4.4-2.3-8.3-0.8c-3.9,1.4-6.4,4.2-5.7,6.1
			C196.3,111.4,200,111.8,203.9,110.3z"/>
		<path class="st6" d="M200.6,78.2c0.2,0.6-0.2,1.3-0.5,1.9c-0.9,1.6-2.3,2.8-4.1,3.4c-1.7,0.6-3.6,0.5-5.3-0.2
			c-1.7-0.7-3-2-3.8-3.7c-0.8-1.7-0.9-3.5-0.3-5.3c1.1-2.5,3.4-4.7,6.1-4.1c0.5,0.3,0.9,0.7,1.3,1.1C196.1,73.4,200.5,78,200.6,78.2
			z"/>
		<path class="st8" d="M220.2,68c0,0,4.8,53.6,1.4,61.7c-3.3,8.1-8.1,5.7-6.7,7.6c1.4,1.9,12.4,0.5,13.8,0c0.5-0.2,1.6-0.4,2.7-0.7
			c1.5-0.3,1,0.8,0.2,2.1l-6.2,5.7c-1.9,2.9,1.9,3.3,3.8,1.9c1.9-1.4,16.7-7.1,16.7-9.5c4.3-0.9,20-1.9,22.9,0
			c1.4,6.2,5.7,6.2,12.4,8.6c0,0,4.3,2.4,2.9-0.9c-0.9-2.1-6.7-4.8-6.6-8.4c0-0.6,0.5-0.9,0.9-0.6c1.9,1.8,5.4,4,10.9,3.7
			c9.5-0.5,5.3-3.3,5.3-3.3s-5.7-0.5-5.7-9.1c0-8.6,1.4-58.6,1.4-58.6"/>
		<path class="st9" d="M290.4,68.2c0,0-1.4,50-1.4,58.6s5.7,9.1,5.7,9.1s4.3,2.9-5.3,3.3c-5.6,0.3-9-1.9-10.9-3.7
			c-0.4-0.4-0.8,0-0.9,0.6c-0.1,3.7,5.6,6.3,6.6,8.4c1.4,3.3-2.9,0.9-2.9,0.9c-6.7-2.4-11-2.4-12.4-8.6c-2.9-1.9-18.6-0.9-22.9,0
			c0,0,8.9-11.3,17.1-12.7c8.1-1.4,13.4,0.5,15.3-10c1.9-10.5,0-23.9,3.3-29.6C285,78.8,290.4,68.2,290.4,68.2z"/>
		<path class="st10" d="M220.2,67.9c0,0,2.1,23.3,2.5,41.4c0.2,9.4,0,17.5-1.1,20.3c2.9-3.1,4.7-7.1,5.1-11.3
			c0.5-6.7-2.4-11.4,0-15.3c2.4-3.8,6.2-5.2,8.6-9.5c2.4-4.3,7-11.4,7.8-15.9c0.5-3,0.7-6.1,0.7-9.2L220.2,67.9z"/>
		<path class="st11" d="M255.4,77.9c19.5,0,35.3-4.4,35.3-9.8c0-5.4-15.8-9.8-35.3-9.8c-19.5,0-35.3,4.4-35.3,9.8
			C220.1,73.5,235.9,77.9,255.4,77.9z"/>
		<path class="st11" d="M240.1,137.1c-0.7-3.6-1-7.2-1-10.9c0-17.2,7.3-27.4,16.8-31.2c9.6,3.3,16.8,14,16.8,31.2
			c0,3.5-0.3,7-1,10.5"/>
		<path class="st12" d="M257,110.4h7c-0.2-1.8-1-3.4-2.3-4.7c-1.3-1.3-2.9-2.1-4.7-2.3V110.4z"/>
		<path class="st12" d="M255,110.4v-7c-1.8,0.2-3.4,1-4.7,2.3c-1.3,1.3-2.1,2.9-2.3,4.7H255z"/>
		<path class="st12" d="M255,112.5h-7c0.2,1.8,1,3.4,2.3,4.7c1.3,1.3,2.9,2.1,4.7,2.3V112.5z"/>
		<path class="st12" d="M257,112.5v7c1.8-0.2,3.4-1,4.7-2.3c1.3-1.3,2.1-2.9,2.3-4.7H257z"/>
		<path class="st12" d="M243,123.6c1.1,0,1.9-0.9,1.9-1.9s-0.9-1.9-1.9-1.9s-1.9,0.9-1.9,1.9S242,123.6,243,123.6z"/>
		<path class="st13" d="M255.4,58.3c-19.5,0-35.3,4.4-35.3,9.8c0,4.2,9.6,7.8,23.1,9.2C243.2,77.3,255,65.5,255.4,58.3z"/>
		<path class="st14" d="M266.7,69.3c0,0,0.1,0,0.1-0.1l0,0v0.2C266.9,69.4,266.8,69.4,266.7,69.3C266.7,69.3,266.7,69.3,266.7,69.3
			c-0.3-0.1-0.5-0.2-0.8-0.2c-2.1-0.6-4.2-0.9-6.3-1.2c-1.1-0.1-2.1-0.1-3.2-0.1c-1,0.1-2.1,0.2-3.2,0.4c-1.1,0.1-2.2,0.2-3.2,0.4
			l-0.8,0.1c-0.1,0-0.1,0-0.2,0.1c0.1,0.1,0.3,0.2,0.5,0.2c1,0.4,2,1,2.9,1.6c0.4,0.3,0.8,0.5,1.3,0.7c0.5,0.1,1,0.2,1.4,0.2
			c1.1,0,2.1-0.1,3.2-0.2l3.2-0.3c2.1-0.2,4.3-0.4,6.4-0.7c0.5-0.1,1-0.2,1.5-0.3c0.1,0,0.3-0.1,0.4-0.1c0.1,0,0.1-0.1,0.2-0.1
			c0,0,0,0.1,0,0.2s0,0.1,0,0.2c-0.1-0.1-0.1-0.1-0.2-0.2c-0.1,0.1-0.3,0.1-0.4,0.1c-0.5,0.1-1,0.3-1.5,0.3
			c-2.1,0.4-4.2,0.5-6.4,0.7l-3.2,0.3c-1.1,0.1-2.1,0.2-3.2,0.2c-0.5,0-1-0.1-1.4-0.2c-0.5-0.2-0.9-0.4-1.3-0.7
			c-0.9-0.6-1.9-1.2-2.9-1.6c-0.2-0.1-0.3-0.1-0.5-0.2c-0.1,0-0.2,0.1-0.3,0.1c0,0,0,0,0.1-0.1c0,0,0-0.1,0-0.1c0,0,0-0.1,0-0.1
			l0.1,0.1c0.1,0,0.1,0.1,0.2,0.1c0.1,0,0.1,0,0.2-0.1l0.8-0.1c1-0.2,2.1-0.3,3.2-0.4c1.1-0.1,2.2-0.3,3.2-0.4
			c1.1-0.1,2.1,0,3.2,0.1c2.1,0.2,4.3,0.6,6.3,1.2C266.2,69.2,266.5,69.2,266.7,69.3C266.7,69.3,266.7,69.3,266.7,69.3z"/>
		<path class="st15" d="M251.1,127.9c4-0.8,8.6-3.3,12-3.8l9.4-1.4c0.1,1.1,0.1,2.3,0.1,3.4c0,3.5-0.3,7.1-1,10.6l-31.5,0.3
			C240.1,137.1,248.8,128.4,251.1,127.9z"/>
		<path class="st16" d="M270.8,135.1h-30.7c-1.3,0-2.3,1-2.3,2.3v1.5c0,1.3,1,2.3,2.3,2.3h30.7c1.3,0,2.3-1,2.3-2.3v-1.5
			C273.1,136.1,272.1,135.1,270.8,135.1z"/>
		<path class="st1" d="M115.5,90.2c0,1.7-0.8,2.5-2.4,2.5c-2,0-3.3,0.7-4.1,2.1c-0.9,1.9-1.3,4-1.1,6.1c0.1,6-0.6,12-1.8,17.8
			c-1,4.9-3.1,9.6-5.9,13.8c-2.8,3.9-6.5,6.9-10.8,9c-4.4,2.2-9.8,3.2-16.3,3.2c-7.1,0-13.2-1.6-18.3-4.9
			c-5.1-3.3-9.4-7.9-12.4-13.2c-3.4-6.1-5.8-12.8-7.1-19.7c-1.6-8-2.3-16.2-2.3-24.4c-0.1-8.7,0.8-17.4,2.8-25.9
			c1.5-6.8,4.3-13.4,8-19.3c3.2-5,7.7-9.1,12.9-12C62,22.4,68,20.9,74,21c4.8,0,9.6,0.7,14.2,2.3c4.2,1.4,8.2,3.6,11.6,6.4
			c3.3,2.8,6,6.3,7.9,10.2c2,4.2,3,8.9,2.9,13.5c0,2.2-0.3,4.3-1.1,6.4c-0.7,1.7-1.6,3.2-2.9,4.5c-1.1,1.1-2.4,2-3.8,2.5
			c-1.3,0.5-2.8,0.8-4.2,0.8c-1.7,0-3.4-0.4-4.9-1c-1.5-0.6-2.9-1.7-3.9-3c-1-1.3-1.6-2.9-1.7-4.5c-0.1-2,0.4-4,1.5-5.8
			c2.7-4.7,4.1-8.8,4.2-12.5c0.2-3.3-0.6-6.5-2.4-9.2C89.4,29,86.9,27,84,25.8c-3.2-1.3-6.6-2-10.1-2c-3.6-0.1-7.1,0.8-10.1,2.6
			c-2.7,1.8-4.9,4.3-6.4,7.2c-1.7,3.3-2.9,6.8-3.6,10.5c-0.8,4.1-1.3,8.2-1.6,12.4c-0.3,4.3-0.4,8.7-0.3,13.2
			C52,74.1,52,78.4,52,82.5c0,7.2,0,14.4,0.1,21.5c0,6.4,0.6,12.8,1.8,19c0.9,5,3,9.6,6.1,13.6c2.9,3.5,7.3,5.2,13.1,5.2
			c6.1,0,10.5-1.4,13.4-4.1c2.9-2.8,4.8-6.3,5.7-10.2c1-4.4,1.3-8.8,1-13.3c-0.2-4.8-0.3-9.2-0.3-13.3c0.1-2.1-0.3-4.2-1.2-6.1
			c-0.4-0.7-1.1-1.3-1.8-1.6c-0.7-0.4-1.6-0.5-2.4-0.4c-1.6,0-2.4-0.8-2.4-2.5c0-1.7,0.8-2.5,2.4-2.5h25.7
			C114.7,87.7,115.5,88.5,115.5,90.2z"/>
		<path class="st17" d="M92.9,128c0,0-11-8.3-23-2.8S52,138.9,49.8,136c-2.2-3,13.7-17.6,12.7-27.3c-0.8-8-14.7-10.1-20.2-11.9
			c-5.5-1.8-15.9-4.9-15.9-10.4s6.1-7,15.3-10.6s19.2-9.1,21-18.3c1.8-9.2-4.8-20.4-9.4-25.9C48.7,26,39.5,15,38.6,11.3
			c-0.9-3.7,0.9,9.2,1.8,14.7c0.9,5.5,7.4,12.9,7.4,12.9s6.9,12.5,3.7,17.4c-3.2,4.9-3.3,6-18.2,12.2c-14.9,6.2-16.8,11.7-16.8,16.3
			c0,4.6-0.9,14.7,12,18.4c12.9,3.7,22.1,3.7,23.9,9.2c1.8,5.5-17.9,21.4-13.3,28.7s18.3,3.1,26-1.7c7.4-4.6,7.2-6.5,24.7-4.3
			L92.9,128z"/>
		<path class="st1" d="M50.1,135.7c0.4-1.3,2.3-4.1,4.7-8.8c-0.2-0.9-0.8-3-1-4c-0.8-3.4-1.4-6.8-1.8-10.2c-0.5,3.6-5.6,9.7-9,15"/>
		<path class="st1" d="M51.9,51.9c0.2,1.5,0.4,3.1,0.4,4.7c-0.3,4-0.4,10.6-0.3,14.8c-3.3,2-5.7,4.4-9.9,6.1c-2.6,1-6.6,1.1-8.9,2.2
			c0.1-3,0.5-9.1,0.8-11.9c14.4-6,13.9-8,17.1-12.9c0.3-0.5,0.6-1.1,0.7-1.8L51.9,51.9z"/>
		<path class="st1" d="M93.8,127.8c-0.5-0.2-1.1-0.5-1.6-0.8l-0.1,0.5c-0.5,2.1-2.6,6.2-3.6,7.9l1.8,0.6L93.8,127.8z"/>
		<path class="st18" d="M20.8,96.6c0.5-0.8,0.7-1.7,0.5-2.7c-0.2-0.9-0.6-1.8-1.4-2.4c-2.1-1.8-5.9-4-10.5-2.2
			C2.5,92,4.7,99.6,1.1,104.2c4.3-1,6.3-1.5,10.1-2.4C15,100.8,19,99.3,20.8,96.6z"/>
		<path class="st19" d="M16.9,91c-1.3,0.8-2.7,1.7-3.9,2.6c-1.3,0.9-2.5,1.9-3.7,2.9c-1.2,1-2.1,2.2-3.2,3.4
			c-1.1,1.1-2.2,2.2-3.5,3.2l-0.1-0.1c0.9-1.3,1.8-2.6,2.9-3.8c1-1.2,2.2-2.3,3.4-3.3C11.3,94,14,92.3,16.9,91L16.9,91z"/>
		<path class="st18" d="M56.3,34.5c-0.8,1-1.2,2.2-1.1,3.5c0.1,1.3,0.6,2.4,1.5,3.3c2.6,2.7,7.2,6.2,13.6,4.5
			c9.8-2.6,8-13,13.4-18.7c-5.8,0.7-8.6,1.1-13.7,1.8C64.9,29.6,59.2,31.1,56.3,34.5z"/>
		<path class="st19" d="M60.8,42.4c1.9-0.8,3.8-1.8,5.6-2.8c1.8-1,3.6-2.1,5.3-3.3c1.7-1.2,3.2-2.6,4.8-4c1.6-1.4,3.2-2.7,5-3.9
			l0.1,0.1c-1.4,1.6-2.9,3-4.4,4.5c-1.5,1.5-3.2,2.8-5,3.9C68.6,39.1,64.8,41,60.8,42.4L60.8,42.4z"/>
		<path class="st18" d="M55.9,113.2c-0.5-0.8-0.7-1.7-0.5-2.7c0.2-0.9,0.6-1.8,1.4-2.4c2.1-1.8,5.9-4,10.5-2.3
			c7.1,2.8,4.9,10.3,8.4,14.9c-4.3-1-6.3-1.5-10.1-2.4C61.8,117.5,57.8,116,55.9,113.2z"/>
		<path class="st19" d="M59.9,107.6c2.8,1.4,5.5,3.1,8,5.1c1.3,1,2.4,2.1,3.4,3.3c1,1.2,2,2.5,2.9,3.8l-0.1,0.1
			c-1.2-1-2.4-2.1-3.5-3.2c-1.1-1.1-2.1-2.3-3.2-3.4c-1.2-1-2.4-2-3.7-2.9C62.5,109.4,61.2,108.5,59.9,107.6L59.9,107.6z"/>
		<path class="st18" d="M45.8,148.3c0.8-1.2,1.1-2.7,0.8-4.1c-0.2-1.4-1-2.7-2.1-3.6c-3.2-2.8-9-6.1-16-3.4
			c-10.8,4.2-7.5,15.8-12.9,22.8c6.5-1.5,9.6-2.3,15.4-3.7C36.7,154.9,43,152.6,45.8,148.3z"/>
		<path class="st19" d="M39.8,139.9c-2.1,1.2-4.1,2.5-6,3.9c-2,1.4-3.8,2.9-5.6,4.4c-1.8,1.6-3.3,3.4-5,5.1
			c-1.6,1.8-3.3,3.5-5.1,5.1l-0.1-0.1c1.4-1.9,3-3.8,4.5-5.6c1.6-1.8,3.3-3.5,5.2-5.1C31.4,144.6,35.4,142,39.8,139.9L39.8,139.9z"
			/>
		<path class="st17" d="M407.3,134.6c0,0-3.7-1.7-3.7-5.6c0-3.9,3.1-6,11.8-9.9c8.7-3.9,10.6-9,10.6-10.8c0-1.8-28.4-5.4-28-15.9
			c0.3-10.6,12.7-11.3,17.9-14.4c5.3-3.1,10-5.2,10-8.3c0-3.1-26-7.5-27-13.9s7-14.7,15.4-18.1c8.4-3.4,11.5-6.5,15.3-11.4
			s5.2-9.7,8.2-16.8c4-9.8,5.5-9,5.5-9s-0.5,5.8-0.9,10.9c-0.3,5.1,0.2,13.5-4.6,19.8C425.5,47.2,408,49.3,408,52.3
			c0,2.9,22.7,5.5,26.2,12c4,7.4-3.1,14.2-13,20.5c-9.9,6.3-13.2,3.6-13.2,6.3c0,2.7,22.9,5.7,26.2,13c3.1,6.8-2.1,14.2-10.6,20.5
			C415.1,130.9,415,132.5,407.3,134.6z"/>
		<path class="st1" d="M408.4,102.9c5.6,2.2,11.3,4,17.1,5.5V96.8c-7.6-3.1-17-5.9-17-5.9"/>
		<path class="st1" d="M408.5,52.2V63c5.9,4.3,13.1,6.6,15.8,6l1.2,0.7V58.2c-6.7-2.5-12.8-5.9-16.3-5.5L408.5,52.2z"/>
		<path class="st18" d="M428.2,38.5c-0.8-1.2-1.1-2.7-0.8-4.1s1-2.7,2.1-3.6c3.2-2.8,9-6.1,16-3.4c10.8,4.2,7.5,15.8,12.9,22.8
			c-6.5-1.5-9.6-2.3-15.4-3.7C437.4,45.1,431,42.7,428.2,38.5z"/>
		<path class="st19" d="M434.3,29.9c2.9,1.4,5.8,3.1,8.5,5c1.4,0.9,2.7,1.9,3.9,3c1.2,1.1,2.3,2.4,3.2,3.7l-0.1,0.1
			c-1.3-1-2.5-2.1-3.8-3.1c-1.3-1-2.5-2.1-3.7-3.1c-1.3-1-2.6-1.9-3.9-2.9C437,31.7,435.6,30.8,434.3,29.9L434.3,29.9z"/>
		<path class="st18" d="M422.6,123.6c-0.5-0.8-0.7-1.7-0.5-2.7c0.2-0.9,0.6-1.8,1.4-2.4c2.1-1.8,5.9-4,10.5-2.2
			c7.1,2.8,4.9,10.3,8.4,14.9c-4.3-1-6.3-1.5-10.1-2.5C428.5,127.8,424.5,126.4,422.6,123.6z"/>
		<path class="st19" d="M426.7,118c2.8,1.4,5.5,3.1,8,5c1.3,1,2.4,2.1,3.4,3.3c1,1.2,2,2.4,2.9,3.8l-0.1,0.1c-1.2-1-2.4-2.1-3.5-3.2
			c-1.1-1.1-2.1-2.3-3.2-3.4c-1.2-1-2.4-2-3.6-2.9C429.3,119.7,428,118.9,426.7,118L426.7,118z"/>
		<path class="st18" d="M413,92c0.5-0.8,0.7-1.7,0.5-2.7c-0.1-0.9-0.6-1.8-1.4-2.4c-2.1-1.8-5.9-4-10.5-2.2
			c-7.1,2.8-4.9,10.3-8.4,14.9c4.3-1,6.3-1.5,10.1-2.5S411.2,94.8,413,92z"/>
		<path class="st19" d="M409.1,86.5c-1.4,0.8-2.7,1.7-3.9,2.6c-1.3,0.9-2.5,1.9-3.6,2.9c-1.2,1-2.1,2.2-3.2,3.4
			c-1.1,1.1-2.2,2.2-3.5,3.2l-0.1-0.1c0.9-1.3,1.8-2.6,2.9-3.8c1-1.2,2.2-2.3,3.4-3.3C403.5,89.5,406.2,87.8,409.1,86.5L409.1,86.5z
			"/>
		<path class="st20" d="M274.8,41.3c-0.1-0.1,0-0.2,0-0.3c0.1-0.6,0.2-1.2,0.3-1.7c0-0.2,0-0.3,0-0.5c0-1,0-2,0-3.1
			c0-1.1-0.1-2.2-0.2-3.3c-0.1-0.7-0.1-1.4-0.2-2.1c-0.1-0.7-0.2-1.2-0.3-1.8c-0.2-0.9-0.3-1.8-0.5-2.7c-0.3-1.6-0.6-3.2-0.9-4.7
			c-0.1-0.8-0.5-1.5-1-2.1c-0.1-0.1-0.2-0.1-0.3-0.1c-0.1,0-0.2,0-0.3,0.1c-0.2,0.1-0.3,0.3-0.4,0.6c0,0.1,0,0.3-0.2,0.3
			c-0.2,0-0.1-0.2-0.2-0.3c-0.2-0.4-0.4-0.8-0.8-1.1c-0.5-0.3-1-0.2-1.1,0.4c-0.1,0.6-0.3,1.1-0.6,1.6c-0.3,0.8-0.4,1.6-0.4,2.4
			c0,0,0,0,0,0c0.3,0.4,0.1,0.7-0.1,1.1c-0.4,0.8-0.4,1.7-0.2,2.5c0.1,0.5,0.3,1.1,0.4,1.6c0,0,0,0.1,0,0.1s0,0.1,0,0.1
			c-0.2,0.5-0.2,1-0.1,1.6c0.1,0.8,0.4,1.6,0.8,2.3c0.5,0.9,1,1.8,1.4,2.7c0.1,0.3,0.3,0.6,0.4,0.8c0.2,0.2,0.1,0.5,0.1,0.7
			c0.2,0.5,0.3,1.1,0.3,1.7c0,0.3,0.2,0.5,0.2,0.8c0,0.3,0,0.5,0,0.8c0,0.4,0.1,0.9,0.3,1.3c0,0.1,0.1,0.2,0.1,0.3
			c0.2,0.7,0.5,1.4,0.9,2c0.5,0.4,2.4-2.2,2.4-2.2"/>
		<path class="st20" d="M272.2,43.2c-0.1-0.7-0.4-1.4-0.8-2c-0.4-0.6-0.7-1.2-0.9-1.9c-0.4-1-1-2-1.7-2.9c-0.6-0.8-1.2-1.6-1.8-2.4
			c-0.6-0.8-1.4-1.6-2.1-2.3c-0.4-0.4-0.8-0.8-1.2-1.3c-0.3-0.3-0.7-0.6-1-0.9c-0.2-0.2-0.5-0.4-0.6-0.6c-0.6-0.5-1.2-1-1.8-1.5
			c-0.3-0.3-0.4-0.2-0.7,0.1c-0.1,0.1-0.1,0.4-0.3,0.3c-0.2,0-0.4-0.1-0.5-0.3c-0.1-0.1-0.3-0.3-0.5-0.4c-0.5-0.4-0.9-0.3-1.4,0.3
			c-0.3,0.3-0.4,0.7-0.4,1.1c0,0.6-0.2,1.2-0.3,1.8c-0.1,0.6,0,1.1,0.1,1.7c0.1,0.3,0.4,0.6,0.5,0.9c0,0.1,0.1,0.2,0.1,0.2
			c0,0.1,0,0.2,0,0.3c-0.2,0.6-0.2,1.3,0,1.9c0.2,0.6,0.5,1.1,0.9,1.6c0.1,0.1,0.1,0.2,0.1,0.3c0.1,0.7,0.5,1.3,0.9,1.8
			c0.4,0.5,0.9,0.9,1.5,1.1c0.2,0.1,0.5,0.1,0.6,0.3c0,0.1,0.1,0,0.2,0.1c0.6,0.1,1.1,0.3,1.6,0.6c0,0,0.1,0,0.1,0.1
			s0.1,0.1,0.1,0.1c0.1,0.4,0.3,0.7,0.6,1c0.3,0.3,0.6,0.5,0.9,0.7c0.8,0.3,1.5,0.8,2.2,1.4c0.5,0.4,1.1,0.6,1.7,0.7
			c0.5,0.1,1,0.2,1.4,0.4C269.4,45.7,272.3,44,272.2,43.2z"/>
		<path class="st21" d="M292,50.1c-0.2-0.2-0.5-0.2-0.7-0.2c-0.5,0-0.9,0-1.4,0.1c-0.3,0.1-0.6,0.2-0.9,0.4
			c-1.2,0.8-2.4,1.4-3.7,2.1c-0.1,0.1-0.2,0.1-0.4,0.2c-0.1,0-0.3,0-0.4,0c-0.1,0-0.1,0-0.2,0c-0.1,0-0.1,0.1-0.2,0.1
			c-0.1,0.1-0.2,0.2-0.3,0.3c-0.4,0.6-0.9,1.2-1.6,1.5c-0.5,0.3-0.9,0.6-1.3,0.9c-0.5,0.4-1.1,0.8-1.7,1.2c-0.4,0.3-0.8,0.7-1.1,1.1
			c-0.2,0.3-0.6,0.6-0.9,0.8c-0.1,0-0.2,0.1-0.2,0.2c-0.2,0.2-0.3,0.3-0.6,0.2c-0.2-0.1-0.3-0.2-0.4-0.3c-0.1-0.1-0.2-0.3-0.2-0.4
			c0-0.4-0.1-0.8-0.3-1.2c-0.1-0.3-0.1-0.6,0-0.9c0.3-1.3,0.8-2.5,1.5-3.6c0.4-0.6,0.9-1.1,1.4-1.5c0.3-0.2,0.5-0.5,0.6-0.9
			c0.1-0.3,0.1-0.7,0-1.1c-0.1-0.7-0.2-1.5-0.4-2.2c-0.1-0.3-0.2-0.7-0.2-1.1c0-0.1,0-0.1,0-0.2c0-0.1-0.1-0.1-0.1-0.1
			c-0.1-0.1-0.2-0.2-0.2-0.3c-0.1-0.1-0.1-0.2-0.1-0.4c0-0.9,0.1-1.8,0.4-2.6c0.1-0.4,0.2-0.8,0.4-1.1c0.3-0.6,0.5-0.7,1.2-0.2
			c0.2,0.2,0.4,0.3,0.6,0.3c0.2,0,0.5,0,0.7,0c0.1,0,0.2-0.1,0.3-0.2c0.3-0.4,0.7-0.7,1.1-0.9c0.1,0,0.2-0.1,0.3-0.2
			s0.1-0.2,0.1-0.3c0,0,0-0.1,0-0.1c0,0,0-0.1,0.1-0.1s0.1,0,0.1,0c0,0,0.1,0,0.1,0c0.7,0,0.7,0,0.7-0.7c0.1-0.4,0.2-0.8,0.3-1.1
			c0.1-0.2,0.2-0.5,0.4-0.6c0.2-0.2,0.5-0.3,0.7-0.3c0.1,0,0.1,0,0.1-0.1c0,0,0.1-0.1,0.1-0.1c0.3-0.7,0.4-1.4,0.2-2.1
			c0-0.1,0-0.1-0.1-0.2c-0.2-0.4-0.3-0.8-0.4-1.2c-0.1-0.3-0.2-0.7-0.4-1c-0.2-0.3-0.4-0.5-0.7-0.7c-0.5-0.3-1-0.6-1.5-0.9
			c-0.2-0.1-0.3-0.2-0.4-0.4c-0.1-0.2-0.2-0.3-0.2-0.5c0-0.3-0.1-0.5-0.2-0.7c-0.2-0.2-0.4-0.3-0.6-0.4c-0.6-0.1-1.2-0.2-1.8-0.2
			c-0.1,0-0.2,0-0.3,0.1c-0.1,0-0.2,0.1-0.2,0.2c-0.2,0.2-0.4,0.4-0.7,0.5c-0.4,0.2-0.7,0.5-0.9,1c-0.2,0.4-0.2,0.9,0,1.3
			c0.1,0.2,0.1,0.4,0,0.5c0,0.2-0.1,0.3-0.3,0.5c-0.5,0.4-0.8,1-0.9,1.7c-0.1,0.3-0.2,0.6-0.3,0.9c-0.1,0.1,0,0.2,0,0.3
			c0,0,0,0.1,0,0.1c0,0,0,0.1,0,0.1c-0.1,0.1-0.4,0.5,0.2,0.3c0.1,0,0.2,0.2,0.2,0.3c0,0.4,0.1,0.8,0.2,1.1c0,0.4,0,0.8-0.1,1.1
			c-0.2,0.6-0.5,1.2-0.9,1.8c-0.3,0.4-0.6,0.8-1,1.2c0,0-4.9,3.3-5.6,4.7c-0.3,0.4-0.4,1-0.7,1.4c-0.6,1-1.2,2-1.7,3.1
			c-0.7,1.4-1.6,2.6-2.4,4c-0.5,0.9-1,1.8-1.5,2.8c-0.5,1.1-0.8,2.4-1.3,3.5c-0.3,0.9-0.9,1.8-1.5,2.6c-0.4,0.5-0.9,0.8-1.5,0.9
			c-0.5,0-1,0-1.5,0c-0.3,0.1-0.9,0-1.4,0.1c-0.6,0-1.3,0-1.9-0.1c-0.1,0-0.3,0-0.4,0.1c0,0.1,0,0.2,0,0.2c0,0.1,0.1,0.1,0.2,0.2
			c0.3,0.2,0.7,0.3,1.1,0.4c0.9,0.3,1.9,0.4,2.9,0.3c0.1,0,0.2,0,0.3,0c0.1,0,0.2,0,0.2,0.1c0,0.1-0.1,0.2-0.2,0.2
			c-0.1,0-0.2,0.1-0.2,0.2c0,0.1,0.1,0.2,0.3,0.2c0.5,0.1,0.9,0.2,1.4,0.2c0.4,0,0.8,0,1.2-0.1c0.1,0,0.2-0.1,0.3,0.1
			c0.1,0.2,0.4,0.2,0.6,0.2c0.3,0,0.6,0,0.9,0.1c0.3,0,0.7,0,1-0.2c0.3-0.2,0.6-0.4,0.7-0.7c0.1-0.4,0.1-0.8,0.2-1.2
			c0.5-1.7,1.2-3.4,2.3-4.8c0.5-0.8,0.9-1.7,1.3-2.5c0.6-1.3,0.9-2.6,1.5-3.9c0-0.1,0.1-0.2,0.1-0.2c0-0.1,0.1-0.1,0.2-0.1
			c0.1,0,0.1,0.1,0.1,0.2c0,0.8,0,1.7-0.1,2.5c-0.1,0.6-0.2,1.2-0.2,1.8c0,0.2,0,0.4-0.1,0.7c-0.2,0.6-0.2,1.3-0.3,1.9
			c-0.1,0.4-0.1,0.8-0.1,1.1c-0.3,1.6-0.3,3.3-0.2,5c0.1,0.6,0.2,1.1,0.4,1.6c0.2,0.5,0.4,0.9,0.6,1.4c0.3,0.9,1.1,0.9,1.8,1.1
			c0.8,0.2,1.6,0.2,2.4-0.1c0.7-0.2,1.5-0.5,2.2-0.7c0.8-0.2,1.7-0.2,2.5,0c0.7,0.2,1.4,0.3,2.1,0.2c0.1,0,0.2,0,0.2,0
			c0.5-0.2,1.1-0.2,1.6,0c0.2,0.1,0.4,0.2,0.6,0.4c0.1,0.2,0.2,0.4,0.3,0.6c0,0.2,0.1,0.3,0.1,0.5c0,0.1,0,0.1,0,0.2
			c0,0.1,0.1,0.1,0.1,0.1c0.1,0,0.1,0,0.2,0c0.1,0,0.1,0,0.2-0.1c0.2-0.1,0.3-0.3,0.4-0.5c0.1-0.2,0.2-0.4,0.2-0.6
			c0-1,0.2-2.1,0.7-3c0.3-0.5,0.6-1,0.8-1.5c0-0.1,0.2-0.2,0.4-0.2c0.8,0,1.5-0.1,2.3-0.3c0.4-0.1,0.7-0.3,1-0.4l-0.3-5.7
			c-0.6,0.1-1.3,0.2-1.9,0.4c-0.4,0-0.7,0.1-1,0.4c-0.1,0.1-0.1,0.2-0.2,0.1c0,0-0.1-0.1-0.1-0.1c0-0.1,0-0.1,0-0.1
			c0.1-0.2,0.1-0.4,0.1-0.6c0-0.2,0-0.4,0.1-0.5s0.2-0.3,0.3-0.5c0.3-0.3,0.6-0.7,0.9-1c0.5-0.5,0.9-1,1.4-1.5
			c0.1-0.1,0.2-0.2,0.3-0.2c0,0,0.3-0.1,0.3,0.5c0.4,1.1,0.8,2.1,1.4,3l1.8-7L292,50.1z M262.3,63.7c0.1-0.2,0.2-0.4,0.3-0.6
			c0.3-0.8,0.7-1.5,1.2-2.1c0,0,0.1-0.1,0.1-0.1c0.1,0,0,0.1,0,0.2c-0.2,0.6-0.5,1.2-0.8,1.8c-0.2,0.3-0.4,0.6-0.7,0.9
			c0,0,0,0-0.1,0S262.3,63.8,262.3,63.7C262.3,63.8,262.2,63.7,262.3,63.7L262.3,63.7z"/>
		<path class="st22" d="M281.8,35.3c1.2,0.7,2.6,1.2,4,1.3c0.1,0,0.2-0.1,0.2-0.2c0.3-0.7,0.4-1.4,0.2-2.1c0-0.1,0-0.1-0.1-0.2
			c-0.2-0.4-0.3-0.8-0.4-1.2c-0.1-0.7-0.5-1.3-1.1-1.7c-0.5-0.3-1-0.6-1.5-0.9c-0.2-0.1-0.3-0.2-0.4-0.4c-0.1-0.2-0.2-0.4-0.2-0.5
			c0-0.3-0.1-0.5-0.2-0.7c-0.2-0.2-0.4-0.3-0.6-0.4c-0.6-0.1-1.2-0.2-1.8-0.2c-0.1,0-0.2,0-0.3,0.1c-0.1,0-0.2,0.1-0.2,0.2
			c-0.2,0.2-0.4,0.4-0.7,0.5c-0.4,0.2-0.7,0.5-0.9,1c-0.2,0.4-0.2,0.9,0,1.3c0.1,0.2,0.1,0.4,0,0.5c0,0.2-0.1,0.3-0.3,0.5
			c-0.5,0.4-0.8,1-0.9,1.7c-0.1,0.3-0.2,0.6-0.3,0.9c-0.1,0.1,0,0.2,0,0.3c0,0,0,0.1,0,0.1c0,0,0,0.1,0,0.1
			c-0.1,0.1-0.4,0.5,0.2,0.3c0.1,0,0.2,0.2,0.2,0.3C278.3,35,280.1,34.9,281.8,35.3z"/>
		<path class="st4" d="M269.8,53.2c0,0.8,0,1.7-0.1,2.5c-0.1,0.6-0.2,1.2-0.2,1.8c0,0.2,0,0.4-0.1,0.7c-0.2,0.6-0.2,1.3-0.3,1.9
			c-0.1,0.4-0.1,0.8-0.1,1.1c-0.3,1.6-0.4,3.3-0.3,4.9c0.1,0.6,0.2,1.1,0.4,1.6c0.2,0.5,0.4,0.9,0.6,1.4c0.3,0.9,1.1,0.9,1.8,1.1
			c0.8,0.2,1.6,0.2,2.4-0.1c0.7-0.2,1.5-0.5,2.2-0.7c0.8-0.2,1.7-0.2,2.5,0c0.7,0.2,1.4,0.2,2.1,0.2c0.1,0,0.2,0,0.2,0
			c0.5-0.2,1.1-0.2,1.6,0c0.2,0.1,0.4,0.2,0.6,0.4c0.1,0.2,0.2,0.4,0.3,0.6c0,0.2,0.1,0.3,0.1,0.5c0,0.1,0,0.1,0,0.2
			c0,0.1,0.1,0.1,0.1,0.1c0.1,0,0.1,0,0.2,0c0.1,0,0.1,0,0.2-0.1c0.2-0.1,0.3-0.3,0.4-0.5c0.1-0.2,0.2-0.4,0.2-0.6
			c0-1.1,0.2-2.1,0.7-3.1c0.3-0.5,0.6-1,0.8-1.5c0.2-1.6,0.2-3.2,0-4.8c-0.4-1.4-0.6-2.9-0.6-4.4c0.1-0.9-0.5-3.5-1-4
			c-0.1,0-0.1,0-0.2,0c-0.1,0-0.1,0.1-0.2,0.1c-0.1,0.1-0.2,0.2-0.3,0.3c-0.4,0.6-0.9,1.1-1.6,1.5c-0.5,0.3-0.9,0.6-1.3,0.9
			c-0.5,0.4-1.1,0.8-1.7,1.2c-0.4,0.3-0.8,0.7-1.1,1.1c-0.2,0.3-0.6,0.6-0.9,0.8c-0.1,0-0.2,0.1-0.2,0.2c-0.2,0.2-0.3,0.3-0.6,0.2
			c-0.2-0.1-0.3-0.1-0.4-0.3c-0.1-0.1-0.2-0.3-0.2-0.4c0-0.4-0.1-0.8-0.3-1.2c-0.1-0.3-0.1-0.6,0-0.9c0.3-1.3,0.8-2.5,1.5-3.6
			c0.4-0.6,0.9-1.1,1.4-1.5c0.3-0.2,0.5-0.5,0.6-0.9c0.1-0.3,0.1-0.7,0-1.1c-0.1-0.7-0.2-1.5-0.4-2.2c-0.1-0.3-0.2-0.7-0.2-1.1
			c0-0.1,0-0.1,0-0.2s-0.1-0.1-0.1-0.1c-1.2-0.2-2.4-0.1-3.6,0.2c-1.5,0.5-3,0.8-3.3,1.3C271.5,47,269.8,51,269.8,53.2z"/>
		<path class="st23" d="M273,21.1c-0.2-0.8-0.5-1.5-1-2.1c-0.1-0.1-0.2-0.1-0.3-0.1c-0.1,0-0.2,0-0.3,0.1c-0.2,0.1-0.3,0.3-0.4,0.6
			c0,0.1,0,0.3-0.2,0.3c-0.2,0-0.1-0.2-0.2-0.3c-0.2-0.4-0.4-0.8-0.8-1.1c-0.5-0.3-1-0.2-1.1,0.4c-0.1,0.6-0.3,1.1-0.6,1.6
			c-0.3,0.8-0.4,1.6-0.4,2.4c0,0,0,0,0,0c0.3,0.4,0.1,0.7-0.1,1.1c-0.4,0.8-0.4,1.7-0.2,2.5c0.9-0.7,1.7-1.5,2.4-2.5
			C270.9,22.9,271.9,21.9,273,21.1z"/>
		<path class="st23" d="M263.6,30.4c-0.3-0.4-0.7-0.6-1-0.9c-0.3-0.4-0.5-0.4-0.6-0.6c-0.6-0.5-1.2-1-1.8-1.5
			c-0.3-0.3-0.4-0.2-0.7,0.1c-0.1,0.1-0.1,0.3-0.3,0.3c-0.2,0-0.4-0.1-0.5-0.3c-0.1-0.1-0.3-0.3-0.5-0.4c-0.5-0.4-0.9-0.3-1.4,0.3
			c-0.3,0.3-0.4,0.7-0.4,1.2c0,0.6-0.3,1.2-0.3,1.8c-0.1,0.6,0,1.1,0.1,1.7c0.1,0.3,0.4,0.6,0.5,0.9c0,0.1,0.1,0.2,0.1,0.2
			c0,0.1,0,0.2,0,0.3c-0.2,0.6-0.2,1.3,0,1.9c0.2,0.6,0.5,1.1,0.9,1.6c0.1,0.1,0.1,0.2,0.1,0.3c0.1,0.7,0.5,1.3,0.9,1.8
			c0.4,0.5,0.9,0.9,1.5,1.1c0.2,0.1,0.5,0.1,0.6,0.3c0,0,1.3-3.3,0.8-5.1C261.2,33.6,263.6,30.4,263.6,30.4z"/>
		<path class="st24" d="M280.8,61.5c-0.6,1.7-0.6,2.7-4.1,5c-1.8,1.1-3.5,2.4-5.1,3.8c0.8,0.2,1.6,0.2,2.4-0.1
			c0.7-0.2,1.5-0.5,2.2-0.7c0.8-0.2,1.7-0.2,2.5,0c0.7,0.2,1.4,0.2,2.1,0.2c0.1,0,0.2,0,0.3,0c0.5-0.2,1.1-0.2,1.6,0
			c0.2,0.1,0.4,0.2,0.6,0.4c0.1,0.2,0.2,0.4,0.3,0.6c0,0.2,0.1,0.3,0.1,0.5c0,0.1,0,0.1,0.1,0.2c0,0.1,0.1,0.1,0.1,0.1
			c0.1,0,0.1,0,0.2,0c0.1,0,0.1,0,0.2-0.1c0.2-0.1,0.3-0.3,0.4-0.5s0.2-0.4,0.2-0.6c0-1.1,0.2-2.1,0.7-3.1c0.3-0.5,0.6-1,0.8-1.5
			c0.2-1.6,0.2-3.2,0-4.8c-0.4-1.4-0.6-2.9-0.6-4.4c0.1-0.9-0.5-3.5-1-4c-0.1,0-0.1,0-0.2,0c-0.1,0-0.1,0.1-0.2,0.1
			c-0.1,0.1-0.2,0.2-0.3,0.3C283.9,53.1,281.4,59.8,280.8,61.5z"/>
		<path class="st21" d="M289.8,64.8c0.8-0.1,1.5-0.2,2.3-0.2c1.4,0,3.3,1.5,3.3,1.5c0.4,0.6,0.8,1.2,1.1,1.8
			c0.2,0.4,0.5,0.7,0.8,0.8c0.9,0.5,1.8,0.9,2.8,1.2c0.5,0.2,0.9,0.4,1.4,0.7c0.6,0.2,1.1,0.5,1.6,0.8c0.7,0.4,1.4,0.8,2.1,1.2
			c0.2,0.1,0.4,0.3,0.5,0.5c0.1,0.2,0.2,0.4,0.1,0.7c-0.1,0.4,0.2,0.7,0.3,1.1c0,0.2,0.4,0.2,0.6,0.2c1.1,0.1,2.2-0.2,3.1-0.8
			c0.6-0.4,1.4-0.7,2.1-0.7c0.7-0.1,1.4,0.2,2.1,0.1c0.3,0,0.7-0.1,1-0.2c0.3-0.2,0.6-0.4,0.7-0.7c0.2-0.3,0.1-0.5-0.2-0.6
			c-0.4-0.1-1-0.2-1.5-0.3c-0.3,0-0.7-0.1-1-0.2c-0.3-0.1-0.6-0.2-0.9-0.3c-0.7-0.3-1.4-0.4-2.2-0.6c-1.1-0.2-2.2-0.5-3.2-0.9
			c-1.1-0.5-2-1.1-2.9-1.8c-0.8-0.6-1.5-1.4-2.3-2.1c-0.9-0.9-1.9-1.6-2.8-2.6c-0.8-0.9-1.5-1.5-2.3-2.3c-0.4-0.4-0.7-0.8-1.1-1.2
			c-0.2-0.2-0.4-0.4-0.6-0.5c-1.5-1.2-4.5-0.5-5.3-0.3L289.8,64.8z"/>
		<path class="st21" d="M289.7,55.9c0,0.8,0.1,1.6,0,2.4c-0.1,0.2-0.1,0.4-0.1,0.7c0.1,2.1,0.4,4.2,0.9,6.3c0.1,0.5,0.3,0.9,0.5,1.3
			c0.1,0.3,0.2,0.7,0.3,1c0.2,0.5,0.4,1.1,0.5,1.6c0.1,0.4,0.1,0.8,0.2,1.2c0.2,0.6,0.2,1.3,0.2,2c0,0.1,0,0.2-0.1,0.3
			c-0.3,0.6-0.6,1.1-0.8,1.7c-0.1,0.2-0.2,0.4-0.2,0.6c0,0.2,0,0.4,0.1,0.5c0.1,0.2,0.2,0.3,0.4,0.4c0.9,0.5,1.9,0.9,2.9,1.3
			c0.6,0.2,1.2,0.6,1.9,0.8c0.3,0.1,0.7,0.2,1,0.3c0.3,0.1,0.3,0.3,0.6,0.4c0.4,0.1,0.9,0.1,1.4,0.1c0.3,0,0.6-0.1,0.9-0.1
			c0.1,0,0.2,0,0.3-0.1c0.1-0.1,0.1-0.2,0.1-0.2c0-0.1,0-0.2,0-0.3c0-0.1-0.1-0.2-0.2-0.2c-0.7-0.3-1.4-0.8-2-1.3
			c-0.2-0.2-0.4-0.4-0.6-0.7c-0.3-0.3-0.6-0.7-1-1c-0.5-0.4-1-0.8-1.4-1.3c-0.4-0.6-0.7-1.4-0.8-2.2c-0.1-0.9,0-1.8,0.1-2.8
			c0-0.5,0.1-0.9,0.1-1.4c0-0.3,0-0.6,0.1-0.9c0-0.1,0-0.1,0-0.2c0-0.3-1.1-7.9-1.1-7.9c-0.1-1.6-0.2-3.1-0.2-4.7
			c-0.1-0.7-0.2-1.3-0.6-1.9c-0.3-0.6-0.8-1.1-1.3-1.5c-0.6-0.3-1.2-0.4-1.8-0.2C288.9,50.1,289.7,55.9,289.7,55.9z"/>
	</g>
</g>
</svg>
